<svg id="Capa_1" data-name="Capa 1" xmlns="http://www.w3.org/2000/svg" viewBox="0 0 173.47 165.04"><defs><style>.cls-1{opacity:0.18;}</style></defs><title>Perro</title><path class="cls-1" d="M101.49,23.94a14.37,14.37,0,0,1,5.59-.91,27,27,0,0,1,10.79,3.08c4.57,2.29,8.71,5.34,13.15,7.86a31.87,31.87,0,0,0,10.2,4,21.41,21.41,0,0,0,8.95-.5c.35-.08-.7-2-1.1-2a24.33,24.33,0,0,1-8.59.27,27.4,27.4,0,0,1-6.93-2.3c-5.67-2.58-10.59-6.56-16.27-9.11a33.69,33.69,0,0,0-5.66-2.08,26,26,0,0,0-4.27-.67,19.53,19.53,0,0,0-6.95.85C99.71,22.68,101.09,24,101.49,23.94Z" transform="translate(-4.73 -4.29)"/><path class="cls-1" d="M100.48,23a21.26,21.26,0,0,1,8.24-.67,24.91,24.91,0,0,1,6.83,2.1c4.44,2,8.4,4.79,12.57,7.24,3.76,2.21,7.73,4.28,12.07,5a22.29,22.29,0,0,0,8.91-.43c.47-.1,0-1.23-.46-1.13-6.15,1.17-11.32,0-16.68-2.68-5.14-2.59-9.8-6.1-15-8.52a29.89,29.89,0,0,0-8.37-2.58,19.88,19.88,0,0,0-8.51.79C99.49,22.32,100.09,23.11,100.48,23Z" transform="translate(-4.73 -4.29)"/><path class="cls-1" d="M101,22.32a20.92,20.92,0,0,1,5.55-.91,21,21,0,0,1,5.56.93c5.2,1.55,9.82,4.77,14.38,7.6a50.66,50.66,0,0,0,9.61,4.92,24.63,24.63,0,0,0,5.74,1.37,24.36,24.36,0,0,0,7.41-.53c.14,0,.4-.51.37-.5a16.48,16.48,0,0,1-5.79.82A22.22,22.22,0,0,1,138,35c-5.42-1.58-10.09-4.95-14.81-7.9a45.16,45.16,0,0,0-11.08-5.46,20.76,20.76,0,0,0-5.69-.92,15.29,15.29,0,0,0-5.57.91C100.69,21.71,100.82,22.36,101,22.32Z" transform="translate(-4.73 -4.29)"/><path class="cls-1" d="M101.25,22.89a20.63,20.63,0,0,1,13.69.87c4.91,1.93,9.18,5.07,13.7,7.72A42.08,42.08,0,0,0,138,35.85a23.63,23.63,0,0,0,5.78,1,17.64,17.64,0,0,0,5.87-.69c.66-.14-.61-1.43-1-1.35a16.6,16.6,0,0,1-5.65.59,25.13,25.13,0,0,1-8.29-2c-5-2-9.35-5.2-14-7.78a35,35,0,0,0-12.32-4.51A20.51,20.51,0,0,0,99.7,22C99.18,22.1,100.79,23,101.25,22.89Z" transform="translate(-4.73 -4.29)"/><path class="cls-1" d="M101.14,22.25c6.17-1.65,11.16-.58,16.58,2.06,4.58,2.23,8.69,5.29,13.12,7.8a31.76,31.76,0,0,0,10.16,4,22.11,22.11,0,0,0,8.83-.43c.17,0,.31-.71,0-.64l-2.82.63-5.71-.14a27,27,0,0,1-5.63-1.69c-5.62-2.29-10.5-6.12-15.78-9a29.55,29.55,0,0,0-11.67-4,19.85,19.85,0,0,0-7.21.83C100.53,21.73,100.65,22.38,101.14,22.25Z" transform="translate(-4.73 -4.29)"/><path class="cls-1" d="M100.23,23a20.1,20.1,0,0,1,6.92-.82A23.67,23.67,0,0,1,114,23.77c6.25,2.48,11.39,6.93,17.41,9.84a34.84,34.84,0,0,0,8.35,2.94,22.52,22.52,0,0,0,9.35-.37c.27,0-.39-.2-.52-.18-13.22,2.52-20.94-6.09-31.42-11.27a27.54,27.54,0,0,0-8.13-2.9l-2.87-.29a14.19,14.19,0,0,0-5.54.92C100.47,22.5,100.2,23,100.23,23Z" transform="translate(-4.73 -4.29)"/><path class="cls-1" d="M102.29,22.73q7.58-2.68,15.37,1.82a79.93,79.93,0,0,1,7.53,4.3c2.61,1.61,5.18,3.29,7.93,4.67a38.72,38.72,0,0,0,5.59,2.27,23.47,23.47,0,0,0,5.81,1,18,18,0,0,0,5.92-.71c.76-.15-.36-1-.77-.88a25.38,25.38,0,0,1-5.69.69c-4-.06-7.95-1.79-11.42-3.59-5.62-2.92-10.75-7-16.67-9.32A32.05,32.05,0,0,0,110,21.34a20.44,20.44,0,0,0-9.22.68c-.37.1-.22.34-.06.52A2.73,2.73,0,0,0,102.29,22.73Z" transform="translate(-4.73 -4.29)"/><path class="cls-1" d="M74.86,43.94a5.3,5.3,0,0,0,4.33-2,11.39,11.39,0,0,0,1.91-3.24c1.85-4.86.29-10.09,5.41-13.95C89.24,22.73,92.75,22.25,96,22c2.46-.13,4.92-.28,7.37-.48a34.59,34.59,0,0,0,8.38-2.06,39.93,39.93,0,0,0,7.83-4.15c3-2.08,5.35-4.95,8.38-6.95a8.34,8.34,0,0,1,5.58-1.64,15.37,15.37,0,0,1,7.77,7l15.9,48-5.28.57a26.57,26.57,0,0,1-8.09-4.81c-4.15-3.51-7.45-8.1-10.85-12.3-5.25-6.5-10.83-12.59-18.61-16.09-6-2.72-13.42-4.33-20-2.8a16.54,16.54,0,0,0-9.19,5.41,14.69,14.69,0,0,0-2.94,6.61c-.08.31.55.58.64.14A13.64,13.64,0,0,1,87,30.51a15.69,15.69,0,0,1,7-3.84c10.46-2.49,22.35,2,30.18,9.23a80,80,0,0,1,8.22,9.32c4.41,5.57,8.77,11.35,14.89,15.16,2.22,1.38,4.89,2.89,7.59,3.08,3,.22,3.87-2,3.93-4.62a12.68,12.68,0,0,0-.09-1.74l-1.44-7.88c-.58-2.62-1.34-5.51-2.12-8.07a108.48,108.48,0,0,0-9.44-21.92c-1.79-3.13-4.27-7.54-7-10.43a9.32,9.32,0,0,0-6.08-3.36c-2.9-.2-5.45,1.44-7.6,3.2-3.43,2.84-6.17,5.56-10.44,7.66a40.71,40.71,0,0,1-10.17,3.51c-7.06,1.4-16.39,0-21,6.88-1.61,2.39-2,5-2.65,7.81-.88,3.59-2.41,7.3-6.78,7.29C73.28,41.78,74.45,44,74.86,43.94Z" transform="translate(-4.73 -4.29)"/><path class="cls-1" d="M73.82,42.67a5.62,5.62,0,0,0,3.76-1.28,10,10,0,0,0,3-4.67c.31-1.21.57-2.44.77-3.69a11.9,11.9,0,0,1,1-3.39q.6-4,5-5a10,10,0,0,1,7.83-3.38c2.37-.23,4.78-.25,7.14-.57a37.9,37.9,0,0,0,6.42-1.5,41,41,0,0,0,14.87-8.79l1.7-1.49,3.46-2.3L130.63,6q6.57,1,9.4,5.94c2.35,3.71,4.59,7.42,6.59,11.32a108.08,108.08,0,0,1,7.45,18.5l2,7.74,1.38,7.87a5.88,5.88,0,0,1-1,4.42l.83-.86c-2.06,1.55-3.77,1.31-6,.41-7.85-3.18-13.32-9.87-18.59-16.2-3.21-3.86-6.34-7.82-10.25-11a38.14,38.14,0,0,0-10.95-6.23C105,25.42,97.23,24.14,90.63,27a17.92,17.92,0,0,0-4.2,2.62c-2.65,2.17-3.9,5-4.72,8.19-.18.7,1.59.32,1.68-.06A13.3,13.3,0,0,1,89.51,29l8.28-2.5h3.34a33.74,33.74,0,0,1,10.43,2.38,28.31,28.31,0,0,1,6.68,3.2l7.57,6.12a115.51,115.51,0,0,1,7.9,9.21,92.74,92.74,0,0,0,6.91,7.78,33.62,33.62,0,0,0,7.8,5.77,19.07,19.07,0,0,0,4.45,2,4.28,4.28,0,0,0,4.35-1,5.25,5.25,0,0,0,1.37-3.57,8.72,8.72,0,0,0-.13-2L157,48.4a107.67,107.67,0,0,0-6.31-19,102.3,102.3,0,0,0-7.51-14.19,46.5,46.5,0,0,0-4.93-6.93,10.72,10.72,0,0,0-3.77-2.72,8.19,8.19,0,0,0-7.07.84,29.44,29.44,0,0,0-4.47,3.4,47.13,47.13,0,0,1-6.85,5.06,36.39,36.39,0,0,1-14,5c-2.41.31-4.84.41-7.26.68a19,19,0,0,0-9.55,3.28,11.43,11.43,0,0,0-3.78,5.35c-1.29,4-.9,12.29-7.64,12.3C73.12,41.44,73.48,42.69,73.82,42.67Z" transform="translate(-4.73 -4.29)"/><path class="cls-1" d="M74,42.11a7.47,7.47,0,0,0,6-4c1.83-3,1.43-6.44,2.48-9.7L86,23.34l1.84-1.13a18.23,18.23,0,0,1,6-1.58c4.41-.6,8.91-.34,13.25-1.52A38.83,38.83,0,0,0,119,13.72a52.82,52.82,0,0,0,5.12-4.19,14.94,14.94,0,0,1,4.27-3.29,4.06,4.06,0,0,1,3.87-.51,3.4,3.4,0,0,1,3.82.62,5.43,5.43,0,0,1,1.64,1.45,25.64,25.64,0,0,1,3.11,4.58c2.65,4.52,5.41,8.92,7.64,13.68a107.79,107.79,0,0,1,5.63,14.82c1.5,5.06,3.14,10.93,3.39,16.13a7,7,0,0,1-.23,2.38q-.37,2.14-3.53.73-5,1.31-8.24-3.34a20.09,20.09,0,0,1-6.24-5,53,53,0,0,1-3.91-4.55c-4.17-5.15-8.11-10.5-13.16-14.85a37.34,37.34,0,0,0-15.85-7.74,27.78,27.78,0,0,0-12.82-.33,16.61,16.61,0,0,0-7.4,4,15.26,15.26,0,0,0-4.36,8.45c-.1.47,1,1,1.12.48a14.53,14.53,0,0,1,3.79-6.8,14.68,14.68,0,0,1,3.7-2.64,9.65,9.65,0,0,1,5.87-1.24,15.68,15.68,0,0,1,8.18-.34,42.16,42.16,0,0,1,9.46,2.86l4.37,2.32,7.52,6.07a99.82,99.82,0,0,1,8.12,9.41c3.85,4.64,7.81,9.32,13,12.47A21.27,21.27,0,0,0,153,62.14a4.7,4.7,0,0,0,2.73-.06A3.89,3.89,0,0,0,158,58.65a24.46,24.46,0,0,0-.71-5.75,102.57,102.57,0,0,0-5.08-19.32A117.76,117.76,0,0,0,140.07,9.9c-1.66-2.46-3.93-4.9-7-5.47-2-.38-4.26.72-5.9,1.74a19.69,19.69,0,0,0-2.6,2.11,56.75,56.75,0,0,1-5.95,4.63,24.69,24.69,0,0,1-7.5,4.26L107,18.47c-3.8,1-7.64.88-11.5,1.31s-7.65,1-10.61,3.67a10.27,10.27,0,0,0-3.07,4.83A34.06,34.06,0,0,0,81.07,33a9,9,0,0,1-1.5,4.55c-.61,2.49-2.34,3.83-5.17,4C74.27,41.61,74,42.11,74,42.11Z" transform="translate(-4.73 -4.29)"/><path class="cls-1" d="M74.51,42.55a5.89,5.89,0,0,0,4.21-1.66,10.54,10.54,0,0,0,2.88-5.65c.79-3.74,1-7.79,4-10.53,2.82-2.55,6.56-3.24,10.23-3.62,2.37-.25,4.78-.23,7.15-.55a37.6,37.6,0,0,0,8.53-2.16c5.21-2,9.52-5.28,13.69-8.93a16.34,16.34,0,0,1,4.37-2.86c1.64-1.24,3.31-1.06,5,.52a5.8,5.8,0,0,1,4.73,3.22,35.5,35.5,0,0,1,5.53,9A53.21,53.21,0,0,1,150.45,30a100.55,100.55,0,0,1,6.14,18.9L158,56.75l.09,1.25-2.67,3.83h-1.2l-1.2-.24-8.45-4.32-5.87-5.55-2.56-3c-3.74-4.49-7.25-9.16-11.54-13.14a37.92,37.92,0,0,0-17.41-9.22c-5.95-1.38-12.82-1.63-18.15,1.87a15.38,15.38,0,0,0-4.17,4,15.12,15.12,0,0,0-2.21,5.3c-.15.62,1,.58,1.12.22,2.13-8.83,9.27-11.1,16-11.07a36.08,36.08,0,0,1,20.67,7.06c4.73,3.38,8.47,7.81,12.2,12.21s7.27,8.72,11.85,12.13a25.51,25.51,0,0,0,9.19,4.5c2.9.62,4.76-1.13,5.1-3.81a11.91,11.91,0,0,0-.14-2.66c-.32-2.4-1-5.52-1.49-7.9a103.53,103.53,0,0,0-13.75-33.09c-2.14-3.41-4.52-8.22-8.68-9.69-5.21-1.83-9.2,1.67-12.89,4.94a38.4,38.4,0,0,1-17.93,8.83c-5.32,1-11.1.64-16.14,2.9a12.33,12.33,0,0,0-6.92,8.35c-.43,1.89-.51,4-1.23,5.87l-.53,1.08c-1.23,2.83-3.07,4.06-5.5,3.69C73,41.09,74,42.57,74.51,42.55Z" transform="translate(-4.73 -4.29)"/><path class="cls-1" d="M74.66,42a5.88,5.88,0,0,0,4.27-1.77c2.24-2.23,2.95-5.35,3.44-8.35.11-.83.27-1.66.46-2.48q.51-4.5,6.56-5.09a10,10,0,0,1,8.11-4c1.21-.08,2.42-.17,3.62-.29a39,39,0,0,0,10.44-2.3,39.27,39.27,0,0,0,11.36-6.83c1.62-1.39,3.12-3.13,5-4.24l7.38-1,1.95,1.19,3.14,3.55,1.21,2,7.61,13.92,3,7.33a109.09,109.09,0,0,1,4.4,15.16L158,56.55a7.92,7.92,0,0,1,0,1.82c-.19,2-1.55,3.6-3.71,3.26-1.8-.28-3.44-1.44-5-2.29-11.41-6.13-16.54-19.1-26.3-27.13a37.91,37.91,0,0,0-13.35-7c-4.84-1.39-10.33-2-15.26-.67a17.23,17.23,0,0,0-8.21,4.93,15.33,15.33,0,0,0-3.73,7.45c-.1.42.49.43.61,0a8.65,8.65,0,0,1,1.18-3.15,7.06,7.06,0,0,1,3-3.28,9.54,9.54,0,0,1,4.49-3.29l3.21-1a23.2,23.2,0,0,1,8.35-.21,38.41,38.41,0,0,1,15.35,5.37c7.06,4.35,12.07,11.1,17.33,17.33a62.41,62.41,0,0,0,6.8,7.09,26.41,26.41,0,0,0,4.71,3.5L150.84,61c1.5.78,3.38,1.71,5.13,1.14,2.39-.78,2.73-3.39,2.63-5.53l-1.36-7.95A79.46,79.46,0,0,0,154,37.05a107.67,107.67,0,0,0-8-18.4c-1.48-2.66-3.19-5.27-4.81-7.87a22.78,22.78,0,0,0-2-2.92c-1.91-2.17-4.71-4.09-7.75-3.44a11.6,11.6,0,0,0-4.17,1.85c-4.16,2.91-7.44,6.83-12.1,9.1l-7.91,3-7.72,1.07c-2.4.24-4.75.27-7.13.71a13,13,0,0,0-8.79,5.25A11.9,11.9,0,0,0,82,28.56a54.32,54.32,0,0,0-1,6,11.64,11.64,0,0,1-1.45,3.9l-.95,1.3a4.12,4.12,0,0,1-3.82,1.64C74.57,41.38,74.36,42,74.66,42Z" transform="translate(-4.73 -4.29)"/><path class="cls-1" d="M73.79,42.57a5.71,5.71,0,0,0,3.8-1.38c2.6-2.19,3.15-5.29,3.74-8.5a15.74,15.74,0,0,1,1-3.56,6.93,6.93,0,0,1,2-4,12,12,0,0,1,3.4-2.39c3.39-1.57,7.3-1.57,10.95-1.86A39.56,39.56,0,0,0,120,13c4.17-3.19,9.59-10,15.33-6.11a15.9,15.9,0,0,1,4.25,4.83c2.27,3.74,4.58,7.39,6.58,11.28a106.38,106.38,0,0,1,6.17,14.61,81.17,81.17,0,0,1,3.24,11.48L157,56.94a12.69,12.69,0,0,1-.05,2.54L138,51.57l-2.59-3C131.53,44,128,39.2,123.65,35.13c-7.19-6.64-17.33-11.07-27.24-10.25a19.6,19.6,0,0,0-10.94,4.21c-2.74,2.26-4,5.09-4.71,8.45-.1.42,1.89.55,2,0l2.74-5.91L87.11,30a14.7,14.7,0,0,1,5.4-3,10.2,10.2,0,0,1,4.84-.78,13.3,13.3,0,0,1,4.91-.08,36.6,36.6,0,0,1,8.81,2.15,31.1,31.1,0,0,1,10.57,5.93l6.8,6.87c2.13,2.44,4,5.07,6.1,7.56a60.92,60.92,0,0,0,8.18,8.58,31.89,31.89,0,0,0,7.9,4.84,7.06,7.06,0,0,0,4.19.6c2.89-.63,3.31-3.38,3-5.91a89.88,89.88,0,0,0-3.49-15.53,109.08,109.08,0,0,0-5.73-14.82,158.46,158.46,0,0,0-8.4-14.79,25.76,25.76,0,0,0-1.89-2.75c-1.8-2.21-4.45-4.33-7.53-3.7a12.64,12.64,0,0,0-5.46,3c-5,4.17-10.17,8.48-16.46,10.47a47.28,47.28,0,0,1-11.79,1.75c-4,.2-8.29.52-11.65,2.89a9.53,9.53,0,0,0-3.7,5.23l-.49,2.41a15.53,15.53,0,0,1-.94,4.72C79.36,39,78.09,42,73.48,42.37,73,42.41,73.6,42.58,73.79,42.57Z" transform="translate(-4.73 -4.29)"/><path class="cls-1" d="M75.27,42.46a5.12,5.12,0,0,0,3.12-.7,9.6,9.6,0,0,0,3.49-4c1.47-2.8,1.18-6.1,2.17-9,1.71-5.08,5.89-6.92,11-7.62,3-.41,6.12-.38,9.17-.78a37,37,0,0,0,12.42-3.94,39.12,39.12,0,0,0,7.36-5c1.12-1,2.26-2,3.41-3a9.33,9.33,0,0,1,6.87-2.86L133,5.41a11.64,11.64,0,0,1,7.23,5,95.39,95.39,0,0,1,10.86,19.75,113.87,113.87,0,0,1,6.12,19.07c.23,1,2,7.58,1.28,10.46a3.22,3.22,0,0,1-4.08,2.42,17.7,17.7,0,0,1-2.94-1.26,35,35,0,0,1-9.49-6.7,100.5,100.5,0,0,1-6.75-7.81c-4.72-5.82-9.34-11.85-15.82-15.84a37.46,37.46,0,0,0-17.71-5.57,22.72,22.72,0,0,0-10.29,1.71A16.38,16.38,0,0,0,85.49,31a16.27,16.27,0,0,0-2.85,6.72s.44-.27.47-.41l.61-2.3a8.78,8.78,0,0,1,2.55-3.92,7.29,7.29,0,0,1,2.53-2.47,9,9,0,0,1,7-1.86,14.74,14.74,0,0,1,9.32-.73l4.85,1.18,12.94,6.92,3.64,3.32C131.37,42.32,135.26,48.05,140,53a46.7,46.7,0,0,0,12.23,9,5.45,5.45,0,0,0,5.08.22c1.85-1.11,1.89-3.29,1.84-5.22a79.31,79.31,0,0,0-2.38-11.82,53.22,53.22,0,0,0-2.27-7.71,104.14,104.14,0,0,0-8-18.28c-1.25-2.19-2.8-4.72-4.13-6.87a28,28,0,0,0-3.35-4.65,8.58,8.58,0,0,0-11-1.42,44.23,44.23,0,0,0-6.1,4.92L111.1,17.56,107,18.87a54.69,54.69,0,0,1-9.37,1.26c-5.21.4-10.91,1.29-14,6a13,13,0,0,0-1.1,2c-.89,1.82-1,3.82-1.33,5.78-.64,3.5-2.28,7.53-6.64,7.62C73.83,41.55,74.84,42.47,75.27,42.46Z" transform="translate(-4.73 -4.29)"/><path class="cls-1" d="M92,36.63c2-4.9,4.78-7,9.46-8.12.72-.17-.31-1-.73-.84a13.28,13.28,0,0,0-9.43,8.6C91.14,36.75,91.87,37,92,36.63Z" transform="translate(-4.73 -4.29)"/><path class="cls-1" d="M91.29,36.25a11.86,11.86,0,0,1,5.24-6.74,11.28,11.28,0,0,1,4-1.56c.47-.13.2-.8-.28-.66A13.72,13.72,0,0,0,90.58,36C90.41,36.44,91.11,36.67,91.29,36.25Z" transform="translate(-4.73 -4.29)"/><path class="cls-1" d="M91.56,35.14A12.08,12.08,0,0,1,101,27c.4-.11.07-.71-.21-.63a13.9,13.9,0,0,0-6.12,2.88,15.35,15.35,0,0,0-3.89,6C90.54,35.85,91.37,35.62,91.56,35.14Z" transform="translate(-4.73 -4.29)"/><path class="cls-1" d="M92,35.88c1.9-4.67,4.57-6.86,9.41-8.17.35-.09.1-.41,0-.52s-1.17,0-1.45.09a13.66,13.66,0,0,0-9.65,9C90,36.87,91.8,36.31,92,35.88Z" transform="translate(-4.73 -4.29)"/><path class="cls-1" d="M92.33,34.7l8.56-7.5c.19-.06.8-.27.84-.51s0-.51-.27-.45A13.79,13.79,0,0,0,95,29.34a16.18,16.18,0,0,0-4.1,6.2c-.14.35.17.37.39.34S92.22,35,92.33,34.7Z" transform="translate(-4.73 -4.29)"/><path class="cls-1" d="M91.29,35.63a12.58,12.58,0,0,1,3.63-5.46,14.1,14.1,0,0,1,5.88-2.56s-.17-.62-.28-.6a13.48,13.48,0,0,0-6.12,2.76,14.58,14.58,0,0,0-3.69,5.54C90.66,35.44,91.25,35.72,91.29,35.63Z" transform="translate(-4.73 -4.29)"/><path class="cls-1" d="M93.38,35.31a7.44,7.44,0,0,1,2.18-3.71,9.2,9.2,0,0,1,6.79-4.16c.17,0,.81-.24.46-.55s-1.29,0-1.61.11a15,15,0,0,0-6.36,3.21A14.66,14.66,0,0,0,91.07,36C90.85,36.5,93.18,35.82,93.38,35.31Z" transform="translate(-4.73 -4.29)"/><path class="cls-1" d="M103,28.54l1.34-.42c.65-.2-1-1.39-1.37-1.31l-1,.22C101.21,27.17,102.58,28.67,103,28.54Z" transform="translate(-4.73 -4.29)"/><path class="cls-1" d="M102,27.57l1.14-.31c.64-.18,0-1-.38-.87l-1.17.31C101,26.85,101.57,27.68,102,27.57Z" transform="translate(-4.73 -4.29)"/><path class="cls-1" d="M102.44,26.91l1.33-.44c.15,0,0-.69-.07-.65l-1.33.44C102.22,26.31,102.34,27,102.44,26.91Z" transform="translate(-4.73 -4.29)"/><path class="cls-1" d="M102.73,27.47l1.14-.36c.94-.29-.91-1-1.3-.93l-1.35.3C100.73,26.59,102.22,27.63,102.73,27.47Z" transform="translate(-4.73 -4.29)"/><path class="cls-1" d="M102.79,26.78l1.11-.35c.47-.15.36-.8-.14-.65l-1.4.44C101.94,26.35,102.35,26.92,102.79,26.78Z" transform="translate(-4.73 -4.29)"/><path class="cls-1" d="M101.69,27.52l1.32-.44c.15,0,.43-.46.43-.46l-1.33.44C102,27.11,101.68,27.52,101.69,27.52Z" transform="translate(-4.73 -4.29)"/><path class="cls-1" d="M103.74,27.32l1.34-.43c.36-.11.19-.35,0-.52s-1.31-.16-1.62-.09l-1.23.29c-.37.09-.23.34-.08.52A2.66,2.66,0,0,0,103.74,27.32Z" transform="translate(-4.73 -4.29)"/><path class="cls-1" d="M103.8,37.92a51.83,51.83,0,0,1,11.35,2.42A52.93,52.93,0,0,1,134.63,52c.82.69.07-1.68-.27-2-3.74-3.08-5.34-4.58-9.54-7a54.45,54.45,0,0,0-10.61-4.73,52.56,52.56,0,0,0-11.3-2.41C102.27,35.74,103.31,37.85,103.8,37.92Z" transform="translate(-4.73 -4.29)"/><path class="cls-1" d="M102.75,36.68a38.65,38.65,0,0,1,8.53,1.65,48.66,48.66,0,0,1,22.4,12.39c.64.53.7-.91.39-1.17-1.45-1.19-3.11-2.68-4.62-3.78A54.13,54.13,0,0,0,122,41.31a29.55,29.55,0,0,0-5.38-2.39,66.15,66.15,0,0,0-14-3.43C102,35.39,102.36,36.62,102.75,36.68Z" transform="translate(-4.73 -4.29)"/><path class="cls-1" d="M103,36.13c5.79.9,11.33,1.95,16.67,4.5l5.08,2.66a52.64,52.64,0,0,1,9.12,6.87c.11.09.58-.31.58-.31C130,46,125.51,42.5,120.07,40.11L114.68,38a51.73,51.73,0,0,0-11.34-2.41C103.19,35.55,103,36.13,103,36.13Z" transform="translate(-4.73 -4.29)"/><path class="cls-1" d="M103.28,36.55c5.79.89,11.36,2,16.71,4.49l5.12,2.66a51.91,51.91,0,0,1,9.2,6.88c.25.21.41-.1.44-.29s-.52-.95-.73-1.12c-4.57-3.73-9.12-7.19-14.61-9.5L114,37.59a53.5,53.5,0,0,0-11.34-2.4C101.69,35.05,102.87,36.49,103.28,36.55Z" transform="translate(-4.73 -4.29)"/><path class="cls-1" d="M103.5,36c5.82.9,11.41,2,16.78,4.54l5.13,2.69a52.18,52.18,0,0,1,9.16,7c.09.07.44-.47.32-.58-4.5-3.81-9-7.32-14.43-9.7L115,37.77a53.25,53.25,0,0,0-11.39-2.42C103.39,35.31,103.25,36,103.5,36Z" transform="translate(-4.73 -4.29)"/><path class="cls-1" d="M102.34,36.59c5.78.9,11.34,1.93,16.67,4.49l5.09,2.66a51.92,51.92,0,0,1,9.18,6.84c.16.14.84.06.55-.18-4.46-3.73-8.92-7.21-14.31-9.53l-5.35-2.08a51.58,51.58,0,0,0-11.33-2.38C102.72,36.39,102.08,36.55,102.34,36.59Z" transform="translate(-4.73 -4.29)"/><path class="cls-1" d="M104.23,36.47l30.38,13.78c.16.13.47.43.69.28a.31.31,0,0,0,.06-.52c-4.61-3.88-9.18-7.44-14.78-9.85-1.75-.75-3.76-1.57-5.57-2.16a71.3,71.3,0,0,0-11.59-2.45c-.29,0-.25.34-.21.48S104,36.44,104.23,36.47Z" transform="translate(-4.73 -4.29)"/><path class="cls-1" d="M142.93,60.45q6,8.79,12,17.65A44.84,44.84,0,0,1,157.85,83c3.33,6.12,4.71,11.47,2.49,18.84-.16.56.26,1.37.53.53a25.19,25.19,0,0,0,1.39-6.19,20.76,20.76,0,0,0-.41-5.34,31.42,31.42,0,0,0-3.59-9.62,47,47,0,0,0-3-4.91q-6-9-12.14-18c-.29-.43-.44.55-.44.55A2.46,2.46,0,0,0,142.93,60.45Z" transform="translate(-4.73 -4.29)"/><path class="cls-1" d="M142.11,59.36q6.09,8.88,12.09,17.81A60.06,60.06,0,0,1,158,83.75,25.68,25.68,0,0,1,160.88,96a15.86,15.86,0,0,1-1.35,5.75c-.12.36.2.36.41.32s.89-1,1-1.26A20.08,20.08,0,0,0,162,91.83a31.06,31.06,0,0,0-.58-3.2,36.08,36.08,0,0,0-4.28-9.77c-4.31-7.17-9.37-14.11-14-21C142.7,57.31,141.88,59,142.11,59.36Z" transform="translate(-4.73 -4.29)"/><path class="cls-1" d="M142.12,58.36q6.12,8.86,12.12,17.8a42.64,42.64,0,0,1,2.94,4.9,27.61,27.61,0,0,1,3.76,13.86,15.9,15.9,0,0,1-1.3,5.6c-.07.22.39.75.49.43a20.38,20.38,0,0,0,1.2-8.53,24.16,24.16,0,0,0-.47-3,28.82,28.82,0,0,0-2.31-6.4,55.92,55.92,0,0,0-3.84-6.56q-6-8.94-12.12-17.79C142.53,58.53,142,58.16,142.12,58.36Z" transform="translate(-4.73 -4.29)"/><path class="cls-1" d="M142.72,58.85q6.08,8.88,12.08,17.81a47.76,47.76,0,0,1,2.94,4.9c3.4,6.23,4.92,12,2.61,19.47-.07.24,0,.5.3.49s.47-.61.53-.82a24.06,24.06,0,0,0,1.15-5.91,19.86,19.86,0,0,0-.45-4.82,32.1,32.1,0,0,0-3.66-9.62,50,50,0,0,0-3-4.91q-6-8.89-12-17.77C142.78,57,142.49,58.5,142.72,58.85Z" transform="translate(-4.73 -4.29)"/><path class="cls-1" d="M142.62,58.43c4.4,6.45,9,12.82,13.13,19.42A39,39,0,0,1,160,86.26a28.94,28.94,0,0,1,1.32,5.81,19.69,19.69,0,0,1-1.21,8.6c0,.11.34.58.37.51A20.92,20.92,0,0,0,162,93.84a22.47,22.47,0,0,0-1.3-7.48,45.75,45.75,0,0,0-3.27-6.85q-1.47-2.46-3.1-4.82-5.48-8.14-11-16.22C143.18,58.33,142.65,58.48,142.62,58.43Z" transform="translate(-4.73 -4.29)"/><path class="cls-1" d="M141.66,58.93q6.08,8.87,12.07,17.79a46.71,46.71,0,0,1,2.94,4.9,29.67,29.67,0,0,1,2.38,5.15,18.2,18.2,0,0,1-.05,14.48c-.26.77,1.1.13,1.23-.27a16.52,16.52,0,0,0,1.23-5.87,23.14,23.14,0,0,0-.67-5.92,32.5,32.5,0,0,0-3.34-8.09,47.85,47.85,0,0,0-2.95-4.9q-6-8.86-12-17.69C142.17,58,141.44,58.62,141.66,58.93Z" transform="translate(-4.73 -4.29)"/><path class="cls-1" d="M143.2,58.94q6.11,8.88,12.12,17.83a46.85,46.85,0,0,1,2.94,4.91c3.43,6.33,5,12.28,2.36,19.86,0,.06.6.15.66,0a23.42,23.42,0,0,0,1.37-5.83,15.27,15.27,0,0,0-.29-4.64,30.45,30.45,0,0,0-3.51-9.67,45.41,45.41,0,0,0-2.95-4.92q-6-8.94-12.11-17.82C143.62,58.39,143,58.68,143.2,58.94Z" transform="translate(-4.73 -4.29)"/><path class="cls-1" d="M136.1,127.68a79.06,79.06,0,0,1,12.27,12.8,79,79,0,0,1,10.72,14c.59.86.47-1.55.22-1.92a143.51,143.51,0,0,0-10.71-14.48c-4-4.52-8.23-8.61-12.62-12.76-.39-.37-.35.65-.35.66A2.8,2.8,0,0,0,136.1,127.68Z" transform="translate(-4.73 -4.29)"/><path class="cls-1" d="M135.22,126.43a124.55,124.55,0,0,1,12.58,12.69,119.84,119.84,0,0,1,10.55,14.38c.36.52.92-1.17.67-1.53a120.72,120.72,0,0,0-10.66-14.38A133.16,133.16,0,0,0,135.85,125C135.34,124.48,134.93,126.16,135.22,126.43Z" transform="translate(-4.73 -4.29)"/><path class="cls-1" d="M135.2,125.55a120.39,120.39,0,0,1,12.6,12.65,119.3,119.3,0,0,1,10.55,14.33,1.1,1.1,0,0,0,.59.22,118.93,118.93,0,0,0-10.53-14.41,117.67,117.67,0,0,0-12.6-12.66A1.41,1.41,0,0,0,135.2,125.55Z" transform="translate(-4.73 -4.29)"/><path class="cls-1" d="M135.76,126a125.39,125.39,0,0,1,12.58,12.67,119.67,119.67,0,0,1,10.57,14.35c.17.24.4.08.51-.1s-.09-1-.23-1.22a121.61,121.61,0,0,0-10.67-14.38A134,134,0,0,0,136,124.69C135.33,124.09,135.45,125.75,135.76,126Z" transform="translate(-4.73 -4.29)"/><path class="cls-1" d="M135.81,125.7a119.25,119.25,0,0,1,12.58,12.65,120,120,0,0,1,10.53,14.34c.07.11.64-.18.62-.2A120.28,120.28,0,0,0,149,138.07a118.78,118.78,0,0,0-12.6-12.68C136.29,125.3,135.79,125.68,135.81,125.7Z" transform="translate(-4.73 -4.29)"/><path class="cls-1" d="M134.77,126.1a91.65,91.65,0,0,1,9.54,9.36,99.77,99.77,0,0,1,13.58,17.64c.29.42.85-.11.61-.45-2.54-3.71-5-7.33-7.83-10.84a61.47,61.47,0,0,0-5.82-6.77,97.1,97.1,0,0,0-9.49-9.32C135,125.4,134.47,125.82,134.77,126.1Z" transform="translate(-4.73 -4.29)"/><path class="cls-1" d="M136.4,126.13a99.81,99.81,0,0,1,15.25,16.05,89.14,89.14,0,0,1,7.8,10.89c.22.33.76,0,.54-.38l-5-7.41a90.09,90.09,0,0,0-8.6-10.3c-4.9-5.31-2.48-2.77-9.68-9.5C136.35,125.18,136.06,125.81,136.4,126.13Z" transform="translate(-4.73 -4.29)"/><path class="cls-1" d="M154.05,135c1.48-6.54,2.85-14-1.7-19.69a15.06,15.06,0,0,0-5.09-3.65c-4.39-2.14-9.58-1-13.69,1.25-4.83,2.65-8,6.47-10.61,11.3-1.77,3.28-4.21,7.68-4.24,11.68a6.92,6.92,0,0,0,1.63,5.06,9,9,0,0,0,4.88,2.21l1.82.29,21.77,2.2c.72.07,0-1.72-.38-1.75l-16.13-1.55c-2.35-.22-4.7-.44-7-.68s-5.15-1.23-5.65-4.35a10.84,10.84,0,0,1,.51-4.89,39.31,39.31,0,0,1,5.62-11.62,31.13,31.13,0,0,1,5.07-5.8c3.34-2.94,9.24-4.87,13.85-3.74l2.8.9q7.6,5,7.4,12.85a48.75,48.75,0,0,1-1.48,9.66C153.28,135.16,154,135.41,154.05,135Z" transform="translate(-4.73 -4.29)"/><path class="cls-1" d="M153.32,134.64c1.11-4.84,2.5-10.24.76-15.12-1.25-3.53-3.44-6.51-7.07-7.91a16.94,16.94,0,0,0-16.46,2.55c-4.69,3.57-7.78,8.57-10.16,13.89-1.26,2.8-2.75,6-2.25,9.17a5.48,5.48,0,0,0,3.07,4.19,14.26,14.26,0,0,0,3.46.92c2.39.29,4.79.53,7.18.73q8.13.8,16.26,1.57c.48.05.49-1.24,0-1.29-7.59-.77-15.48-1.16-23-2.39a7.49,7.49,0,0,1-4.18-1.95c-1.91-1.87-1.09-5.11-.42-7.26a40.7,40.7,0,0,1,5.86-11.36,23.86,23.86,0,0,1,6.35-6.24,13.82,13.82,0,0,1,3.57-1.87q11.26-3.08,15.46,4.11c3.65,5.61,2.27,12,.87,18.1A.37.37,0,0,0,153.32,134.64Z" transform="translate(-4.73 -4.29)"/><path class="cls-1" d="M153.58,133.53c.85-3.79,1.76-7.59,1.41-11.51a15.81,15.81,0,0,0-3.36-8.68c-2.43-3-6.77-4.46-10.54-4.47a17.6,17.6,0,0,0-10.83,4c-5.14,4.16-8.49,10.15-10.79,16.26-1,2.65-2,6.14-.61,8.86a6.93,6.93,0,0,0,4.31,3.27,23,23,0,0,0,3.6.76c-3-.48,23.74,2.05,21.27,1.82.09,0,.7,0,.53,0l-11.43-1.15a32,32,0,0,1-14-2.1q-3.12-.37-2.67-4.11a4.15,4.15,0,0,1-.77-4.36,43.41,43.41,0,0,1,2.77-6.56,34.88,34.88,0,0,1,5.85-8.57,22.92,22.92,0,0,1,4.25-3.48,14.7,14.7,0,0,1,3.68-1.88l10.57.08,2.45,1.29,4.25,6c1.81,4.37.16,11-.68,14.73C152.64,134.39,153.46,134.06,153.58,133.53Z" transform="translate(-4.73 -4.29)"/><path class="cls-1" d="M154,134.28c1.11-4.93,2.33-10.16.66-15.12a12.86,12.86,0,0,0-4.65-6.37,14.46,14.46,0,0,0-11.12-2.16A21.62,21.62,0,0,0,127.21,118a43.25,43.25,0,0,0-6.81,11.91c-.93,2.44-1.8,5.08-1.1,7.69a5.17,5.17,0,0,0,3.38,3.62,12.9,12.9,0,0,0,2.44.72l1.75.27q10.84,1.14,21.7,2.21c.65.07-.06-1.32-.48-1.36-7.53-.76-15.35-1.19-22.84-2.35-2.84-.44-4.72-1.66-5-4.28a10.63,10.63,0,0,1,.68-4.73c2.07-5.92,6.39-13.37,11.07-16.59,4.07-2.79,10.11-4.92,14.88-2.31l6.36,7.26a13.39,13.39,0,0,1,.68,3.81c.29,3.69-.72,7.35-1.56,10.91C152.16,135.41,153.89,134.71,154,134.28Z" transform="translate(-4.73 -4.29)"/><path class="cls-1" d="M154.36,133.06c1.66-7.42,3.28-16.93-4.07-22s-17-1-22.51,5A36.22,36.22,0,0,0,121.9,125a43.11,43.11,0,0,0-2.49,6.06c-.62,2.06-1.15,4.27-.41,6.34a5.65,5.65,0,0,0,3.9,3.61,15.29,15.29,0,0,0,2.79.54c7.64,1.09,15.36,1.72,23,2.47.15,0,.32-.58.31-.58q-10.74-1.1-21.52-1.85a10.63,10.63,0,0,1-4.9-1.13,5.53,5.53,0,0,1-2.11-1.38,3.74,3.74,0,0,1-1.16-3,5.5,5.5,0,0,1,.1-3.38,20.73,20.73,0,0,1,1.19-3.34,42.17,42.17,0,0,1,6.91-11.62,14.1,14.1,0,0,1,5.41-4,11.58,11.58,0,0,1,6.14-2.75,15.34,15.34,0,0,1,8,.94c3.7,1.42,5.34,4.06,6.56,7.42,1.72,4.74.3,10-.79,14.7C152.69,134.94,154.26,133.48,154.36,133.06Z" transform="translate(-4.73 -4.29)"/><path class="cls-1" d="M153.3,134c.92-4.19,1.82-8.38,1.2-12.67a13.58,13.58,0,0,0-5.39-9.06c-3.17-2.32-7.63-2.77-11.39-2.18-5.65.88-10.4,4.94-13.66,9.39a44.14,44.14,0,0,0-5.84,11.18,13.11,13.11,0,0,0-.91,5.43,6,6,0,0,0,4.36,5.34,17.66,17.66,0,0,0,2.79.75l1.75.27q10.85,1,21.7,2.08c.32,0-.21-.39-.4-.41q-10.69-1.12-21.38-2.34l-1.66-.35c-1.79-.45-4.18-1.71-4.94-3.51-1-2.42.18-5.76.88-7.83,1.51-4.42,4.74-10.36,8.44-13.79a20.1,20.1,0,0,1,6.82-4.53l5.19-1.09a15.09,15.09,0,0,1,5.41.88l5.92,4.88a10.91,10.91,0,0,1,1.37,3.55c1.2,4.64.14,9.2-.86,13.73C152.67,133.88,153.28,134.1,153.3,134Z" transform="translate(-4.73 -4.29)"/><path class="cls-1" d="M155.37,133.7c1-4.66,2.07-9.36.82-14.06a12.64,12.64,0,0,0-8.11-8.89c-4.81-1.74-9.84-.87-14.32,1.37-4.73,2.37-8.09,7-10.47,11.54-1.73,3.3-3.5,6.85-3.9,10.62a9.42,9.42,0,0,0-.07,2.37,7.05,7.05,0,0,0,1.44,3.27c1.11,1.41,3.19,2,4.86,2.23,7.79,1.15,15.83,1.56,23.66,2.3.46.05.23-.71-.22-.75L133,142.22q-3.5-.36-7-.62l-1.68-.26c-2.46-.27-3.41-2-2.83-5.23-1.62-2.23-1.82-4.39-.62-6.47l1.9-4.22c1.63-3.36,4-7.28,6.93-9.73a19,19,0,0,1,11.19-4.85,10.33,10.33,0,0,1,4,.32l5,2.32a9.73,9.73,0,0,1,3.94,6.23,11.33,11.33,0,0,1,1,5,48,48,0,0,1-1.64,9.67C153,135,155.27,134.18,155.37,133.7Z" transform="translate(-4.73 -4.29)"/><path class="cls-1" d="M147.55,119.07c-.63-.85-.66-1.11-1.78-1.44a3.07,3.07,0,0,0-3.71,1.45c-2,2.75-1.83,7.06,1.51,8.74a3.92,3.92,0,0,0,4.68-.83c2.66-2.64,1.22-6.2-1.07-8.44-.27-.26-.26.42-.15.55a6.13,6.13,0,0,1,1.44,2.14,3.15,3.15,0,0,1,.08,2.57q-.18,4.29-6.48,1.68-.13-10.81,5.34-6C147.67,119.84,147.72,119.29,147.55,119.07Z" transform="translate(-4.73 -4.29)"/><path class="cls-1" d="M147.07,119a3.16,3.16,0,0,0-5.08-.52,5.84,5.84,0,0,0-.92,6.76c1.37,2.14,3.82,2.88,5.89,1.31a4.55,4.55,0,0,0,1.87-4c-.12-1.71-1.14-2.79-2.27-4-.35-.36-.83.24-.51.47,1.65,1.21,2.46,2.77,1.91,4.73-.35,2-2,2.54-5,1.73q-3-3.12,3.46-6.06C146.66,119.9,147.3,119.41,147.07,119Z" transform="translate(-4.73 -4.29)"/><path class="cls-1" d="M147.07,117.41a3.09,3.09,0,0,0-4.85-.71,6.3,6.3,0,0,0-.07,9.07,4.37,4.37,0,0,0,2.42,1.28,5.8,5.8,0,0,0,1.75-.69,3.87,3.87,0,0,0,2.24-1.81,16.5,16.5,0,0,0,.58-1.58c.56-2.21-.89-4.2-2.27-5.72-.44-.48-.83.51-.51.8a5.15,5.15,0,0,1,2,3.29,2.16,2.16,0,0,1-.4,2.58,4.62,4.62,0,0,1-2.1,2.62l.61-.26a2.42,2.42,0,0,1-3.19-1q-2.73-1.2-1.94-4.41l.45-1.29q1.71-3.17,4.66-.76C146.91,119.61,147.34,117.83,147.07,117.41Z" transform="translate(-4.73 -4.29)"/><path class="cls-1" d="M147.57,118.75a2.7,2.7,0,0,0-2.27-1.44,3.49,3.49,0,0,0-3,1.38,5.53,5.53,0,0,0,1,7.74,3.79,3.79,0,0,0,5.47-1.59c1.32-2.42-.06-4.81-1.74-6.56-.33-.35-1.28.75-.89,1.08l-1,6.52a2.63,2.63,0,0,1-2.51-2.7,2.11,2.11,0,0,1,.45-2.84q.69-2.86,3.31-.54C146.69,120.46,147.77,119,147.57,118.75Z" transform="translate(-4.73 -4.29)"/><path class="cls-1" d="M148,116.93a2.69,2.69,0,0,0-3-1.4,4.31,4.31,0,0,0-2.69,1.74c-1.53,2-2.13,5-.73,7.28,1,1.59,3.41,3.14,5.36,2.14a5.22,5.22,0,0,0,2.14-2.15c1.48-2.79.22-5.36-1.62-7.5-.43-.5-1,.94-.67,1.22a5.35,5.35,0,0,1,1.92,3.26,2.14,2.14,0,0,1-.92,2.92c-.57,1.82-1.79,2.34-3.65,1.58l-2.5-5.21,1.24-2.23a2.27,2.27,0,0,1,3.86.5C147,119.66,148.29,117.36,148,116.93Z" transform="translate(-4.73 -4.29)"/><path class="cls-1" d="M146.75,118.4a3.46,3.46,0,0,0-5.58-.33,5.9,5.9,0,0,0-.71,7,4.35,4.35,0,0,0,6.9,1.06c1.51-1.44,1.53-2.72,1.21-4.65a6.1,6.1,0,0,0-2.17-3.64c-.12-.12-.74.16-.51.39a9.91,9.91,0,0,1,2.61,3.89l0-.59-.3,1.61q-.19,2.61-3.24,2c-2.35,1.4-3.48.83-3.37-1.73q-2.44-4.51,4.53-4.64C146.33,119,147,118.76,146.75,118.4Z" transform="translate(-4.73 -4.29)"/><path class="cls-1" d="M148.56,118c-1.59-2-4.06-1.56-5.82.06a5.67,5.67,0,0,0,.79,8.59A4.22,4.22,0,0,0,149.6,125c1.56-2.66.32-5.2-1.64-7.21-.34-.35-1.18.55-.83.9a5.84,5.84,0,0,1,2,3.34l-.22,2.58c-.73,1.86-1.93,2.39-3.58,1.6a2,2,0,0,1-2.26-.76,3.36,3.36,0,0,1-1.13-2.45v-2q2.33-5.39,5.23-1.69C147.31,119.67,148.93,118.48,148.56,118Z" transform="translate(-4.73 -4.29)"/><path class="cls-1" d="M162.55,104.17a34.17,34.17,0,0,1,7.8,8.2,9.32,9.32,0,0,1,2.3,4.47l-.08-1.37-.14,1.17.15-.49-5.91-2.93c0-.17-.56-.15-.6-.27.75,1.93,1.43,4.37,3.51,5.28.93.41,2.68.71,3.4-.27.59-.81.22-2.4,0-3.23a20.59,20.59,0,0,0-3.67-5.88,48,48,0,0,0-6.94-7c-.4-.35-.32.66-.32.68A2.78,2.78,0,0,0,162.55,104.17Z" transform="translate(-4.73 -4.29)"/><path class="cls-1" d="M161.64,102.89a43.68,43.68,0,0,1,6.79,6.87,15,15,0,0,1,2.27,3.52,3.53,3.53,0,0,1,1.1,3.33l.45-1.07q-4.19,2.76-5.48-2.56c-.16-.4-1.15-.54-.93.07.77,2.08,1.7,5,4.38,5a2.21,2.21,0,0,0,2.25-1.46,3.52,3.52,0,0,0,.17-2.59,23.14,23.14,0,0,0-2.51-4.27,47.92,47.92,0,0,0-7.95-8.34C161.65,101,161.33,102.63,161.64,102.89Z" transform="translate(-4.73 -4.29)"/><path class="cls-1" d="M161.63,102.06a40.14,40.14,0,0,1,8.94,10,6.8,6.8,0,0,1,1.28,2.42c-3.21.84-5,.06-5.47-2.36-.08-.21-.21-.66-.49-.67a.32.32,0,0,0-.31.45c.65,2,1.45,4.25,3.51,5.19a2.93,2.93,0,0,0,2.47.1,2.2,2.2,0,0,0,.9-2.5,17.92,17.92,0,0,0-2.26-4.16,43.4,43.4,0,0,0-7.95-8.41A1.25,1.25,0,0,0,161.63,102.06Z" transform="translate(-4.73 -4.29)"/><path class="cls-1" d="M162.16,102.53a26.61,26.61,0,0,1,4.3,3.91,27.56,27.56,0,0,1,3.67,4.46l-.55,5.1a5.4,5.4,0,0,1-2.09-2.75c-.08-.18-.38-.71-.62-.71s-.48.11-.39.34c.74,1.94,1.67,4.22,4,4.62a2.06,2.06,0,0,0,2.52-1.18,3.54,3.54,0,0,0-.13-2.4,21.71,21.71,0,0,0-2.56-4.37,48.7,48.7,0,0,0-8-8.4C161.61,100.59,161.84,102.26,162.16,102.53Z" transform="translate(-4.73 -4.29)"/><path class="cls-1" d="M162.26,102.2a46.11,46.11,0,0,1,5.62,5.29c1.55,1.83,3.78,4.51,4.4,6.74.22.78.32,1-.15,1.77-1.81,2.75-5.13-3.57-5.36-4.34s-.75,0-.57.56c.79,2.28,2.31,5.6,5.33,5,1.6-.32,1.77-1.91,1.36-3.24-.57-1.87-2.13-3.76-3.29-5.3a42.08,42.08,0,0,0-6.8-6.87C162.7,101.73,162.23,102.17,162.26,102.2Z" transform="translate(-4.73 -4.29)"/><path class="cls-1" d="M161.2,102.59a39.14,39.14,0,0,1,7.85,8.25c1.08,1.63,2.78,3.53,2.21,5.64l.32-.55-.93,1.11.55-.41c-3,1-4.34-1.8-5.26-4.08-.16-.39-1.05-.55-.86,0,.59,1.75,1.14,3.67,2.78,4.71a3.05,3.05,0,0,0,3.4.11,2.63,2.63,0,0,0,1-2c0-1.39-2.39-4.56-2.54-4.77a46.57,46.57,0,0,0-8-8.35C161.4,102,160.87,102.32,161.2,102.59Z" transform="translate(-4.73 -4.29)"/><path class="cls-1" d="M162.82,102.59a24.8,24.8,0,0,1,7.81,8.77q5.37,4.48-1.39,4.94c-1.26-1-1.54-2.48-1.93-3.93-.07-.27-.76-.35-.65,0,.46,1.6.94,3.73,2.59,4.51a5.71,5.71,0,0,0,1.89.64,3.47,3.47,0,0,0,1.63-.16c1.45-.64.95-2.38.49-3.47a20.41,20.41,0,0,0-2.09-3.46A42.12,42.12,0,0,0,163,101.9C162.65,101.58,162.45,102.28,162.82,102.59Z" transform="translate(-4.73 -4.29)"/><path class="cls-1" d="M170.05,120.2a18.42,18.42,0,0,1,3.48,3.12q3.51,2.39,1.21,6.92,1.83,5-2.23,6.38l-2,.8c-2.11.72-4.26,1.2-6.36,2a23.6,23.6,0,0,0-5.86,2.76,37.09,37.09,0,0,0-10.67,10.36,40.34,40.34,0,0,0-5.75,13.91c-.11.47.69.24.8-.19A35.19,35.19,0,0,1,147,154.62a36.3,36.3,0,0,1,5.13-6.7l6.5-5.21a31.28,31.28,0,0,1,9.73-3.92c3.92-1,8.52-2.13,9.3-6.8a11.25,11.25,0,0,0-.4-4.89c-1.19-4-4.26-6.71-7.4-9.24-.41-.33-.33.65-.32.68C169.55,119,169.67,119.9,170.05,120.2Z" transform="translate(-4.73 -4.29)"/><path class="cls-1" d="M169.14,118.93a33,33,0,0,1,3.65,3.12l2.64,3.67.68,1.75.32,1.86-6,7.48-4.88,1.41a24.84,24.84,0,0,0-6,2.56,35,35,0,0,0-10,8,36.24,36.24,0,0,0-4.83,7.07A43,43,0,0,0,141.14,166c-.16.64,1.71-.11,1.83-.54,1.47-5.5,3.38-10.49,6.93-15a34.47,34.47,0,0,1,16.6-11.78c2.63-.81,5.58-1.14,7.76-3a8,8,0,0,0,3.12-5.62c.4-5.5-3.81-9.5-7.7-12.61C169.14,117,168.83,118.68,169.14,118.93Z" transform="translate(-4.73 -4.29)"/><path class="cls-1" d="M169.13,118.09c2.93,2.35,6,4.82,7.06,8.56a7.34,7.34,0,0,1-4.38,8.92c-2.66,1.07-5.61,1.37-8.3,2.36a33.4,33.4,0,0,0-13.85,9.65,36.55,36.55,0,0,0-3.89,5.29,41.68,41.68,0,0,0-4.43,12c-.11.47.91.56,1,.1A45,45,0,0,1,147,153.37a36.38,36.38,0,0,1,11.64-11.84c4-2.66,7.41-3.4,11.58-4.68a10.07,10.07,0,0,0,5.22-3,7.57,7.57,0,0,0,1.52-6c-.58-4.27-4-7.13-7.17-9.65A1.42,1.42,0,0,0,169.13,118.09Z" transform="translate(-4.73 -4.29)"/><path class="cls-1" d="M169.67,118.56a38.76,38.76,0,0,1,3.65,3.12l1.55,1.79L171,136.54a35.06,35.06,0,0,1-4.53,1.43,35.36,35.36,0,0,0-9.53,4.78,36.38,36.38,0,0,0-7.73,7.34c-3.59,4.6-5.58,9.76-7,15.37-.18.73,1,.41,1.09,0,2.31-8.43,5.57-15.13,12.82-20.94a38.1,38.1,0,0,1,12.84-6.62c3-.91,6.05-1.72,7.72-4.57a8.58,8.58,0,0,0,.57-6.89c-1.25-4-4.23-6.72-7.42-9.27C169.1,116.64,169.34,118.31,169.67,118.56Z" transform="translate(-4.73 -4.29)"/><path class="cls-1" d="M169.77,118.23c3.3,2.64,7.1,5.77,7.23,10.38a7.79,7.79,0,0,1-1.51,4.82c-1.93,2.52-6.48,2.86-9.38,3.76a34.55,34.55,0,0,0-17.25,12.16,40.53,40.53,0,0,0-6.93,15.39c-.06.27.18.78.29.35a27.76,27.76,0,0,1,8.83-16.61,18.45,18.45,0,0,1,5.86-5.93,32.21,32.21,0,0,1,9.27-4.72c2.53-.77,5.75-1,8-2.5a7.79,7.79,0,0,0,3.32-7.8c-.61-4.3-4-7.13-7.2-9.67C170.2,117.77,169.73,118.21,169.77,118.23Z" transform="translate(-4.73 -4.29)"/><path class="cls-1" d="M168.7,118.63c3.27,2.58,7,5.81,7.26,10.3.29,4.19-4,7.22-7.93,8.18a36.7,36.7,0,0,0-7.45,2.25,36.14,36.14,0,0,0-12,9,35.55,35.55,0,0,0-5.83,9,43.66,43.66,0,0,0-2.47,8.26c-.17.74,2,.26,2.1-.13,1.81-6.9,4.52-13.22,9.67-18.29a35.21,35.21,0,0,1,14-8.72c2.58-.82,5.44-1.23,7.68-2.9a7.26,7.26,0,0,0,3.06-6.92c-.52-4.6-4.12-7.68-7.51-10.36C168.9,118,168.37,118.37,168.7,118.63Z" transform="translate(-4.73 -4.29)"/><path class="cls-1" d="M170.32,118.62a12.62,12.62,0,0,1,5.21,5.73,6.57,6.57,0,0,1,2,4.66,7.55,7.55,0,0,1-1.08,4.55,7.74,7.74,0,0,1-4,2.83c-1.68.35-3.35.72-5,1.13a18.77,18.77,0,0,0-4.83,1.75,36.88,36.88,0,0,0-13.25,10.64,36.1,36.1,0,0,0-4.38,7.28,38.44,38.44,0,0,0-2.59,8.19,2.93,2.93,0,0,0,.08.62c2.84-12.87,11.76-25.13,25-27.84,3.46-.72,8.7-1.67,10.12-5.48,2.39-6.43-2.48-11.12-7-14.75C170.14,117.63,169.94,118.33,170.32,118.62Z" transform="translate(-4.73 -4.29)"/><path class="cls-1" d="M142.37,165.75a49,49,0,0,1-10.07,2.15,31.89,31.89,0,0,1-6.83.58,28.16,28.16,0,0,1-7.39-.4,8.82,8.82,0,0,1-4.17-2.14,9.18,9.18,0,0,1-2.19-3.76,22.1,22.1,0,0,0-1.36-3.38,12,12,0,0,0-2.69-2.91c-3.25-2.77-7.24-4.12-11.24-5.46a1.88,1.88,0,0,0-.63.08c4.21,1.34,9.21,2.67,12.28,6.1a15.7,15.7,0,0,1,3,5.78,11.36,11.36,0,0,0,1.8,3.47c1.78,2.14,4.48,2.88,7.13,3.21,7.57,1,15.12-.84,22.4-2.66C142.62,166.36,142.55,165.71,142.37,165.75Z" transform="translate(-4.73 -4.29)"/><path class="cls-1" d="M141.88,165.43A65.52,65.52,0,0,1,128.42,168l-10.5-.19c-5.49-1.56-6.19-6.64-9-10.26-3.19-4.17-8.3-5.85-13.11-7.46-.64-.22-.26.86.15,1,5.8,2,11.84,4,14.4,10.33.89,2.2,1.73,4.14,3.68,5.55a12.3,12.3,0,0,0,4.32,1.67,24.15,24.15,0,0,0,4.33.41l6.9-.26a71.64,71.64,0,0,0,13.46-2.61C143.93,166,142.3,165.32,141.88,165.43Z" transform="translate(-4.73 -4.29)"/><path class="cls-1" d="M141.62,164.06a63.74,63.74,0,0,1-13.48,2.6,39.77,39.77,0,0,1-8.86,0l-5.35-1.8a49,49,0,0,1-4.4-7.91c-2.93-5-8.89-6.9-14-8.62-.63-.2.05,2,.52,2.18a57.29,57.29,0,0,1,6.42,2.45,18,18,0,0,1,3.51,2l3.47,3.69c1.3,2.06,1.75,4.59,3.44,6.43a9.51,9.51,0,0,0,4.67,2.71,21.6,21.6,0,0,0,5,.63c6.89.21,13.58-1.21,20.24-2.82C143.45,165.45,142,164,141.62,164.06Z" transform="translate(-4.73 -4.29)"/><path class="cls-1" d="M142.79,165.34c-7.27,1.78-14.73,3.5-22.29,2.71a14.64,14.64,0,0,1-3.87-.85,12.86,12.86,0,0,1-5.58-7c-2.75-6-8.78-8.17-14.69-10.14-.64-.22-.45,1.22-.08,1.35a43.61,43.61,0,0,1,7.57,3.06l2.28,1.43,3.54,3.72c1.3,1.82,1.92,4,3.3,5.8a8.67,8.67,0,0,0,5,3.11,21.64,21.64,0,0,0,5.07.61c6.91.17,13.61-1.23,20.29-2.84C144.09,166.12,143.18,165.24,142.79,165.34Z" transform="translate(-4.73 -4.29)"/><path class="cls-1" d="M142.52,164.29a97.32,97.32,0,0,1-13.45,2.58,35.46,35.46,0,0,1-7.84.12,8,8,0,0,1-3.7-1,4.48,4.48,0,0,1-3.4-1.57,4.2,4.2,0,0,1-1.55-2.32c-.84-1.66-1.33-3.6-2.26-5.2-2.95-5-8.7-6.87-13.94-8.53-.74-.24-.5,2-.14,2.09,3.86,1.32,7.81,2.65,11,5.35a17.85,17.85,0,0,1,4.2,6.19,10.83,10.83,0,0,0,2.73,3.85,9.83,9.83,0,0,0,4.52,2c7.9,1.58,16.55-.61,24.18-2.5C143.44,165.24,142.88,164.2,142.52,164.29Z" transform="translate(-4.73 -4.29)"/><path class="cls-1" d="M140.61,164.9a63,63,0,0,1-20.05,2.8,15.31,15.31,0,0,1-7-1.79l1,.65c-2.5-2.09-3-3.77-4.29-6.46a14.38,14.38,0,0,0-2.58-4c-3.39-3.52-8-5.07-12.56-6.57-.7-.23,0,1,.35,1.1,2.41.79,5.52,1.57,7.67,3l6.89,8.11a9.35,9.35,0,0,0,1.13,2.49,7.07,7.07,0,0,0,2.83,2.7,14.65,14.65,0,0,0,4,1.5c8.06,1.68,16.8-.59,24.62-2.47.53-.13-.41-.64-.4-.63A2.79,2.79,0,0,0,140.61,164.9Z" transform="translate(-4.73 -4.29)"/><path class="cls-1" d="M143.06,164.87a84.27,84.27,0,0,1-13.44,2.64,46.83,46.83,0,0,1-8.78.05l-1.94-.3-6.58-5.77a35.27,35.27,0,0,0-1.46-3.49c-3-4.95-8.8-6.76-14-8.46-.45-.15-.62.69-.19.84,1.75.61,3.5,1.22,5.21,2,4.49,1.95,7.58,4.47,9.44,8.76.82,1.9,1.76,4,3.61,5.19a11.35,11.35,0,0,0,3.59,1.41,28.78,28.78,0,0,0,7.3.29,32.23,32.23,0,0,0,6.79-.58,46.88,46.88,0,0,0,10.06-2.16C142.79,165.2,143.32,164.8,143.06,164.87Z" transform="translate(-4.73 -4.29)"/><path class="cls-1" d="M51.54,127a8.51,8.51,0,0,1,5.09,2.48,8.91,8.91,0,0,1,3.23,2.76,41.73,41.73,0,0,1,5,7.9c2.92,5.54,5.68,11.21,10.73,15.15a32.58,32.58,0,0,0,18.11,7.07,35.85,35.85,0,0,0,6.63-.17c3.5-.4,5.42-1.26,8.7-2.43.36-.13-.84-1.85-1.21-1.73a34.16,34.16,0,0,1-16.87,2,26,26,0,0,1-8.17-2.4,31.78,31.78,0,0,1-7.28-4.5,31.38,31.38,0,0,1-8.25-10.4c-2.62-4.68-4.72-9.77-8.65-13.56a13.75,13.75,0,0,0-2.47-2,13.06,13.06,0,0,0-5.37-2.27C50.13,124.67,51,126.83,51.54,127Z" transform="translate(-4.73 -4.29)"/><path class="cls-1" d="M50.49,125.71a17.16,17.16,0,0,1,10.23,7.65,113.38,113.38,0,0,1,5.51,10c2.85,5.31,6.68,10.17,12,13.24A34.19,34.19,0,0,0,95,161.27a39.12,39.12,0,0,0,12.85-2.64c.46-.15-.12-1.18-.58-1a32,32,0,0,1-28.53-2.48,33.43,33.43,0,0,1-6.64-5.45,41.54,41.54,0,0,1-7.55-11.9c-2.34-4.07-4.65-8.25-8.62-11-2.21-1.51-3-1.57-5.5-2.31C49.85,124.3,50.11,125.6,50.49,125.71Z" transform="translate(-4.73 -4.29)"/><path class="cls-1" d="M50.69,125.15a12.68,12.68,0,0,1,5.29,2.3l2.19,1.89c2.48,2.39,4.29,5.94,5.86,8.89,2.23,4.17,4.18,8.51,7.51,12a34.32,34.32,0,0,0,6.73,5.52,32.67,32.67,0,0,0,12.32,4.45,28.63,28.63,0,0,0,6.62.21A41.49,41.49,0,0,0,108.06,158c.14,0,.35-.54.34-.53q-8.91,4.53-18.65-1.32-13.69,1.78-20.32-9.1c-2.29-3.51-4-7.35-5.93-11a28.69,28.69,0,0,0-4.81-7.12l-2.28-2a12.2,12.2,0,0,0-5.31-2.32C51,124.59,50.69,125.15,50.69,125.15Z" transform="translate(-4.73 -4.29)"/><path class="cls-1" d="M51,125.56l2.81.82,6.5,5.39c2.24,2.56,3.76,6,5.31,9,2.53,4.89,5.36,9.47,9.7,13a33.18,33.18,0,0,0,11.48,6.05,32.74,32.74,0,0,0,10.92,1.08,40.52,40.52,0,0,0,10.73-2.37c.65-.21-.74-1.32-1.14-1.19a51.22,51.22,0,0,1-8.1,2,31,31,0,0,1-10.69-.56,12.74,12.74,0,0,1-4.05-1.22,17.08,17.08,0,0,1-7-4.44A16,16,0,0,1,71,147.77a25.52,25.52,0,0,1-3.94-6c-2.11-3.8-3.93-7.9-6.75-11.24a24,24,0,0,0-3.25-3.2,16.74,16.74,0,0,0-6.59-3.2C49.56,123.92,50.61,125.44,51,125.56Z" transform="translate(-4.73 -4.29)"/><path class="cls-1" d="M51.27,125l2.83.86,8.27,8.18c1.8,2.73,3,5.88,4.53,8.75,2.85,5.22,6.69,10,11.91,13a32.92,32.92,0,0,0,19.08,4.6,39.61,39.61,0,0,0,10.8-2.44c.17-.06.21-.75-.1-.64a39.19,39.19,0,0,1-10.42,2.52,31.6,31.6,0,0,1-8.68-.49,31.13,31.13,0,0,1-16.76-9.22,41.74,41.74,0,0,1-6.41-10c-2-4-4-8.25-7.15-11.45-.29-.29-1.94-1.73-2.29-2a17.2,17.2,0,0,0-5.42-2.37C51.24,124.35,51.06,125,51.27,125Z" transform="translate(-4.73 -4.29)"/><path class="cls-1" d="M50.06,125.6c11.09,3.34,12.58,13.61,18.23,21.74a30.94,30.94,0,0,0,9.52,8.95,33.81,33.81,0,0,0,12.43,4.46,28.65,28.65,0,0,0,4.62.34l4.46-.26a28.88,28.88,0,0,0,8.6-2.33c.27-.1-.4-.2-.52-.16A32.19,32.19,0,0,1,82,157.81,32.35,32.35,0,0,1,66.47,142.9c-1.49-3-3.08-5.88-4.77-8.73a22.86,22.86,0,0,0-5.81-6.5c-2.24-1.59-2.71-1.51-5.31-2.24C50.45,125.4,49.78,125.52,50.06,125.6Z" transform="translate(-4.73 -4.29)"/><path class="cls-1" d="M51.73,125.45l9.12,6.21,1.72,2.47c2.31,3.5,3.9,7.48,6.05,11.07a30.8,30.8,0,0,0,10.76,11.11,35.3,35.3,0,0,0,8.09,3.54,33.07,33.07,0,0,0,11,1,41.4,41.4,0,0,0,10.83-2.41c.72-.24-.43-.92-.83-.79A40.47,40.47,0,0,1,98.07,160a25,25,0,0,1-6.47-.12L79.69,155.7a31.05,31.05,0,0,1-10.47-10.78c-2.13-3.57-3.69-7.5-5.95-11a26,26,0,0,0-4.79-5.77,17.08,17.08,0,0,0-7-3.54c-.23-.07-.5,0-.49.28S51.52,125.39,51.73,125.45Z" transform="translate(-4.73 -4.29)"/><path class="cls-1" d="M73.06,43.15c-6.13,4.55-12,9.17-17,15L51.2,64A94.14,94.14,0,0,0,43,76.74c-.21.34.38.7.62.29,3.84-6.55,7.77-12.88,12.94-18.51l5.24-5.41a88.84,88.84,0,0,1,11.73-9.47C73.73,43.47,73.39,42.91,73.06,43.15Z" transform="translate(-4.73 -4.29)"/><path class="cls-1" d="M72.5,42.75a70.28,70.28,0,0,0-6.21,4.61A71.67,71.67,0,0,0,58,55.08a71.85,71.85,0,0,0-7.48,8.58,96.06,96.06,0,0,0-8.24,12.79c-.32.54,1.67.25,1.91-.16L48,69.82a72,72,0,0,1,6.77-9A103.15,103.15,0,0,1,74,43.24C74.79,42.67,72.83,42.5,72.5,42.75Z" transform="translate(-4.73 -4.29)"/><path class="cls-1" d="M72.43,41.57a88.48,88.48,0,0,0-11.72,9.5,61.48,61.48,0,0,0-5.37,5.58c-1.65,1.91-3.25,3.87-4.81,5.86a94.91,94.91,0,0,0-8.17,12.82c-.24.41,1,.87,1.23.44A87.18,87.18,0,0,1,64.73,49.54a67,67,0,0,1,8.79-6.86C74.11,42.25,72.72,41.36,72.43,41.57Z" transform="translate(-4.73 -4.29)"/><path class="cls-1" d="M73.47,42.56A88,88,0,0,0,61.73,52q-2.7,2.65-5.29,5.43a68.4,68.4,0,0,0-4.93,5.94,96.29,96.29,0,0,0-8.24,12.75c-.31.53,1,.47,1.19.12A57.24,57.24,0,0,1,58.32,58.7a54.57,54.57,0,0,1,16-15.44C74.92,42.81,73.8,42.32,73.47,42.56Z" transform="translate(-4.73 -4.29)"/><path class="cls-1" d="M73.07,41.77a89.93,89.93,0,0,0-11.58,9.38c-1.87,1.78-3.66,3.64-5.39,5.55s-3.23,3.9-4.84,5.86A95.35,95.35,0,0,0,43,75.35c-.23.38.26.61.48.25A96.69,96.69,0,0,1,61.87,51.82a95.54,95.54,0,0,1,11.75-9.48C74,42.07,73.43,41.51,73.07,41.77Z" transform="translate(-4.73 -4.29)"/><path class="cls-1" d="M71.21,42.32c-6.12,4.56-12,9.18-17,15l-4.83,5.86A95,95,0,0,0,41.19,76c-.37.62,2.11.64,2.35.25,3.88-6.54,7.85-12.85,13.05-18.47l5.26-5.4A84,84,0,0,1,73.54,43C74,42.66,71.65,42,71.21,42.32Z" transform="translate(-4.73 -4.29)"/><path class="cls-1" d="M73.65,42.21c-6.1,4.56-12,9.2-17,15L51.79,63a96.13,96.13,0,0,0-8.25,12.79c0,.09-.19.71-.09.52,3.86-6.61,7.8-13,13-18.67l5.26-5.46a94.88,94.88,0,0,1,11.71-9.54C73.49,42.61,73.84,42.07,73.65,42.21Z" transform="translate(-4.73 -4.29)"/><path class="cls-1" d="M44.51,72.08C39.21,74,34,76.45,30.28,80.9c-3,3.63-5.13,8.89-4.59,13.66.48,4.26,2.5,7.59,4.75,11.11a74.78,74.78,0,0,1,5.6,10.1c5,11.31,5.35,22.34,2.56,34.93-.05.26,0,.53.35.48s.4-.75.45-1a62.1,62.1,0,0,0,1.79-16.8,54.72,54.72,0,0,0-2.53-13.65,60.73,60.73,0,0,0-6.76-13.86q-.39-.66-.81-1.29L27,97.11a15.11,15.11,0,0,1-.09-8.25L29.1,83.7A19.16,19.16,0,0,1,33,79a36.07,36.07,0,0,1,11.57-6.31C44.78,72.66,44.68,72,44.51,72.08Z" transform="translate(-4.73 -4.29)"/><path class="cls-1" d="M44,71.75A37.47,37.47,0,0,0,32,78.2c-4.54,3.83-7.53,10-7,16,.4,4.65,3.13,8.39,5.63,12.18a54.83,54.83,0,0,1,6.68,13.93c3.13,10.07,2.94,19.3.57,29.87-.22,1,1.4-.36,1.49-.78,1-4.84,1.46-6.05,1.72-11a50,50,0,0,0-.28-8.52,57.7,57.7,0,0,0-3.09-13.54,65.85,65.85,0,0,0-6.62-12.53l-1.56-2.42a10.66,10.66,0,0,1-2-6.5,9.39,9.39,0,0,1-.13-6.7l1-2.67c2.88-6.94,10.18-10.69,16.87-13C46.09,72.24,44.42,71.6,44,71.75Z" transform="translate(-4.73 -4.29)"/><path class="cls-1" d="M43.77,70.39c-4.91,1.79-9.36,3.92-13,7.73a20.16,20.16,0,0,0-5.61,12.2c-.41,5.32,2,9.81,4.84,14.1a58.29,58.29,0,0,1,9.27,22.87,54.19,54.19,0,0,1,.52,11A50.74,50.74,0,0,1,38,149.12c-.06.26.37.79.46.41l1.17-5.38a40,40,0,0,0,.6-8.24,53.24,53.24,0,0,0-1.08-11,55.07,55.07,0,0,0-5.9-15.88c-1.22-2.2-2.55-4.31-3.83-6.47a25.08,25.08,0,0,1-2.95-6.67l.37-8.19a22.9,22.9,0,0,1,2.49-5.27c3.66-6,9.56-8.41,15.55-10.52C45.61,71.68,44.14,70.26,43.77,70.39Z" transform="translate(-4.73 -4.29)"/><path class="cls-1" d="M44.79,71.7C39.54,73.58,34.34,76,30.64,80.35s-5.83,10.73-4.16,16.26a33.45,33.45,0,0,0,4.12,8c2.49,4,5,8,6.58,12.46a57.13,57.13,0,0,1,3,13.54,40.21,40.21,0,0,1,.25,8.28,51.21,51.21,0,0,1-1.79,10.86c-.06.27.3.29.45.26s.49-.7.53-.9a65.1,65.1,0,0,0,1.68-13.8,55.46,55.46,0,0,0-1.71-13.81,52.13,52.13,0,0,0-5.44-13c-1.41-2.42-2.93-4.79-4.32-7.21-2.11-3.69-3.28-7.55-2.4-11.8A19.19,19.19,0,0,1,30.09,83l4-4.41a30.5,30.5,0,0,1,11.57-6C46.21,72.36,45.18,71.56,44.79,71.7Z" transform="translate(-4.73 -4.29)"/><path class="cls-1" d="M44.67,70.62c-4.32,1.55-8.45,3.35-11.9,6.45A21.15,21.15,0,0,0,26,88.92a15.57,15.57,0,0,0,1.29,10.33,82.65,82.65,0,0,0,5.07,7.67c4,6.07,6.29,13.24,7.47,20.4a55.52,55.52,0,0,1,.5,11,52.08,52.08,0,0,1-1.8,10.8,1.07,1.07,0,0,0,.28.56,75.52,75.52,0,0,0,1.91-10.88,49.54,49.54,0,0,0-1-13.79,52.59,52.59,0,0,0-4.49-13.23,90.84,90.84,0,0,0-4.64-7.91,39.22,39.22,0,0,1-3-5.2l-1.44-5.62a13.26,13.26,0,0,1,2-8.22A10.58,10.58,0,0,1,31.42,80,23.54,23.54,0,0,1,45,71.7C45.56,71.49,45,70.5,44.67,70.62Z" transform="translate(-4.73 -4.29)"/><path class="cls-1" d="M42.76,71.22c-6.12,2.24-12.55,5.36-15.93,11.27a18,18,0,0,0-2.38,12.84,21.43,21.43,0,0,0,3.11,6.93c3.05,4.89,6.5,9.46,8.44,15a53.28,53.28,0,0,1,3.26,16.31l-.07,5.54a51.46,51.46,0,0,1-1.89,10.87c-.15.61,1.35,0,1.44-.42,1.16-5.48,2.1-10.81,1.71-16.45a58.43,58.43,0,0,0-2.52-13.62,61.9,61.9,0,0,0-6-13c-1.44-2.42-3.3-4.78-4.36-7.4a16.51,16.51,0,0,1-1.36-6.9A12.42,12.42,0,0,1,26.85,88l2.29-5.12C32.4,77.28,39,74.28,44.82,72.24c.5-.17-.37-.61-.4-.62A2.67,2.67,0,0,0,42.76,71.22Z" transform="translate(-4.73 -4.29)"/><path class="cls-1" d="M45.2,71.18c-5.46,2-10.75,4.5-14.53,9.12a18.76,18.76,0,0,0-4.43,12.31c.1,4.64,2.19,8.26,4.65,12.15a56.75,56.75,0,0,1,6.72,12.63,54.12,54.12,0,0,1,2.74,10.78,53.45,53.45,0,0,1,.45,11A51.52,51.52,0,0,1,38.93,150c0,.09.63.2.66.07a52.43,52.43,0,0,0,1.87-10.92A54.14,54.14,0,0,0,41,128.06a51.59,51.59,0,0,0-7.79-20.81c-3.42-5.21-7.5-9-6.8-16.57.92-9.76,9.76-15.93,18.4-19.13C44.93,71.51,45.43,71.1,45.2,71.18Z" transform="translate(-4.73 -4.29)"/><path class="cls-1" d="M30.51,80.26a84.76,84.76,0,0,0-8.93,9.91A66.92,66.92,0,0,0,16,98.52a88.88,88.88,0,0,0-6.06,12.06c-2.35,5.71-4.57,12-3.17,18.25,1.27,5.61,5.59,9.32,10.43,12a65.32,65.32,0,0,0,9.23,3.84c2,.73,4.05,1.54,6,2.45a23.16,23.16,0,0,1,7.35,5.22c.76.73.27-1.6-.05-1.9a21.42,21.42,0,0,0-4.95-3.94,48.92,48.92,0,0,0-7.12-3.21c-2.47-.92-5-1.77-7.39-2.78a26.41,26.41,0,0,1-8.09-4.85L8.43,130.9a13.28,13.28,0,0,1-1-4.09,22.59,22.59,0,0,1,.32-7.38,34.83,34.83,0,0,1,3.95-10.35,55.48,55.48,0,0,1,6.65-13.15l3.86-5.44a84.76,84.76,0,0,1,8.89-9.86C31.33,80.38,30.82,79.94,30.51,80.26Z" transform="translate(-4.73 -4.29)"/><path class="cls-1" d="M29.78,80A96.33,96.33,0,0,0,16.93,95.36a89.43,89.43,0,0,0-9.07,18c-1.87,5.29-3.22,11-1.34,16.52,2,5.89,7.58,9.26,13,11.53,3,1.23,6,2.16,9,3.32a37.69,37.69,0,0,1,5.71,2.7A19.06,19.06,0,0,1,39,151.3c.45.43.67-1.16.35-1.45a27.85,27.85,0,0,0-6.16-4.54,64.81,64.81,0,0,0-7.32-3.15c-2.44-.93-4.89-1.84-7.24-3-2.19-1.08-4.83-2.4-6.48-4.23L7.43,124.63l.12-2.95a29.69,29.69,0,0,1,1.76-7.3,83.85,83.85,0,0,1,6.08-13.5A94.92,94.92,0,0,1,31.68,80C32.06,79.62,30.13,79.6,29.78,80Z" transform="translate(-4.73 -4.29)"/><path class="cls-1" d="M30,78.72A98.83,98.83,0,0,0,17.06,94.24a96.13,96.13,0,0,0-6.39,11.65c-2.85,6.06-5.57,13.16-4.62,20,.78,5.62,4.48,9.78,9.27,12.63,3.39,2,7.07,3.13,10.76,4.45a43.13,43.13,0,0,1,8.24,3.67,21.19,21.19,0,0,1,4.7,3.84c.1.1.65,0,.63,0a28.48,28.48,0,0,0-4.7-3.86,24.2,24.2,0,0,0-4.35-2.07c-4.64-1.9-9.65-3.29-14-5.78A25,25,0,0,1,11.23,135l-4.6-10.71.16-3,2.37-8.81a78.3,78.3,0,0,1,11-20.44A103.86,103.86,0,0,1,31,79.6C31.46,79.11,30.2,78.46,30,78.72Z" transform="translate(-4.73 -4.29)"/><path class="cls-1" d="M30.91,79.57A100,100,0,0,0,18,95a89.68,89.68,0,0,0-6.5,11.75c-2.16,4.7-4.31,9.91-4.8,15.13-.38,4,.25,8.36,2.86,11.6a24.36,24.36,0,0,0,7.56,6.07c3.86,2.08,8.08,3.29,12.12,4.93a36.84,36.84,0,0,1,5.56,2.66A19.41,19.41,0,0,1,39.51,151c.22.21.41,0,.48-.21s-.32-1-.5-1.15a29.06,29.06,0,0,0-4.82-3.81A41.85,41.85,0,0,0,28.9,143c-4.33-1.77-8.78-3.14-12.82-5.58a20.66,20.66,0,0,1-4.72-3.82,6.72,6.72,0,0,1-2.17-3.72,7.43,7.43,0,0,1-1.31-4c-1-8,3.33-11.46,7.52-20.23a42,42,0,0,1,9.71-18.4,57.19,57.19,0,0,1,6.75-7.17C32.4,79.56,31.2,79.28,30.91,79.57Z" transform="translate(-4.73 -4.29)"/><path class="cls-1" d="M30.51,78.87a84.22,84.22,0,0,0-8.81,9.78,89.62,89.62,0,0,0-7.37,11.22A87.49,87.49,0,0,0,8.7,112.12c-1.43,3.95-2.59,8.12-2.39,12.37.34,7.12,5.06,11.69,11.16,14.75,3.81,1.92,7.83,3.22,11.77,4.81A43.68,43.68,0,0,1,35,146.78a19.72,19.72,0,0,1,4.69,3.84c.08.08.55-.38.5-.43a19.52,19.52,0,0,0-4.72-3.87,36.24,36.24,0,0,0-5.68-2.66c-4.2-1.63-8.71-2.59-12.7-4.76a27,27,0,0,1-5.39-3.8,15.45,15.45,0,0,1-4.74-8,71.85,71.85,0,0,1,15.11-38,85.82,85.82,0,0,1,9-9.9C31.34,79,30.82,78.56,30.51,78.87Z" transform="translate(-4.73 -4.29)"/><path class="cls-1" d="M28.68,79.44a85.22,85.22,0,0,0-8.94,10,66,66,0,0,0-5.6,8.37,79.07,79.07,0,0,0-7.71,16.61c-1.38,4.37-2.37,9.17-1.15,13.71,1.49,5.52,6,9.08,10.86,11.64a70.22,70.22,0,0,0,9.06,3.64q3,1,5.84,2.34a21.45,21.45,0,0,1,7.41,5.22c.24.23.9,0,.61-.22a28.39,28.39,0,0,0-4.84-3.86,46.26,46.26,0,0,0-5.81-2.79C21.23,141,12.84,138.8,8.67,131.41a14,14,0,0,1-1.87-6.85l1.39-8.76a50,50,0,0,1,2.27-5.93,89.27,89.27,0,0,1,7.79-14.76l3.89-5.43a74.8,74.8,0,0,1,8.91-9.75C31.5,79.48,29,79.07,28.68,79.44Z" transform="translate(-4.73 -4.29)"/><path class="cls-1" d="M31.09,79.26A98.68,98.68,0,0,0,18.25,94.68a96.15,96.15,0,0,0-7.83,14.9,55,55,0,0,0-3.06,9.07,21.37,21.37,0,0,0-.2,9.18c1.42,5.59,5.46,9.25,10.39,11.92a65.34,65.34,0,0,0,9.17,3.65c5,1.82,9.17,3.57,13.33,7.5a.33.33,0,1,0,.45-.48,28.73,28.73,0,0,0-4.77-3.85,34.9,34.9,0,0,0-5.8-2.73c-6.36-2.54-13.37-4-18.37-9C6.84,130.11,6.42,124,7.92,117.74a64.58,64.58,0,0,1,5.28-13.66A73.39,73.39,0,0,1,22,89.81a85,85,0,0,1,8.91-10A1.8,1.8,0,0,0,31.09,79.26Z" transform="translate(-4.73 -4.29)"/><path class="cls-1" d="M124.38,63.93a23.25,23.25,0,0,1-6.07,14.88,4.23,4.23,0,0,0-.6,1.29,3.25,3.25,0,0,0,.41,2.67c.29.7,1-.34.82-.72-1.12-2.47,2.6-5.22,3.84-6.9A13.84,13.84,0,0,0,125,70.69a16.9,16.9,0,0,0,.16-8.12c-.06-.35-.35-.22-.51-.09S124.33,63.65,124.38,63.93Z" transform="translate(-4.73 -4.29)"/><path class="cls-1" d="M123.67,63.24a8.32,8.32,0,0,1,.18,4.69,9,9,0,0,1-1.12,4.51l-3.9,4.65a4,4,0,0,0-.81.84,3.62,3.62,0,0,0-1.13,1.92,3.53,3.53,0,0,0,.6,2.59c.18.38,1.68-.86,1.55-1.18a2.4,2.4,0,0,1,.41-3.24,6.07,6.07,0,0,1,1.8-2.07,14.36,14.36,0,0,0,2.38-3.22c1.94-3.51,2.14-7,1.44-10.82C125,61.29,123.59,62.78,123.67,63.24Z" transform="translate(-4.73 -4.29)"/><path class="cls-1" d="M123.78,62.06c.56,3.25.57,6.23-.9,9.28-1.12,2.33-3,3.59-4.63,5.42a3.6,3.6,0,0,0-.55,4.57c.16.32.62,0,.51-.31a5.57,5.57,0,0,1,2.42-5.46,12.64,12.64,0,0,0,2.74-3.85,14.29,14.29,0,0,0,.83-9.27C124.17,62.27,123.73,61.75,123.78,62.06Z" transform="translate(-4.73 -4.29)"/><path class="cls-1" d="M124.42,62.63q2.08,7.59-4.82,14.09a5.16,5.16,0,0,0-1.71,2.53,3.24,3.24,0,0,0,.43,2.55c.26.6,1.15-.38,1-.75-1.12-2.7,1-3.86,2.4-5.41a14.12,14.12,0,0,0,2.6-3.79,16.26,16.26,0,0,0,1-10.1C125.14,61,124.35,62.21,124.42,62.63Z" transform="translate(-4.73 -4.29)"/><path class="cls-1" d="M124.25,62.08a15.44,15.44,0,0,1-.91,9.28c-1.06,2.29-3,3.58-4.59,5.35a4.26,4.26,0,0,0-.64,4.94c0,.1.25-.45.2-.59a2,2,0,0,1,.32-2.74,3.86,3.86,0,0,1,2-2.63,14.35,14.35,0,0,0,3-3.79c1.6-3.07,1.67-6.06,1.07-9.41C124.7,62.35,124.24,62.05,124.25,62.08Z" transform="translate(-4.73 -4.29)"/><path class="cls-1" d="M123.18,62.77a7.83,7.83,0,0,1-.29,5.82,8.24,8.24,0,0,1-2,5.46c-1.18,1.53-3.13,2.5-4.19,4.11-1,1.44-.73,2.45.09,3.84.26.45,1.76-.3,1.57-.79-.72-1.9-.15-2.93,1.13-4.24,1.62-1.67,3-2.91,4.05-5.1a15.33,15.33,0,0,0,.86-9.53C124.27,61.68,123.12,62.39,123.18,62.77Z" transform="translate(-4.73 -4.29)"/><path class="cls-1" d="M124.79,62.89a14.51,14.51,0,0,1-.12,7.14,13,13,0,0,1-3.83,5.87c-1.13,1-2.54,1.71-2.71,3.35a4.68,4.68,0,0,0,.43,2.56c0,.16.5.34.51.36l-.69-2.35A3.1,3.1,0,0,1,119.47,78c1.17-1.27,2.62-2.2,3.65-3.64a16.37,16.37,0,0,0,2.21-4.3,14.36,14.36,0,0,0,.11-7.22C125.42,62.65,124.76,62.74,124.79,62.89Z" transform="translate(-4.73 -4.29)"/><path class="cls-1" d="M125.08,60.68c-4,1.82-8.39,3.79-10.24,8.13a8.65,8.65,0,0,0,.28,7.53c1.23,2.46,3.11,4.21,3.14,7.17,0,.26.1.52.42.42s.29-.84.29-1.06a7.46,7.46,0,0,0-.28-2.36,18.8,18.8,0,0,0-1.92-3.3l-1.94-4.57.09-1.82c.59-5.19,6.39-7.73,10.29-9.49C125.45,61.22,125.3,60.59,125.08,60.68Z" transform="translate(-4.73 -4.29)"/><path class="cls-1" d="M124.53,60.34c-4.58,2-9.85,4.51-10.94,10a8.08,8.08,0,0,0,.21,4.14c1,3.09,3.83,5,3.79,8.5,0,1,1.24-.59,1.24-1a6.63,6.63,0,0,0-.38-2.88,26.27,26.27,0,0,0-2-3.43,7.6,7.6,0,0,1,0-8c2-3.49,5.82-5.11,9.38-6.65C126.7,60.67,124.91,60.17,124.53,60.34Z" transform="translate(-4.73 -4.29)"/><path class="cls-1" d="M124.34,59.05c-4.46,2-9,4.11-10.39,9.2a8.51,8.51,0,0,0,0,5.14c1,2.93,3.81,5.11,3.65,8.48,0,.21.57.6.56.19,0-2.29-1.12-3.87-2.09-5.9l-1.24-3a9.07,9.07,0,0,1,1.7-6.88l3.55-3.22a35.7,35.7,0,0,1,5.38-2.63C126.15,60.15,124.69,58.9,124.34,59.05Z" transform="translate(-4.73 -4.29)"/><path class="cls-1" d="M125.33,60.27a28.87,28.87,0,0,0-6.71,3.7c-2.34,1.87-4.42,4.78-4.21,8a9.08,9.08,0,0,0,1,3.51,24.52,24.52,0,0,0,1.31,2.2,7.38,7.38,0,0,1,1,2.09,3.59,3.59,0,0,1,.57,2.81c0,.28.38.19.51.14s.27-.81.27-1c0-2.54-1-3.91-2.29-6.06a4.24,4.24,0,0,1-.71-3,4.31,4.31,0,0,1,.27-4.07c2-4,5.42-5.5,9.78-7.39C126.85,60.78,125.77,60.08,125.33,60.27Z" transform="translate(-4.73 -4.29)"/><path class="cls-1" d="M125.19,59.23c-4.6,2.06-10,4.69-10.93,10.23a8.12,8.12,0,0,0,.49,5c1.2,2.57,3.54,4.5,3.49,7.51,0,.16.34.52.34.52a9.87,9.87,0,0,0-1.83-5.54c-1-1.65-2.33-3.59-2.13-5.64l3.18-6.61a27.92,27.92,0,0,1,7.7-4.47C126.05,60,125.53,59.08,125.19,59.23Z" transform="translate(-4.73 -4.29)"/><path class="cls-1" d="M123.24,59.84c-4.38,2-9.12,4.21-10.46,9.2a7.93,7.93,0,0,0,1,6.59c.67,1,1.35,2,2,2.93a5,5,0,0,1,1.2,4.11c0,.6,1.15-.23,1.15-.65a5.4,5.4,0,0,0-.46-2.74c-.72-1.73-1.92-3.18-2.58-4.94a6.4,6.4,0,0,1-.55-2.56,5.66,5.66,0,0,1,1.58-4.15A7.73,7.73,0,0,1,120,63.4a36.07,36.07,0,0,1,5.46-2.63c.49-.21-.41-.59-.45-.61C124.57,60,123.68,59.64,123.24,59.84Z" transform="translate(-4.73 -4.29)"/><path class="cls-1" d="M125.7,59.78c-4.11,1.88-8.78,3.93-10.52,8.51a8.52,8.52,0,0,0-.13,6,21.52,21.52,0,0,0,1.4,2.71l1,1.54a5.52,5.52,0,0,1,1.29,4.32c0,.1.65.08.65,0a6.12,6.12,0,0,0-.88-3.53A13.55,13.55,0,0,0,117,77.18q-5.21-13.19,8.31-17C125.46,60.14,125.92,59.68,125.7,59.78Z" transform="translate(-4.73 -4.29)"/><path class="cls-1" d="M123.21,65.45l2.41,2.35-.53-1.37.15,3.31c0,.31-.23,1.22,0,1.48s.39.32.52,0a6.06,6.06,0,0,0-3.29-8C122,63,122.7,65.22,123.21,65.45Z" transform="translate(-4.73 -4.29)"/><path class="cls-1" d="M122.18,64.15c2.35,1.06,3.3,2.8,2.47,5.46-.3,1,.29,1.2.63.22a5.21,5.21,0,0,0-3-7C121.66,62.6,121.81,64,122.18,64.15Z" transform="translate(-4.73 -4.29)"/><path class="cls-1" d="M122.31,63.56c2.44,1.24,3.12,3.21,2.31,5.81,0,.11.37.59.42.47a5.13,5.13,0,0,0,.34-4.13,4.7,4.7,0,0,0-2.56-2.58C122.69,63.07,122.31,63.56,122.31,63.56Z" transform="translate(-4.73 -4.29)"/><path class="cls-1" d="M122.69,64q3.14.87,2.39,5a1.53,1.53,0,0,0,.11,1,.29.29,0,0,0,.47-.06,5.66,5.66,0,0,0-3.41-7.37C121.43,62.2,122.31,63.8,122.69,64Z" transform="translate(-4.73 -4.29)"/><path class="cls-1" d="M123,63.51a4.24,4.24,0,0,1,2.13,6s.63.19.65.11c.73-2.95.26-5.33-2.52-6.73C123.06,62.82,122.79,63.42,123,63.51Z" transform="translate(-4.73 -4.29)"/><path class="cls-1" d="M121.71,64q3.45,1,2.36,5.73c-.22.51.56.51.74,0a4.26,4.26,0,0,0-2.56-5.9C122.11,63.78,121.42,63.85,121.71,64Z" transform="translate(-4.73 -4.29)"/><path class="cls-1" d="M123.39,63.88c2.63,1.28,3,3.68,2.31,6.06-.09.34.58.16.65,0,.52-1.68.66-3.54-.54-5a6.13,6.13,0,0,0-2.6-1.81.32.32,0,0,0-.48.26C122.72,63.61,123.18,63.78,123.39,63.88Z" transform="translate(-4.73 -4.29)"/><path class="cls-1" d="M115.13,75.91A7.5,7.5,0,0,0,119,77.76a12.12,12.12,0,0,0,2.41,0c.34,0-.28-2.2-.7-2.22a7.25,7.25,0,0,1-5.64-2C114.58,73.27,114.69,75.62,115.13,75.91Z" transform="translate(-4.73 -4.29)"/><path class="cls-1" d="M114.26,74.69a8.33,8.33,0,0,0,1.89,1.24,7.73,7.73,0,0,0,4.27.64c.5,0,.44-1.46-.07-1.49a7,7,0,0,1-5.41-1.87C114.34,72.78,114,74.49,114.26,74.69Z" transform="translate(-4.73 -4.29)"/><path class="cls-1" d="M114.28,73.82a14,14,0,0,0,2.23,1.33,9.15,9.15,0,0,0,4.29.62c.2,0,.23-.08,0-.09l-6-1.77C114.72,73.85,114.1,73.7,114.28,73.82Z" transform="translate(-4.73 -4.29)"/><path class="cls-1" d="M114.93,74.37l1.74,1.19a7.93,7.93,0,0,0,4.26.76c.69,0-.07-1.49-.47-1.51a7,7,0,0,1-5.53-2C114.46,72.5,114.56,74.12,114.93,74.37Z" transform="translate(-4.73 -4.29)"/><path class="cls-1" d="M114.83,73.93A10.77,10.77,0,0,0,121,75.86c.14,0,.51-.48.42-.47a8.66,8.66,0,0,1-6-1.73C115.29,73.57,114.86,74,114.83,73.93Z" transform="translate(-4.73 -4.29)"/><path class="cls-1" d="M113.93,74.44A10,10,0,0,0,116.86,76c1.66.51,1,.32,3.25.35.45,0,.07-.42-.23-.44l-5.56-2.06C114,73.58,113.55,74.19,113.93,74.44Z" transform="translate(-4.73 -4.29)"/><path class="cls-1" d="M115.44,74.38a7,7,0,0,0,1.85,1.21,8.08,8.08,0,0,0,4.31.72c.55,0,.23-.82-.22-.82a7.15,7.15,0,0,1-5.64-1.73C115.39,73.52,115,74.12,115.44,74.38Z" transform="translate(-4.73 -4.29)"/><path class="cls-1" d="M119.92,67.29l1.49,1.28-.51-1.4-4.19,1.38c0-.15-.38-.41-.37-.53a2.85,2.85,0,0,0,1.23,2.78,2.72,2.72,0,0,0,1.07.49,3.22,3.22,0,0,0,3-.85c.84-.91.44-2.14,0-3.13a4.18,4.18,0,0,0-2.46-2.2C118.6,64.91,119.42,67.09,119.92,67.29Z" transform="translate(-4.73 -4.29)"/><path class="cls-1" d="M118.88,66c1.53.43,2.07,1.49,1.61,3.16l.26-.84L117.1,68c-.07-.43-.93-.61-1,0-.26,2.56,3,4.21,4.65,1.91a3.29,3.29,0,0,0-1.87-5.07C118.28,64.54,118.51,65.86,118.88,66Z" transform="translate(-4.73 -4.29)"/><path class="cls-1" d="M119.06,65.44a2.42,2.42,0,0,1,1.42,1q1.56,3.8-3.89.78c0-.31-.8-1-.79-.39,0,1.77,1.17,3.9,3.29,3.63a2.62,2.62,0,0,0,2.07-1.4A3,3,0,0,0,119.5,65C119.38,64.9,119,65.43,119.06,65.44Z" transform="translate(-4.73 -4.29)"/><path class="cls-1" d="M119.4,65.85l1.5.9-.67-.83q-2.46,4.68-2.49,1.34c.29-.64-.85-.61-.95-.13A2.46,2.46,0,0,0,118,69.92a2.55,2.55,0,0,0,3.49-.78c1.21-2-.94-4.08-2.63-4.68C118,64.15,119,65.7,119.4,65.85Z" transform="translate(-4.73 -4.29)"/><path class="cls-1" d="M119.66,65.35c1.39.36,1.81,1.16,1.25,2.41q.25,4-3.87-.73c0-.45-.66-.67-.66-.16,0,1.78,1.07,3.72,3.14,3.5a2.6,2.6,0,0,0,2.41-2.78,3,3,0,0,0-2.06-2.87C119.69,64.64,119.47,65.26,119.66,65.35Z" transform="translate(-4.73 -4.29)"/><path class="cls-1" d="M118.44,65.88q-.25,7.11-2.27,1.8c-.08-.45-.83-.58-.84,0,0,2.48,2.75,4.45,4.78,2.42A2.55,2.55,0,0,0,119,65.72C118.84,65.69,118.14,65.77,118.44,65.88Z" transform="translate(-4.73 -4.29)"/><path class="cls-1" d="M120.11,65.75A2.48,2.48,0,0,1,121.75,68c-2.82,2.34-4.26,2.15-4.33-.55,0-.27-.64-.52-.64-.13a2.87,2.87,0,0,0,2.46,3,3.32,3.32,0,0,0,1.43-.17,2.64,2.64,0,0,0,1.78-3.06c-.35-1.26-1.49-1.77-2.59-2.21-.23-.09-.49,0-.49.27S119.9,65.66,120.11,65.75Z" transform="translate(-4.73 -4.29)"/><path class="cls-1" d="M70.92,116.42c.41-2.68.79-5.45,2.31-7.78a6.56,6.56,0,0,1,3.37-2.84L84.32,108l2.45,1.4a17.92,17.92,0,0,1,7.43,7.43c.16.3.39.61.62.21s-.36-1.32-.53-1.61c-1.14-2-1.43-2.8-3.27-4.34a30,30,0,0,0-4.69-3.11c-2-1.11-4.59-2.8-6.94-3.11a6.35,6.35,0,0,0-5.63,1.92c-2.48,2.53-3,6.06-3.45,9.4C70.25,116.58,70.86,116.83,70.92,116.42Z" transform="translate(-4.73 -4.29)"/><path class="cls-1" d="M70.21,116.06l.39-2.47a9.79,9.79,0,0,1,1.48-4.26c.61-2.46,2.39-3.28,5.35-2.48,2.24-1.24,4.22-1.17,6,.23,1.64.9,3.29,1.76,4.85,2.8a11.94,11.94,0,0,1,3.08,2.71A8.6,8.6,0,0,1,93.51,116c.34.65.7-.71.47-1.1a8.94,8.94,0,0,0-2.35-3.33,12,12,0,0,0-3.23-2.65c-1.84-1.15-3.8-2.1-5.74-3.07a10.31,10.31,0,0,0-5.37-1.47c-5.71.47-7.12,7.16-7.82,11.65C69.4,116.45,70.14,116.51,70.21,116.06Z" transform="translate(-4.73 -4.29)"/><path class="cls-1" d="M70.43,114.94c.66-4.32,2.85-11.41,8.15-10.78a10.51,10.51,0,0,1,4,1.46,66.74,66.74,0,0,1,6.13,3.82,15.27,15.27,0,0,1,4.92,6c0,.08.63-.18.63-.2A8.82,8.82,0,0,0,92,111.62a11.92,11.92,0,0,0-3.17-2.83c-.57-.38-1.88-1.18-2.46-1.53a50.6,50.6,0,0,0-5.46-3,6.65,6.65,0,0,0-4.1-.68c-5.32,1.08-6.47,7.14-7.16,11.63C69.52,116,70.34,115.5,70.43,114.94Z" transform="translate(-4.73 -4.29)"/><path class="cls-1" d="M70.84,115.7a24.07,24.07,0,0,1,1.81-7,7.78,7.78,0,0,1,3.87-3.63l-1.06.37,2.53-.62-1.13.13a23.22,23.22,0,0,1,9.4,3.28,18.11,18.11,0,0,1,7.49,7.09c.48.8,1.06.51.58-.32A13.16,13.16,0,0,0,91,110.63a18.3,18.3,0,0,0-2.56-1.92,62.28,62.28,0,0,0-6.5-3.48,10.45,10.45,0,0,0-2.47-.9A7.05,7.05,0,0,0,75,105c-4.24,2.14-5.12,7.14-5.79,11.36C69.12,117,70.78,116.14,70.84,115.7Z" transform="translate(-4.73 -4.29)"/><path class="cls-1" d="M71.24,114.41c.56-3.67,1.11-9.74,6.52-10.14a10,10,0,0,1,4.9,1.27,42.7,42.7,0,0,1,6.53,3.76l2.21,1.75a11.53,11.53,0,0,1,3,4.42c0,.11.38-.43.32-.53a15.68,15.68,0,0,0-5.36-6.26c-1.56-1.07-3.22-2-4.87-2.93-2.11-1.19-4.49-2.81-7-2.39-5.48.92-7,7.68-7.66,12.14C69.62,116.5,71.17,114.84,71.24,114.41Z" transform="translate(-4.73 -4.29)"/><path class="cls-1" d="M70.14,115.39c.3-2,.56-5.51,1.86-7.17l7.18-3.38a12.15,12.15,0,0,1,2,1c1.45.84,2.94,1.65,4.38,2.5a17.93,17.93,0,0,1,7.52,7.47c.11.2.78.2.58-.16-1.18-2.18-1.12-2.47-3-4.15a32.85,32.85,0,0,0-4.53-3.34,28.81,28.81,0,0,1-3.18-2,15.9,15.9,0,0,0-2.31-1.39,7.51,7.51,0,0,0-3.34-.75,6.91,6.91,0,0,0-4.16,1.83c-2.64,2.36-3.12,6-3.64,9.3C69.48,115.36,70.12,115.52,70.14,115.39Z" transform="translate(-4.73 -4.29)"/><path class="cls-1" d="M72.17,115.11a32.63,32.63,0,0,1,1-4.92,8,8,0,0,1,4.75-5.62l-1.4.52a8.07,8.07,0,0,1,5.31.44c4.85,2.06,10.43,6,12.75,10,.2.35.94.25.75-.12-1.1-2-1.45-3-3.22-4.58a28.69,28.69,0,0,0-4.43-3.15c-1.27-.76-2.56-1.51-3.84-2.26a9.15,9.15,0,0,0-4.53-1.66,8.81,8.81,0,0,0-4.91,1.84c-3.07,2.44-3.76,6.63-4.34,10.25C69.91,116.56,72.1,115.58,72.17,115.11Z" transform="translate(-4.73 -4.29)"/><path class="cls-1" d="M71.45,119.14c4.22-.23,9.53.11,13.19-2.41A8.58,8.58,0,0,0,88.49,110c0-.5-1.18-.58-1.27-.09a6.43,6.43,0,0,1-2,3.9,6.63,6.63,0,0,1-3.3,1.9,10.74,10.74,0,0,1-4.75,1.26,63.24,63.24,0,0,1-6.74.33C69.76,117.27,71,119.16,71.45,119.14Z" transform="translate(-4.73 -4.29)"/><path class="cls-1" d="M70.39,118c6.6-.29,15.92-.16,17.21-8.48.09-.52-.72-.54-.79-.13-1.31,7.54-10.83,7.31-16.64,7.53C69.55,116.93,70,118,70.39,118Z" transform="translate(-4.73 -4.29)"/><path class="cls-1" d="M70.76,117.43c4.2-.25,9.35,0,13.1-2.31a9.2,9.2,0,0,0,4.28-6.65c0-.27-.57-.62-.61-.24-.86,8.44-10,8.17-16.59,8.57C70.79,116.81,70.72,117.43,70.76,117.43Z" transform="translate(-4.73 -4.29)"/><path class="cls-1" d="M71.13,117.89c4.14-.2,9.37,0,13.05-2.24a8.46,8.46,0,0,0,4.18-6.45c.11-.72-1.63-.24-1.73.14-1.84,7.54-10.62,7.11-16.72,7.27C69.36,116.63,70.64,117.92,71.13,117.89Z" transform="translate(-4.73 -4.29)"/><path class="cls-1" d="M71.1,117.27c4.16-.22,9.49,0,13.19-2.27a9.52,9.52,0,0,0,4.37-6.68c.15-.68-.92-.13-1,.29a7.73,7.73,0,0,1-3.1,5.24c-3.74,2.91-8.89,2.52-13.41,2.77C70.82,116.63,70.77,117.29,71.1,117.27Z" transform="translate(-4.73 -4.29)"/><path class="cls-1" d="M70.05,117.93c6.21-.4,16.78-.22,17.5-8.81a5.45,5.45,0,0,0-.12-.61q-1.09,7.69-8.17,7.71a23.94,23.94,0,0,1-8.75,1.45C70.41,117.67,69.81,117.94,70.05,117.93Z" transform="translate(-4.73 -4.29)"/><path class="cls-1" d="M72,117.77c4.35-.22,9.41,0,13.29-2.33a8.14,8.14,0,0,0,4.35-6.69c.11-.71-1.85.09-2,.5a7.6,7.6,0,0,1-2,4,6.08,6.08,0,0,1-3.21,1.94,10.07,10.07,0,0,1-4.68,1.28q-3.44.31-6.88.38c-.31,0-.25.33-.15.49S71.72,117.79,72,117.77Z" transform="translate(-4.73 -4.29)"/><path class="cls-1" d="M73.7,108.15a3.7,3.7,0,0,0-.62,3.53,3.78,3.78,0,0,0,6.09,1.64c1.34-1.36,1.16-4.3-.58-5.25a2.85,2.85,0,0,0-2.11-.16c-1.47.42-1.8,1.16-2.19,2.43-.06.18.49.62.56.31l.87-1.68q6.42,1.19,1.13,2.32-2.32,2.26-2.78,0a2.07,2.07,0,0,1,.23-2.79A.35.35,0,0,0,73.7,108.15Z" transform="translate(-4.73 -4.29)"/><path class="cls-1" d="M73,107.84c-1.21,2-1,4.65,1.54,5.52a3.73,3.73,0,0,0,4.86-2.29c.53-1.94-.49-3.86-2.56-3.88-1.66,0-2.4,1.3-2.83,2.7-.2.65,1.23.41,1.24,0-.11-1.6.69-2.31,2.39-2.12,1.6,2.31,1.5,3.67-.32,4.06a1.77,1.77,0,0,1-2.6-.46c-.87-1.43-.8-2.62.2-3.59C75.22,107.34,73.22,107.41,73,107.84Z" transform="translate(-4.73 -4.29)"/><path class="cls-1" d="M73,106.73c-1.13,2-.92,4.67,1.57,5.68,2.23.9,5.24,0,5-2.9a3.16,3.16,0,0,0-2.47-3c-1.86-.3-3,1-3.36,2.58-.09.4.73.76.88.23q6.84.15,2.6,2.8c-2.41.56-3.43-1-3-4.78C74.52,106.94,73.3,106.28,73,106.73Z" transform="translate(-4.73 -4.29)"/><path class="cls-1" d="M74,107.55c-1.12,1.81-1.09,4.27,1.15,5.25a3.29,3.29,0,0,0,4.21-1.19,3,3,0,0,0-1.21-4c-2.1-.93-3.58,1-3.86,2.8-.09.51.72,1.17.75.64,3.79.1,4.32.16,1.59.2q-3.42.93-1.46-3.41C75.51,107.31,74.22,107.19,74,107.55Z" transform="translate(-4.73 -4.29)"/><path class="cls-1" d="M73.62,106.89c-.86,1.5-1.23,3.51.12,4.9,1.65,1.68,5.43,1.39,6.24-.94a3.63,3.63,0,0,0-1.28-4.08,3,3,0,0,0-2.37-.21,3.07,3.07,0,0,0-2,2.57c-.11.43.55.48.66.13q.56-3,4.59,0a1.92,1.92,0,0,1-.24,1.59,1.8,1.8,0,0,1-1.65,1.26q-6.06-1.3-3.46-5C74.46,106.67,73.88,106.43,73.62,106.89Z" transform="translate(-4.73 -4.29)"/><path class="cls-1" d="M71.87,107.34a3.5,3.5,0,0,0-.34,3.67,4.14,4.14,0,0,0,2.37,2c1.68.71,3.81.45,4.76-1.17s.5-4.08-1.37-4.66-3.41.61-4.06,2.33c-.23.63,1.07.74,1.16.23.39-2,1.25-2.44,2.58-1.47q3.77.7-1.15,4.27l-2.27-2a2.81,2.81,0,0,1,.69-2.79C74.66,107.18,72.09,107,71.87,107.34Z" transform="translate(-4.73 -4.29)"/><path class="cls-1" d="M74.22,107.19c-.62,1.28-1.29,2.69-.49,4.12,1.1,2,4.06,2.81,5.83,1.12a3.24,3.24,0,0,0,.2-4.52c-1.61-1.69-4.45-.65-5.07,1.44,0,.11.53.38.53.39a2.14,2.14,0,0,1,1.72-1.87q3.72,9.67-2.78-.16C74.2,107.63,74.32,107,74.22,107.19Z" transform="translate(-4.73 -4.29)"/><path class="cls-1" d="M81.19,109.36l-1.78,5.39c-.13.17-.52.72-.4,1s.3.4.48.2a9.71,9.71,0,0,0,2.5-7.78c0-.34-.35-.22-.5-.11S81.18,109.07,81.19,109.36Z" transform="translate(-4.73 -4.29)"/><path class="cls-1" d="M80.48,108.72A6.74,6.74,0,0,1,78.32,115c-.26.3.15.39.33.4.35,0,1.06-.77,1.25-1a9,9,0,0,0,2-4,7.05,7.05,0,0,0,.06-2.91C81.93,106.85,80.45,108.25,80.48,108.72Z" transform="translate(-4.73 -4.29)"/><path class="cls-1" d="M80.64,107.5a7.28,7.28,0,0,1-2.12,6.39c-.24.28.23.79.52.44a7.88,7.88,0,0,0,2-6.43C81.06,107.7,80.62,107.16,80.64,107.5Z" transform="translate(-4.73 -4.29)"/><path class="cls-1" d="M81.27,108.1a6.69,6.69,0,0,1-1.83,6.06c-.48.62,0,1.06.51.42a9.25,9.25,0,0,0,2.24-7.26C82.13,106.55,81.24,107.68,81.27,108.1Z" transform="translate(-4.73 -4.29)"/><path class="cls-1" d="M81.08,107.52,79,113.89c-.08.09.08.7.17.61a7.55,7.55,0,0,0,2.35-6.5C81.48,107.86,81.08,107.49,81.08,107.52Z" transform="translate(-4.73 -4.29)"/><path class="cls-1" d="M80,108.25a4.41,4.41,0,0,1-.47,3.42,4.62,4.62,0,0,1-1.79,3c-.58.64,1.2.3,1.49-.05a8.33,8.33,0,0,0,2.09-6.73C81.24,107.16,80,107.86,80,108.25Z" transform="translate(-4.73 -4.29)"/><path class="cls-1" d="M81.58,108.36a7,7,0,0,1-2.28,6.39s.53.31.63.19a8.21,8.21,0,0,0,2.31-6.58C82.24,108.21,81.58,108.23,81.58,108.36Z" transform="translate(-4.73 -4.29)"/><path class="cls-1" d="M70.14,112.37a6.25,6.25,0,0,0,6.38,5.4c.73,0-.13-1.75-.53-1.8a4.9,4.9,0,0,1-5-4.53C70.91,110.64,70.07,112,70.14,112.37Z" transform="translate(-4.73 -4.29)"/><path class="cls-1" d="M69.4,111.85a5.8,5.8,0,0,0,6.39,4.91c.51,0,.45-1.56-.06-1.56-2.63,0-4.26-1.71-4.63-4.43C71,110.07,69.32,111.42,69.4,111.85Z" transform="translate(-4.73 -4.29)"/><path class="cls-1" d="M69.67,110.83a5.94,5.94,0,0,0,6.57,5.26,1.46,1.46,0,0,0-.5-.38,5.74,5.74,0,0,1-5.58-4.95C70.08,110.34,69.58,110.41,69.67,110.83Z" transform="translate(-4.73 -4.29)"/><path class="cls-1" d="M70.31,111.36c.54,3.18,2.87,4.9,6,5.08.68,0,0-1.35-.35-1.39-2.86-.31-4.24-1.69-4.6-4.37C71.23,109.87,70.23,110.88,70.31,111.36Z" transform="translate(-4.73 -4.29)"/><path class="cls-1" d="M70.09,110.73a6.61,6.61,0,0,0,1.21,3,6.23,6.23,0,0,0,5,2.23c.16,0,.51-.33.53-.33L70.28,111C70.25,110.86,70,110.3,70.09,110.73Z" transform="translate(-4.73 -4.29)"/><path class="cls-1" d="M68.82,111.54a5.91,5.91,0,0,0,6.55,4.85c.36,0,.21-.6-.11-.63a5.17,5.17,0,0,1-4.87-4.87C70.34,110.47,68.7,111,68.82,111.54Z" transform="translate(-4.73 -4.29)"/><path class="cls-1" d="M70.48,111.42c.77,3.42,3.1,4.93,6.43,5.17.32,0,.44-.7,0-.67A5,5,0,0,1,72.1,114a3.94,3.94,0,0,1-1-2.44C71.08,111.43,70.48,111.41,70.48,111.42Z" transform="translate(-4.73 -4.29)"/><path class="cls-1" d="M102.73,60.62a7.26,7.26,0,0,0-7.87,0c-5.24,3.37-4,11.07-1.46,15.62,2,3.57,5,7.39,9.43,7.78,3.17.29,6.54-1.16,7.72-4.25a8.52,8.52,0,0,0,.12-4.85A12.71,12.71,0,0,0,109.18,71a12.36,12.36,0,0,1-1-8.88c.34-1.29.53-2.34-.64-3.31a4,4,0,0,0-3.26-.75c-1.06.29-2.42,2-3.16,2.86-.09.1.08.68.13.61.89-1.15,2.47-3.51,4.32-2.94l2,3.26a8.94,8.94,0,0,0-.39,1c-1,3.42,1.11,7,2,10.2a7.47,7.47,0,0,1-.63,7.2,7,7,0,0,1-2.68,1.7,8,8,0,0,1-6.94-.9,17.49,17.49,0,0,1-6-7.69,13.32,13.32,0,0,1-1.19-5q-.12-9.48,10.44-7.83C102.29,60.64,102.93,60.73,102.73,60.62Z" transform="translate(-4.73 -4.29)"/><path class="cls-1" d="M102.11,60.36a6.55,6.55,0,0,0-6.93-.48c-2.77,1.37-4.44,4.87-4.49,7.92-.1,7.41,6.81,17.9,15.25,14.66a6.17,6.17,0,0,0,4.1-5.95,18.9,18.9,0,0,0-1.43-5.81l-.87-2.1a8.79,8.79,0,0,1-.23-6.89c.28-1.09.6-2.08-.37-3-2.12-2-4.86.29-6.39,1.81-.41.42.86.74,1.14.41a7.11,7.11,0,0,1,1.45-1.5l3.47,2.26a4.75,4.75,0,0,0-.39,1l-.32,1.86a11.36,11.36,0,0,0,1,4.33,42.33,42.33,0,0,1,2.1,5.77q1,3.11-2.5,4.47c-1,2.06-2.42,2.89-4.35,2.47A7.6,7.6,0,0,1,98,79.56a16.24,16.24,0,0,1-4.28-5.88c-1.56-3.28-2.18-7.19-.14-10.54a5.14,5.14,0,0,1,3-2.63,4.94,4.94,0,0,1,5.39.77C102.45,61.63,102.48,60.6,102.11,60.36Z" transform="translate(-4.73 -4.29)"/><path class="cls-1" d="M101.84,58.49a5.69,5.69,0,0,0-3-1.21A6.94,6.94,0,0,0,94,58.87c-2.29,1.76-3.36,5.47-3.34,8.21,0,4.36,2.55,9.3,5.58,12.35,3.22,3.24,8.77,4.32,12.36.89,3-2.87,2-6.57.73-10s-2.8-5.43-1.72-9.56a8,8,0,0,0,.42-1.42,2.45,2.45,0,0,0-1.76-2.66c-2.41-.87-4.2,1.05-5.65,2.73-.33.38.63,1.26,1,.89a9,9,0,0,1,1.75-1.68c1.63-1.24,2.74-.4,3.35,2.53.09.76-.43,1.64-.42,2.47a12.15,12.15,0,0,0,1.15,4.26c.61,1.21,1.17,2.45,1.67,3.72q2.74,4.11-1.08,7c-.59,2.23-1.9,3.34-3.95,3.33a8.55,8.55,0,0,1-3.62-.38c-3.69-1.22-6-4.84-7.46-8.25-1.37-3.23-1.83-6.74-.16-9.91a7.32,7.32,0,0,1,3.76-3.55,5.06,5.06,0,0,1,5.45.87C102.47,61.08,102.29,58.77,101.84,58.49Z" transform="translate(-4.73 -4.29)"/><path class="cls-1" d="M102.57,60.22c-2.35-1.48-5-1.77-7.4,0a9.79,9.79,0,0,0-3.58,7.5c-.11,4.59,2.68,9.76,6.06,12.64,2,1.67,4.18,2.76,6.83,2.36a8.69,8.69,0,0,0,3.46-1.18,6.19,6.19,0,0,0,2.76-4.92c.21-2.49-1.1-5.09-2.07-7.29-1.16-2.66-1.69-5.07-.59-7.92.59-1.52.37-3-1.41-3.46-2.26-.63-3.84,1.08-5.18,2.67-.31.37.62,1.08.91.69a3.69,3.69,0,0,1,2.17-2L106.77,62a9.91,9.91,0,0,0-.55,1.91A2.48,2.48,0,0,0,106,65c-.17,2,1.14,4.37,1.84,6.16.54,1.39,1.69,3.9,1.35,5.43l-5.09,4.87a6.64,6.64,0,0,1-5-1.39,13.56,13.56,0,0,1-4.45-5.36l-2-6.94a6.55,6.55,0,0,1,.53-2.81c1.39-4,5.2-5.89,8.85-3.37C102.66,62,102.9,60.42,102.57,60.22Z" transform="translate(-4.73 -4.29)"/><path class="cls-1" d="M102.74,58.35a5.43,5.43,0,0,0-3.89-1.05,6.79,6.79,0,0,0-3.3,1.22C92,61,90.62,65.82,91.42,69.91a18.35,18.35,0,0,0,5.27,9.51A11.26,11.26,0,0,0,102,82.1c3.09.85,7.53-.57,8.65-3.88a8.86,8.86,0,0,0,.23-4.65l-.63-2.33a72.29,72.29,0,0,1-2.62-8.4c.13-1.12,1.59-3.72,1-5.07a2.55,2.55,0,0,0-1.73-1.42c-2.46-.67-4.38,1.58-5.78,3.21-.26.31.25,1.11.67.7,1.36-1.31,3.48-3.13,5.1-1.51q1.47,1.05.06,3a10.5,10.5,0,0,0-.26,1.24c-.87,4.52,3.71,8.45,3.61,12.93a6.05,6.05,0,0,1-3.59,5.37,9.56,9.56,0,0,1-3.5.72L92.7,72.17A9.7,9.7,0,0,1,93,63.23l2.79-2.92c2.06-1.35,4.39-.93,6.35.41C102.8,61.15,103.1,58.57,102.74,58.35Z" transform="translate(-4.73 -4.29)"/><path class="cls-1" d="M101.48,59.72a6.81,6.81,0,0,0-7.2-.36c-3.89,2-5,7-4.11,10.93a19.89,19.89,0,0,0,5.3,9.42,10.21,10.21,0,0,0,9.36,2.88c2.22-.44,4.3-1.59,5-4l.33-2.4c-.31-1.4-.6-2.81-.87-4.22-.7-2.13-2-4.08-2.49-6.3a11.22,11.22,0,0,1,.66-5.36,2.07,2.07,0,0,0,.13-1.53,2,2,0,0,0-.65-.86c-2.41-2-5.35.5-7,2.12-.45.45.91.85,1.17.52.93-1.16,2.63-3.24,4.46-2.63,2.5.83,1,2.42.6,3.68a7.06,7.06,0,0,0,0,4.17,21.34,21.34,0,0,0,1.57,4,9,9,0,0,1,1.43,4.38,5.55,5.55,0,0,1,0,4.48q-3,4.26-7.35,3.47c-5.17-.86-8.35-6.09-9.69-10.75-.9-3.15-.83-6.7,1.34-9.43A4.3,4.3,0,0,1,96,60.05a5,5,0,0,1,5.51.68C102.05,61.07,101.85,60,101.48,59.72Z" transform="translate(-4.73 -4.29)"/><path class="cls-1" d="M103.18,59.65a6.48,6.48,0,0,0-6.44-.58c-3.08,1.36-5.1,5.49-5.24,8.62a13.15,13.15,0,0,0,1.42,5.59A19.58,19.58,0,0,0,97,79.75c3.09,2.91,6.92,4.16,10.88,2.23a6.53,6.53,0,0,0,3.86-5.64c.28-3.07-1.57-5.82-2.57-8.55a8.92,8.92,0,0,1-.08-7c.75-1.74.35-3.13-1.7-3.56-2.48-.53-4.39,1.19-5.92,2.89-.14.15.52.19.62.1,1.24-1.16,3.53-3.12,5.19-1.3,1.06,1.16.32,2.33,0,3.47-.69,2.25-.19,4,.68,6.15a37.43,37.43,0,0,1,1.58,3.82,6.33,6.33,0,0,1,.55,4.1c.37,2.38-.75,4.1-3.34,5.16a7.86,7.86,0,0,1-5,.4c-2.92-.72-5-3.06-6.64-5.38-2.26-3.11-3.72-7.56-2.67-11.41q1.11-4.47,6.16-6a5.07,5.07,0,0,1,4,1.34C103,60.94,103.6,59.91,103.18,59.65Z" transform="translate(-4.73 -4.29)"/><path class="cls-1" d="M80.41,85.29c-1.51-1.09-2.72-1.88-4.75-1.6a7.87,7.87,0,0,0-4.31,2,11.8,11.8,0,0,0-3.5,7.65,5.52,5.52,0,0,0,2.66,5.25,78.13,78.13,0,0,0,10.57,6,6.63,6.63,0,0,0,4.32.68,8.48,8.48,0,0,0,6-5.36,10.74,10.74,0,0,0-1.18-9.09c-3.1-4.88-8.59-7-14.06-8-.2,0,.38.23.46.25,4.31,1.21,9.14,2.54,12,6.32l1.18,1.9a6,6,0,0,1-.27,7.48,4,4,0,0,1-2.21,3.81A5.53,5.53,0,0,1,83,103.67a14,14,0,0,1-3.73-1.56A19.43,19.43,0,0,1,70,96.57a2.17,2.17,0,0,1-1.39-1.86,9.89,9.89,0,0,1,1.5-6.79l6-4a5.21,5.21,0,0,1,3.76,1.2C80,85.21,80.59,85.42,80.41,85.29Z" transform="translate(-4.73 -4.29)"/><path class="cls-1" d="M79.76,85a5.77,5.77,0,0,0-5-1.43c-3.58.59-6,3.89-7,7.19a7,7,0,0,0,.09,5.2,6.29,6.29,0,0,0,2.74,2.41Q75,101,79.48,103.25a9.39,9.39,0,0,0,3.1,1.13,8.26,8.26,0,0,0,8.34-9.51,13.25,13.25,0,0,0-2.64-6c-2.93-3.75-7.75-5.11-12.12-6.34-.57-.16-.24.78.18.9a32.39,32.39,0,0,1,7.52,2.73l2.28,1.52q6.78,6.56,3.16,11.84a6.23,6.23,0,0,1-1.68,2L82.73,103A7.61,7.61,0,0,1,80,101.87q-4.42-2.46-8.82-5l-.93-.57a2.45,2.45,0,0,1-1.05-2.46,3.41,3.41,0,0,1,0-2.91l.56-1.69a8.14,8.14,0,0,1,3.33-4l1.29-.61a4.46,4.46,0,0,1,5,1.19C79.89,86.22,80.11,85.28,79.76,85Z" transform="translate(-4.73 -4.29)"/><path class="cls-1" d="M79.55,83.16a5.82,5.82,0,0,0-2.75-1.42,6.6,6.6,0,0,0-4.77,1,11.83,11.83,0,0,0-3.66,5c-.84,1.93-1.48,4.68-.74,6.75a5,5,0,0,0,1.84,2.38,62.16,62.16,0,0,0,10.21,5.79A8.57,8.57,0,0,0,83,103.8a7.82,7.82,0,0,0,5.54-2.23,7.63,7.63,0,0,0,2.7-3.95c1-3.55-.43-7.33-2.74-10.07-3.19-3.76-8-5.25-12.62-6.44-.62-.16.08,1.49.5,1.61a47.26,47.26,0,0,1,6.37,2,15.29,15.29,0,0,1,5.82,4.32A9.42,9.42,0,0,1,90.28,92L91,96.29l-.41,1.85a4.31,4.31,0,0,1-3.38,3.42q-1.95,2.59-4.65,1.39a5,5,0,0,1-3-.88c-4.44-2.41-10.83-3.65-11.3-9.11l3.34-7.3,1.49-1.06a3.51,3.51,0,0,1,3.35-.38,2.83,2.83,0,0,1,3.07,1.1C80,85.69,80,83.49,79.55,83.16Z" transform="translate(-4.73 -4.29)"/><path class="cls-1" d="M80.22,84.82a5.89,5.89,0,0,0-5.8-1.17,8,8,0,0,0-4.26,3.61c-2,3.27-3.2,7.68.4,10.21A70.61,70.61,0,0,0,81,103.36a6.28,6.28,0,0,0,4.18.64A8.25,8.25,0,0,0,91,99.25a9.78,9.78,0,0,0-1-8.87c-3.06-4.75-8.17-6.46-13.4-7.82-.64-.17-.39,1.19,0,1.3,3.7,1.06,7.41,2.17,10.25,4.9,2.54,2.45,5.2,8.17,1.88,11.3l-5.93,2.66L81,102.08l-1.71-1L71.5,96.7,69.73,91a5.15,5.15,0,0,1,2.76-3.86A3.38,3.38,0,0,1,75.4,84.8a4.15,4.15,0,0,1,4.15,1.34C80.08,86.61,80.52,85.06,80.22,84.82Z" transform="translate(-4.73 -4.29)"/><path class="cls-1" d="M80.46,82.92c-1.14-.85-1.3-1.17-2.78-1.35a6.86,6.86,0,0,0-3.42.56C71.72,83.24,70,85.59,68.89,88c-1,2.12-1.84,5.68-.25,7.81a5.45,5.45,0,0,0,2,1.5c3.16,1.7,6.25,3.51,9.49,5.07,2.3,1.1,4.49,1.92,6.93.63A8.79,8.79,0,0,0,92,95.32a12.72,12.72,0,0,0-4.64-9.76C84.3,83,80.4,82,76.65,81.06c-.72-.17-.35,1.63,0,1.74,5.46,1.48,11.69,3.65,13.87,9.43a8,8,0,0,1-1.83,9.06c-3,2.76-5.73,2-9.72.26L71.3,97.1a5.72,5.72,0,0,1-2.79-2.94,7.35,7.35,0,0,1,.44-4l1.67-3.22a5.44,5.44,0,0,1,2.64-2.14c2.35-1.3,4.27-1.33,6.45.56C80.27,85.8,80.81,83.18,80.46,82.92Z" transform="translate(-4.73 -4.29)"/><path class="cls-1" d="M79.18,84.34a6.34,6.34,0,0,0-6.78-.91,9.34,9.34,0,0,0-4.74,4.94c-.89,2-1.69,4.48-.84,6.61a5,5,0,0,0,.81,1.36A6.6,6.6,0,0,0,69.5,97.7q4.31,2.39,8.58,4.81c2.78,1.41,5.21,2.31,8.24.93a8.78,8.78,0,0,0,3.26-2.55l1-2a6.73,6.73,0,0,0,.19-4.64A12.41,12.41,0,0,0,88,88.06c-3-3.66-8.24-5-12.56-6.09-.55-.14-.18.78.25.88,3.44.85,7.23,1.65,10,4A15.58,15.58,0,0,1,90,92c1.16,2.43.88,6.48-1,8.67l-1.41,1.38a5,5,0,0,1-5.42,1.11,4.4,4.4,0,0,1-2.78-.89,78.5,78.5,0,0,1-11-7.78,7.39,7.39,0,0,1,.12-3.24,16.85,16.85,0,0,1,.79-2.4l3.35-4.08,1.34-.65a4.55,4.55,0,0,1,5.14,1.08C79.5,85.59,79.53,84.62,79.18,84.34Z" transform="translate(-4.73 -4.29)"/><path class="cls-1" d="M80.89,84.22a6.52,6.52,0,0,0-6.16-1.1c-3.18.89-5.35,4.44-6.2,7.39A6.21,6.21,0,0,0,71,97.69a79.68,79.68,0,0,0,8.54,4.86,9.25,9.25,0,0,0,3,1.32,6.3,6.3,0,0,0,4.09,0,9,9,0,0,0,6-6.89c.6-3.68-1.3-7.36-3.92-9.79-3.23-3-7.37-4.2-11.57-5.1-.4-.09-.54.74-.24.82,3.69,1,8.89,2.64,11.56,6l1.25,1.8a6.19,6.19,0,0,1,1,5.07,4.68,4.68,0,0,1-.86,4.57l-4.34,3.13c-3.32,1.09-12.34-5-13.31-5.54-1.66-.83-3.29-1.93-3.5-4a10.9,10.9,0,0,1,1.13-5.34c.66-1.49,2.23-3.61,3.79-4.27l2.75-.65a4.66,4.66,0,0,1,3.75,1.66C80.53,85.64,81.3,84.52,80.89,84.22Z" transform="translate(-4.73 -4.29)"/><path class="cls-1" d="M143.31,58.25a3.81,3.81,0,0,0-3.55-1.43,4.43,4.43,0,0,0-3.89,3.9c-.54,2.64.79,5.33,2.41,7.31,4.16,5.06,11.22,9.91,1.87,17.86a24.71,24.71,0,0,1-6,3.6c-3.54,1.58-6.14,1.54-9.34,2.67a6.93,6.93,0,0,0-3.9,2.77,4.43,4.43,0,0,0,.23,4.95,8.71,8.71,0,0,0,1.91,2c5.69,4.38,19,8.66,21.61,9.78.63.27.43-1.4.05-1.56L125,101.71l-1.49-.79-1.28-1L121,97.42l.08-1.15a3.9,3.9,0,0,1,3.68-3,48.67,48.67,0,0,1,6-2c5.52-1.56,11.75-4.43,13.65-10.34a10.25,10.25,0,0,0-1.48-9.4c-1.76-2.32-4.29-3.94-5.69-6.54a7.49,7.49,0,0,1-.76-4.65,1.89,1.89,0,0,1,1.28-1.82c1.37-1.9,3.22-1.89,5.57,0C143.64,58.94,143.46,58.4,143.31,58.25Z" transform="translate(-4.73 -4.29)"/><path class="cls-1" d="M142.89,58.21a3.49,3.49,0,0,0-3.2-1.57,4.18,4.18,0,0,0-3.11,1.67,5.92,5.92,0,0,0-1.13,4c.19,3.48,3.05,5.76,5.16,8.18L141.9,72l1.74,6.06q-.6,6.44-8.74,7.66a16.72,16.72,0,0,1-9.34,5.67A9.59,9.59,0,0,0,121,93.59a4.46,4.46,0,0,0-1,5.24,8.41,8.41,0,0,0,2.45,2.52,11.72,11.72,0,0,0,2.38,1.3q9.51,4.27,19.17,8.19c.45.19.94-1.21.47-1.41L125,101a6.51,6.51,0,0,1-2-1.29,3.78,3.78,0,0,1-1.54-4.06,5.24,5.24,0,0,1,2-2.49l4.09-1.51a33.41,33.41,0,0,0,3.26-.89c3.54-1.13,7.07-2.54,9.81-5.16,3.54-3.38,5.21-8.51,3.14-13.13-1.32-2.93-4.43-4.54-5.95-7.31a10.7,10.7,0,0,1-1.17-3,2.42,2.42,0,0,1,1.54-3c1-2.11,2.4-2.21,4.1-.32C142.64,59.23,143.16,58.56,142.89,58.21Z" transform="translate(-4.73 -4.29)"/><path class="cls-1" d="M142.82,56.5A4,4,0,0,0,138,55.32c-2.06.8-2.71,3.33-2.72,5.3,0,3.55,2.42,6.25,4.79,8.64a11.38,11.38,0,0,1,3.6,7.82l-.49,2.2c-1.25,4.45-5.77,7.51-9.85,9a69.49,69.49,0,0,1-7.92,2.12A10.33,10.33,0,0,0,122,91.58a5.24,5.24,0,0,0-2.27,3.07,5.08,5.08,0,0,0,1,4,8.93,8.93,0,0,0,1.94,2l1.51,1q9.86,4.71,20.07,8.56c.06,0-.13-.51-.26-.57A107.32,107.32,0,0,1,124.29,101a5.6,5.6,0,0,1-3.35-6c1.17-3.81,6.52-4,9.62-5,5.45-1.68,11.13-4.54,13-10.29,1.35-4.07-.15-7.32-2.75-10.39-1.64-1.93-3.69-3.77-4.37-6.32a4.88,4.88,0,0,1,2.22-5.92q2.7-.89,3.74,1.17C142.76,58.74,143.14,56.89,142.82,56.5Z" transform="translate(-4.73 -4.29)"/><path class="cls-1" d="M143.36,58a3.55,3.55,0,0,0-3.28-1.43,4.18,4.18,0,0,0-3.47,2.54c-1.75,3.94,1.53,7.59,4,10.27a14,14,0,0,1,2.86,3.89L127.52,90.91A10.51,10.51,0,0,0,124.06,92,5.7,5.7,0,0,0,121,94.86a4,4,0,0,0,.51,4.21,7.28,7.28,0,0,0,1.82,1.81c6.07,4.27,16.53,7.56,21.22,9.57.59.25.44-1.15.07-1.31l-19.26-8.43-1.48-.8-2-4.37,2.06-2.47c2.11-1.51,5.26-1.8,7.65-2.59C135.93,89,140.34,87,142.93,83a11.44,11.44,0,0,0,1.85-8.48,14,14,0,0,0-3.58-6.21,18.67,18.67,0,0,1-2.07-2.69,3.46,3.46,0,0,1-1.23-4.44q-.87-2.84,1.66-2.84c1.16-.76,2.08-.5,2.76.8C142.74,59.74,143.59,58.23,143.36,58Z" transform="translate(-4.73 -4.29)"/><path class="cls-1" d="M143.73,56.07c-.72-.78-.93-1.25-2.11-1.35a4.91,4.91,0,0,0-2.19.32,5.84,5.84,0,0,0-3.55,4.67,8.35,8.35,0,0,0,1.85,6.34,45.43,45.43,0,0,0,3.63,4c2.35,2.52,3.59,6.06,2.34,9.34l-3.9,5.53a14,14,0,0,1-4.33,2.6,48.05,48.05,0,0,1-8.28,2.64c-2.35.57-4.91,1.17-6.26,3.38a4.69,4.69,0,0,0-.72,2.73,5.68,5.68,0,0,0,1.57,3.21c5.32,5.48,20.36,9.45,22.66,10.44a4,4,0,0,0,.62.06,77.25,77.25,0,0,1-21.77-9.89q-4.62-3.12,1.75-8.68c2.85-1.09,6-1.45,8.81-2.56,4.75-1.84,9.22-5,10.56-10.12a7.37,7.37,0,0,0-.41-5.62,29,29,0,0,0-3.87-5.16c-2-2.23-4-4.67-3.51-7.85a3.33,3.33,0,0,1,6-1.68C143,58.94,144.06,56.43,143.73,56.07Z" transform="translate(-4.73 -4.29)"/><path class="cls-1" d="M142.5,57.58a3.53,3.53,0,0,0-1.93-1.45,5.2,5.2,0,0,0-2.9.18c-2.25.85-3.19,3.3-3,5.57.19,2.44,1.76,4.46,3.37,6.17a37.38,37.38,0,0,1,3.25,3.74,7,7,0,0,1,1.86,5.91,8.51,8.51,0,0,1-1,3.31c-2.41,5.21-7.88,7.5-13.12,9-3,.84-8.08.92-9.81,4.11a4.15,4.15,0,0,0,.1,4.48,10,10,0,0,0,3.5,3,5.81,5.81,0,0,0,.94.53,157.81,157.81,0,0,1,19.88,8.47c.38.16.62-.5.18-.69q-9.83-4.07-19.44-8.58l-1.41-1c-2.68-2.08-2.85-4.69-.91-6.82a10.85,10.85,0,0,1,5.06-2.17l3.44-.94c3.76-1.12,7.43-2.73,10.17-5.62s4.2-7,2.84-10.81a11.5,11.5,0,0,0-2.11-3.61,27,27,0,0,0-1.95-2.19Q130.7,59.1,142,58C142.24,58.35,142.81,58,142.5,57.58Z" transform="translate(-4.73 -4.29)"/><path class="cls-1" d="M144.22,57.28c-.83-.86-.91-1.09-2.18-1.34a4.94,4.94,0,0,0-5.83,5.21c-.24,4.7,4.2,7.47,6.78,10.76a5.11,5.11,0,0,1,1.38,3.84,6.09,6.09,0,0,1-.16,4.5,8.17,8.17,0,0,1-4,4.68,11.42,11.42,0,0,1-6.1,3.92c-2.84,1-5.91,1.35-8.71,2.41a8.12,8.12,0,0,0-2.65,1.4,6.15,6.15,0,0,0-1.56,1.83,4.31,4.31,0,0,0,.92,5.12,14.16,14.16,0,0,0,1.33,1.29l1.65,1.12a152.16,152.16,0,0,0,20,8.61c.18.08.67-.4.35-.53a149.7,149.7,0,0,0-19-8q-4.67-1.34-4.77-8c1.72-2.82,6.57-2.88,9.27-3.62,4.22-1.16,8.58-2.86,11.52-6.25a11.08,11.08,0,0,0,2.86-8.82,10.39,10.39,0,0,0-3-5.38c-1.53-1.62-3.08-3.21-4.62-4.81l.34.57-.82-2.15a3.51,3.51,0,0,1,.94-4.13q.24-3.36,2.77-2.19a1.79,1.79,0,0,1,2.2,1.18C143.32,58.89,144.61,57.68,144.22,57.28Z" transform="translate(-4.73 -4.29)"/><path class="cls-1" d="M62.14,134.33a13.74,13.74,0,0,1,9.2-5.11,10.76,10.76,0,0,1,4.08.09,17.79,17.79,0,0,1,7.48,3.29c3.21,2.17,7.82,5.46,11.95,3.56,3.09-1.43,4.64-4.51,5.66-7.57,1.43-4.3,2.2-16.81,9.9-13.28l-.83-.54,1.65,1.45-.66-.76a21.34,21.34,0,0,1,1.92,4.55q2.83,9.54,6,19c.08.26.26.5.54.3s0-1-.11-1.21q-3.26-9.53-6-19.2c-.14-.48-.28-1-.43-1.45a6.59,6.59,0,0,0-.79-1.54,6.74,6.74,0,0,0-1.79-1.62,4.48,4.48,0,0,0-3.93-.17c-2.66,1-3.86,4.15-4.66,6.58-1.35,4.16-1.83,8.75-5.1,11.94-4,3.85-8.8,1.54-12.73-.78a32.49,32.49,0,0,0-6.23-3.14,14.53,14.53,0,0,0-6.74-.48A16.76,16.76,0,0,0,65.42,130a14.8,14.8,0,0,0-4.21,3.58C60.76,134.09,61.88,134.6,62.14,134.33Z" transform="translate(-4.73 -4.29)"/><path class="cls-1" d="M61.24,133.81a13.69,13.69,0,0,1,4.14-3.51q7.09-3.9,15.39.58c2.19,1.29,4.19,3,6.61,3.84s5.06,1.15,7.39-.28a11.84,11.84,0,0,0,4.74-6.38c1.21-3.42,1.45-7.28,3.16-10.54q2.68-5.56,9.32,2.09a177.38,177.38,0,0,0,5.87,18.64c.23.72.85-.56.72-1-1.28-3.92-4.11-14-6.69-20.42a8,8,0,0,0-1-1.83,4.51,4.51,0,0,0-2.59-1.62c-3.06-.53-5.45,1.92-6.6,4.49-1.4,3.13-1.78,6.57-2.93,9.78a5.9,5.9,0,0,1-5.66,5.09c-1.84,1.6-3.68,1.83-5.54.69a50.72,50.72,0,0,1-6.88-3.53,15.91,15.91,0,0,0-7.87-2.31,19.16,19.16,0,0,0-5.46,1,15.9,15.9,0,0,0-6.64,4.68C60.37,133.61,60.94,134.13,61.24,133.81Z" transform="translate(-4.73 -4.29)"/><path class="cls-1" d="M61.61,132.9c3.47-3.56,7.32-5.53,12.09-5.32,4.1.18,6.44,2,9.88,4.27,2.86,1.87,5.91,3.64,9.44,2.8,4.82-1.14,6.89-6.24,7.9-10.59l.66-3q.58-7.18,10.09-4.74l.32,1.56a54.87,54.87,0,0,0,5.94,19.59c0,.17.53.22.57.33-3.59-11.46-4.39-13.23-6.24-20.51a9,9,0,0,0-1.18-3,3.94,3.94,0,0,0-3-1.67c-3.24-.28-5.35,2.47-6.32,5.27-.82,2.37-1.16,4.89-1.76,7.32a23.75,23.75,0,0,1-1,3.5l-4.59,5.13-4.16.44a11.15,11.15,0,0,1-3.13-1.07,52.7,52.7,0,0,1-5.69-3.58,15.52,15.52,0,0,0-12-2.24c-3.45.77-5.8,2.54-8.21,5C60.87,132.72,61.31,133.21,61.61,132.9Z" transform="translate(-4.73 -4.29)"/><path class="cls-1" d="M62.07,133.51a11.53,11.53,0,0,1,5.27-3.95c2.71-1.48,5.62-1.13,8.71,1a16.26,16.26,0,0,1,10.07,3.14l1.91.9c2.7,1,6.12,1.14,8.42-.88a14.46,14.46,0,0,0,4.24-7.43,68.56,68.56,0,0,1,2-7.48l.75-1.66a5.67,5.67,0,0,1,4.46-3.35l-1.1.08,2,0-1.08-.17a4.74,4.74,0,0,1,3.52,2.92,92.07,92.07,0,0,1,7,20.85c.27.83.89.63.62-.2a137.83,137.83,0,0,1-6-18.71,14.53,14.53,0,0,0-.7-2.33,5.8,5.8,0,0,0-1.82-2.39,4.77,4.77,0,0,0-2.73-.67c-5.85.05-7,7.17-8.17,11.47l-.82,2.93q-1.14,4.87-5.35,5.72a6.06,6.06,0,0,1-5.81-.05l-2-.87c-2.46-1.22-4.66-2.95-7.23-3.95a15.05,15.05,0,0,0-7.1-.88,15.93,15.93,0,0,0-6.61,2.06,20.16,20.16,0,0,0-4.3,3.7C59.86,133.79,61.75,133.85,62.07,133.51Z" transform="translate(-4.73 -4.29)"/><path class="cls-1" d="M62.13,132.73q12-8.14,20.61-1.85c1.21.81,2.44,1.6,3.69,2.34a11.44,11.44,0,0,0,6.08,1.59c2.92-.22,5-2.14,6.46-4.54a22.16,22.16,0,0,0,2.44-6.33,37.6,37.6,0,0,1,1.12-4.57,12.29,12.29,0,0,1,1.18-3.18l5.09-2.9a4,4,0,0,1,3.17,2.87l.55,1.58a198.31,198.31,0,0,0,6.07,20c0-.06.46-.37.41-.52-.74-2.31-4.26-14.91-6.8-21.64a5.63,5.63,0,0,0-1.68-2.48,4.28,4.28,0,0,0-4-.45c-5,1.81-5.43,8.66-6.46,12.85a17.06,17.06,0,0,1-2.27,5.36,5.25,5.25,0,0,1-5.24,3,5.82,5.82,0,0,1-4.06-.39c-3.76-1.5-6.63-4.61-10.49-5.86a15,15,0,0,0-9.37-.08,18.24,18.24,0,0,0-7.44,5C60.55,133.31,61.73,133.14,62.13,132.73Z" transform="translate(-4.73 -4.29)"/><path class="cls-1" d="M61.33,133.47a16.63,16.63,0,0,1,5.38-4,13.89,13.89,0,0,1,5.12-1.15,14.76,14.76,0,0,1,6.36,1.12,31,31,0,0,1,4.61,2.81c2.92,1.93,7.49,4.38,11.16,2.58,7.08-3.46,5.44-12.84,9.28-18.52,1.17-1.73,3-3,5.17-2.36a4.53,4.53,0,0,1,1.85,1.36,8.87,8.87,0,0,1,1.17,3.48,68.9,68.9,0,0,0,6,19.22c.09.3.76.37.63-.05A71.49,71.49,0,0,1,111.94,118a4.85,4.85,0,0,0-.4-1.56,4.63,4.63,0,0,0-4.5-3.34c-4,.11-5.45,4.73-6.22,8a33.51,33.51,0,0,1-2.52,8.74c-1.84,3.88-5.39,5.44-10.68,4.68-2.4-1-4.36-2.64-6.5-4a15.51,15.51,0,0,0-10.64-2.77,14.62,14.62,0,0,0-5.26,1.69,13.2,13.2,0,0,0-4.17,3.48C61,133,61.32,133.47,61.33,133.47Z" transform="translate(-4.73 -4.29)"/><path class="cls-1" d="M63.54,133.06q4-5.72,10.88-3.06a9.83,9.83,0,0,1,9.5,1.94,37.59,37.59,0,0,0,3.62,2c2.25,1.06,5.33,1.95,7.76.88,3.13-1.38,5-4.29,6.17-7.38,1.78-4.56,1.32-12.56,7.37-13.89l-1.33.15,2.43.38a5.83,5.83,0,0,1,2.34,3.09c2.56,6.49,5.32,16.61,6.67,20.81.13.42.71.05.61-.27a131.43,131.43,0,0,1-6-19.18c-.16-.76-.36-1.51-.59-2.24a7.2,7.2,0,0,0-.64-1.48,3.74,3.74,0,0,0-3.6-1.88c-4.7.21-6.66,4.65-7.61,8.65-.55,2.32-.82,4.75-1.86,6.9a18.71,18.71,0,0,1-1.61,2.86l-5.2,3c-3.91,1.36-8.6-4.09-12.44-5.75a14,14,0,0,0-5.21-1.25,20.16,20.16,0,0,0-4.11.29,17.41,17.41,0,0,0-5.24,1.85,20.09,20.09,0,0,0-4.35,3.69c-.39.4.69.34.69.34A3,3,0,0,0,63.54,133.06Z" transform="translate(-4.73 -4.29)"/><path class="cls-1" d="M52.37,124.91a11.31,11.31,0,0,0-5.46-2.34,26.25,26.25,0,0,0-7.89.65c-.16,0-.48.41-.47.41a18.21,18.21,0,0,1,13.29,1.2C51.93,124.89,52.56,125,52.37,124.91Z" transform="translate(-4.73 -4.29)"/><path class="cls-1" d="M51.73,124.64a10.73,10.73,0,0,0-6.34-2.49,29.16,29.16,0,0,0-6.84.76c-.77.14.16,1,.56,1,6-1.12,8.4-1.38,12.38,1.64C52,125.89,52.09,124.9,51.73,124.64Z" transform="translate(-4.73 -4.29)"/><path class="cls-1" d="M51.49,122.78A10.58,10.58,0,0,0,45,120.36a29.31,29.31,0,0,0-6.85,1c-.76.16.52,2,.89,2,6.06-1.08,8.5-1.33,12.51,1.74C52,125.35,51.92,123.09,51.49,122.78Z" transform="translate(-4.73 -4.29)"/><path class="cls-1" d="M52.19,124.48a10.41,10.41,0,0,0-6.17-2.4,31.39,31.39,0,0,0-6.88.81c-.66.12,0,1.28.35,1.22a11.53,11.53,0,0,1,6.3,0,5.74,5.74,0,0,1,5.84,1.69C52.18,126.25,52.5,124.71,52.19,124.48Z" transform="translate(-4.73 -4.29)"/><path class="cls-1" d="M52.39,122.6a9.42,9.42,0,0,0-5.31-2.18c-2.79-.25-5.47.45-8.18,1.07-.48.11,0,1.77.51,1.68a33.16,33.16,0,0,1,5.53-.59,10,10,0,0,1,6.81,2.4C52.34,125.43,52.75,122.85,52.39,122.6Z" transform="translate(-4.73 -4.29)"/><path class="cls-1" d="M51.13,124a10.89,10.89,0,0,0-6.45-2.44,31.11,31.11,0,0,0-7.12.81c-.58.11.71,1.17,1.15,1.08a23.93,23.93,0,0,1,8.61-.52,7.77,7.77,0,0,1,3.78,2C51.57,125.3,51.48,124.25,51.13,124Z" transform="translate(-4.73 -4.29)"/><path class="cls-1" d="M52.83,123.89a7.88,7.88,0,0,0-4-2,16.33,16.33,0,0,0-2.32-.28,31.54,31.54,0,0,0-7.17.87c-.33.06-.14.54.19.5a13,13,0,0,1,6.66.19,6.16,6.16,0,0,1,6,1.84C52.59,125.25,53.23,124.19,52.83,123.89Z" transform="translate(-4.73 -4.29)"/><path class="cls-1" d="M145,165.56c.62-2.92,3-3.69,5.56-4,1.88-.26,3.79-.17,5.67-.43a11.69,11.69,0,0,0,4.59-1.71c8.55-4.81,11-15.13,13.11-23.94.11-.46-.86-.64-1-.18-2.06,7.83-4.31,17.59-11.81,22.29l-2.74,1.56a25.83,25.83,0,0,1-7.36,1.44,10.81,10.81,0,0,0-4.69,1.48,4.32,4.32,0,0,0-1.89,3.3C144.34,165.74,144.87,166,145,165.56Z" transform="translate(-4.73 -4.29)"/><path class="cls-1" d="M144.29,165.22q3.48-4.71,8.66-4.56a14.68,14.68,0,0,0,5.38-1.2,19.61,19.61,0,0,0,5.38-3.72c5.61-5.45,7.47-13.26,9.32-20.59.11-.45-.55-.77-.65-.37a95.37,95.37,0,0,1-2.87,9.83,17.18,17.18,0,0,1-2.49,5,12.46,12.46,0,0,1-2.84,4.3,17.79,17.79,0,0,1-9.22,5.7c-2.2.51-4.52.32-6.72,1a7.45,7.45,0,0,0-2.66,1.2,5.26,5.26,0,0,0-2,3.48C143.45,165.71,144.19,165.65,144.29,165.22Z" transform="translate(-4.73 -4.29)"/><path class="cls-1" d="M144.46,164.08l1.77-2.61,1.24-.7a12.17,12.17,0,0,1,3.67-.84c1.59-.17,3.2-.14,4.79-.39a10.64,10.64,0,0,0,4.42-1.72c8.45-4.79,11-15,13.08-23.77a.35.35,0,0,0-.69-.12c-1.37,5.74-2.7,11.65-5.93,16.68a19,19,0,0,1-8.12,7.4l-5.37,1.19a23.32,23.32,0,0,0-3.44.25,7.67,7.67,0,0,0-4.95,2.1,5.76,5.76,0,0,0-1.26,2.91c0,.24.05.49.34.45S144.41,164.3,144.46,164.08Z" transform="translate(-4.73 -4.29)"/><path class="cls-1" d="M144.87,164.87c1-4.67,10.54-3.88,14.18-5.56a18.69,18.69,0,0,0,5.45-3.74c5.54-5.7,7.42-13.3,9.28-20.78.17-.7-1.64-.22-1.74.17-1.58,6.16-3.11,12.58-7.08,17.7a18.13,18.13,0,0,1-10.22,6.86c-1.74.36-3.54.45-5.28.79a10,10,0,0,0-3.4,1.22,5.6,5.6,0,0,0-2.71,4.09C143.23,166.21,144.78,165.31,144.87,164.87Z" transform="translate(-4.73 -4.29)"/><path class="cls-1" d="M145.3,163.49l.81-1.89-.82,1a9.29,9.29,0,0,1,3.54-2.09,27.51,27.51,0,0,1,4.6-.63,18.3,18.3,0,0,0,7.26-2.16c8.58-4.81,11.17-15.09,13.37-24,.2-.82-1.14,0-1.24.45-1.38,5.67-2.68,11.7-6,16.6a19.68,19.68,0,0,1-5.34,5.69l-7.59,2.56a37.67,37.67,0,0,0-5.18.49,6.44,6.44,0,0,0-4.86,5.2c-.1.43.19.35.44.29S145.22,163.81,145.3,163.49Z" transform="translate(-4.73 -4.29)"/><path class="cls-1" d="M144.13,164.56c.62-2.36,2.41-3.48,4.67-3.89,3.3-.61,6.29.15,9.47-1.38,9.5-4.58,12.45-15.25,14.79-24.67,0-.12-.4-.54-.41-.47-1.23,5.27-2.38,10.72-5,15.52-2.76,5.05-7.34,9.58-13.43,10-2.63.19-5.48.07-7.9,1.25a4.8,4.8,0,0,0-2.82,3.48C143.44,164.63,144.08,164.76,144.13,164.56Z" transform="translate(-4.73 -4.29)"/><path class="cls-1" d="M146.13,164.27c1.17-4.91,7.22-3.4,11.09-4.31a16.84,16.84,0,0,0,6-2.6c7.55-5.24,9.86-14.67,11.93-23.07.17-.69-2.1,0-2.21.43-1.57,6.23-3.08,12.71-7,17.91a12.77,12.77,0,0,1-4.66,4.16,11.62,11.62,0,0,1-8.91,2.94c-.82.11-1.67.17-2.48.36a9.64,9.64,0,0,0-2.85,1.08,5.45,5.45,0,0,0-2.88,4C144,165.74,146,164.76,146.13,164.27Z" transform="translate(-4.73 -4.29)"/><path class="cls-1" d="M131.69,129.52a3.9,3.9,0,0,0-3.48,2.25c-1.48,3.36,1.75,6.53,4.74,7.3s5.49-.81,5.4-4a5.41,5.41,0,0,0-2.38-4.25,6.89,6.89,0,0,0-2.59-1.23c-1.66-.34-2.27.11-3.88.9h0l2.11-.36,3.38.71,2.31,2.51q-3.27,7.52-6.77,3c-1.48-1.26-2.24-1.59-2.09-3.42A2.89,2.89,0,0,1,131.3,130C131.44,130,131.78,129.52,131.69,129.52Z" transform="translate(-4.73 -4.29)"/><path class="cls-1" d="M131.22,129.34a3.64,3.64,0,0,0-3.83,3.64c0,3.06,3,5.51,6,5.53a4,4,0,0,0,3.57-1.59,4.36,4.36,0,0,0-.46-5.13c-1.74-2.19-4.24-2.42-6.88-2-.63.11.05.91.49.83,2.79-.53,6.57.72,6.75,3.8q.47,4.14-7.22.57-2-2.52,2.11-4.61C132.5,130.44,131.66,129.34,131.22,129.34Z" transform="translate(-4.73 -4.29)"/><path class="cls-1" d="M130.78,127.58c-2.35.15-3.59,2-3.47,4.34a6.39,6.39,0,0,0,5.31,5.82,4.73,4.73,0,0,0,4-.57A4,4,0,0,0,138,133.3a5.79,5.79,0,0,0-3.06-4.3,6.7,6.7,0,0,0-5.54-.46c-.65.17.3,1.28.68,1.18q8.49-.71,7,5.94-2.16,3-5,.29-5.06-.48-2.6-5.46a2.21,2.21,0,0,1,2.19-.69C132.35,129.85,131.22,127.56,130.78,127.58Z" transform="translate(-4.73 -4.29)"/><path class="cls-1" d="M131.79,129.3a3.4,3.4,0,0,0-3.49,3.63c0,3.13,3.46,5.25,6.29,5.18a3.5,3.5,0,0,0,3.38-4.32,4.41,4.41,0,0,0-1.49-2.78,10.41,10.41,0,0,0-1.52-1,5.84,5.84,0,0,0-5,0c-.46.17,0,1.31.47,1.12a2.62,2.62,0,0,1,1.75-.45q3.87-.54,3.77,5.8l-6.34-4.47a2,2,0,0,1,2.41-1.36C132.69,130.63,132.18,129.29,131.79,129.3Z" transform="translate(-4.73 -4.29)"/><path class="cls-1" d="M131.57,127.8c-2.78.23-4.18,3.19-3.41,5.79a6.32,6.32,0,0,0,7.32,4.15,3.3,3.3,0,0,0,2.94-3,5.55,5.55,0,0,0-3-5.92c-2-1.08-3.49-.86-5.44-.21-.46.15.09,1.31.57,1.17l2.83-.31,3.93,2.84.53,2.18c0,1.22-.63,1.86-2.05,1.92a2.24,2.24,0,0,1-2.57.72,3.22,3.22,0,0,1-1.66-.63c-1.3-.39-1.85-1.39-1.65-3-1.53-2.27-.85-3.55,2-3.82C132.35,129.69,132.17,127.75,131.57,127.8Z" transform="translate(-4.73 -4.29)"/><path class="cls-1" d="M130.37,128.73a3.73,3.73,0,0,0-3.6,5.33,7.43,7.43,0,0,0,6.25,4.31c2.94.26,4.85-1.58,4.51-4.62a5.1,5.1,0,0,0-3-4.18,7.87,7.87,0,0,0-5.69-.35c-.58.13.09.89.54.76a6.65,6.65,0,0,1,4.71.05,4.2,4.2,0,0,1,2.59,5.53c-.84,2.85-4,2.2-5.85,1.16a4.39,4.39,0,0,1-2.55-4.06c.25-1.9,1.21-2.8,2.88-2.67C132.12,130,130.79,128.73,130.37,128.73Z" transform="translate(-4.73 -4.29)"/><path class="cls-1" d="M132,128.78a3.69,3.69,0,0,0-3.76,3.9,6,6,0,0,0,.64,2.35,5.54,5.54,0,0,0,2.31,2.1c1.39.92,3,1.75,4.73,1.21a4.21,4.21,0,0,0,3.08-4.72,5.14,5.14,0,0,0-2.33-3.61,6.73,6.73,0,0,0-2.69-1.19,5.08,5.08,0,0,0-3.5.63c-.32.14-.06.55.25.47l1.35-.38a4.35,4.35,0,0,1,4.35,2.05q2.56,1.6-.35,3.78c-.26,2.18-1.23,3-2.89,2.38l-3.56-2.52-.62-1.39a3.21,3.21,0,0,1,3.1-4.47C132.65,129.37,132.55,128.76,132,128.78Z" transform="translate(-4.73 -4.29)"/></svg>