<svg id="Capa_1" data-name="Capa 1" xmlns="http://www.w3.org/2000/svg" viewBox="0 0 181.21 175.28"><defs><style>.cls-1{stroke:#000;stroke-miterlimit:10;stroke-width:4px;}</style></defs><title>vaca</title><path class="cls-1" d="M21,13.91s16.47,12.65,37,9.64a19.24,19.24,0,0,0-5.42,16.67S27.64,39.42,21,13.91Z" transform="translate(-4.76 -8.77)"/><path class="cls-1" d="M163.52,15.21s-16.47,12.66-37,9.64A19.24,19.24,0,0,1,132,41.52S156.89,40.72,163.52,15.21Z" transform="translate(-4.76 -8.77)"/><path d="M135,99V52.57l-3-11c-.2-12.66-5.43-17.88-5.43-17.88-39.16-17.07-68.69,0-68.69,0-5.84,2.64-5.49,15-5.43,16.52a.19.19,0,0,1-.12.2c-4.34,1.91-7.1,30.48-7.1,30.48l-.6,17.68S39,105,36.38,103.79s-6.22,11-8.84,13.66S31,129.9,28,128.29s-2.41,8.44-2.41,8.44,7.43,5.82,9.24,3.21,9,2.21,14,2.61a87.8,87.8,0,0,0,11.05,0s10.85,3.22,13.66,4.22,7.23-3,7.23-3L92,128.7,78.16,142.55s-20.09-.4-11.65-6.42,5-15.47,3.41-21.69S54.66,114,54.66,114s-12.45-.4-15.27-6.22S46,99,46,99c5.43-3.82,2.41-14.66,2.41-14.66,13.26-20.89,0-29.73,0-29.73C59.88,48,57.87,32.89,57.87,32.89a31.07,31.07,0,0,0,25.71-12s-11-2.61,17.68.4,28.32,14.66,25.3,12.45-18.67,5.43-13.65,10.85S112.1,53,112.1,53s-5.42,2.41-6.63-2.62-8.63,3.82-8.63,3.82S91.21,80.49,87.4,68s-6.63-7.23-6.63-7.23L68.12,93.15S73.54,112.83,90,111.22s10.44,14.06,10.44,14.06-.6,21.09,5.43,18.48,14.06,23.1,14.06,23.1a24.78,24.78,0,0,1,8.83-22.3C139.22,129.9,135,99,135,99ZM118.52,76.5a17,17,0,0,1-8.68,3.88c-4.17.56-9.06-.2-11.21-4.33a8.91,8.91,0,0,1,.87-9.22,13.45,13.45,0,0,1,3-4.4A9.19,9.19,0,0,1,106,60.32a6,6,0,0,1,3-.79c4.54,0,9.67,1.16,11.89,5.64A9.25,9.25,0,0,1,118.52,76.5Z" transform="translate(-4.76 -8.77)"/><path d="M135,99V52.57h0l-3-11h0l-.1-2.38c-.08-.79-.13-1.58-.24-2.36a33.39,33.39,0,0,0-.92-4.66,27.44,27.44,0,0,0-1.62-4.47,16.68,16.68,0,0,0-2.54-4h0l-4.13-1.61-2.06-.8-1-.4-1.06-.32L114,19.28c-.71-.2-1.4-.46-2.13-.6l-2.17-.47c-1.44-.3-2.88-.64-4.33-.9l-4.39-.6a43.5,43.5,0,0,0-4.41-.39l-2.21-.13-1.11-.07-1.1,0-4.43.05-4.42.33a81.18,81.18,0,0,0-8.75,1.37,65.06,65.06,0,0,0-16.67,5.8h0a7,7,0,0,0-3,2.9,14.4,14.4,0,0,0-1.53,3.92,34.89,34.89,0,0,0-.92,8.4V40a1.3,1.3,0,0,1,0,.28c0,.11-.15.17-.2.21a1.79,1.79,0,0,0-.42.3A5.76,5.76,0,0,0,50.7,42.5a26.15,26.15,0,0,0-1.42,4C48.52,49.2,48,52,47.47,54.76s-.91,5.58-1.29,8.38-.75,5.61-.93,8.43l-.57,17v0q-1.16,3.35-2.52,6.63a48.83,48.83,0,0,1-3.09,6.39A11.5,11.5,0,0,1,38,103a3.52,3.52,0,0,1-.66.62,1,1,0,0,1-.87.24,1.14,1.14,0,0,0-.83,0,2.11,2.11,0,0,0-.7.49,7.18,7.18,0,0,0-1.07,1.38A62.39,62.39,0,0,0,30.7,112c-.5,1.07-1,2.14-1.58,3.19a15.75,15.75,0,0,1-.92,1.52c-.31.52-.84.87-1,1.41a6.45,6.45,0,0,0,0,3.46c.25,1.16.6,2.29,1,3.41.17.57.35,1.13.51,1.7.07.29.14.58.19.88a1.7,1.7,0,0,1,0,.45.48.48,0,0,1-.21.44c-.36.15-.63-.12-.89-.2a.93.93,0,0,0-.8,0,2.29,2.29,0,0,0-.89,1.42,15.07,15.07,0,0,0-.49,3.49c-.05,1.18,0,2.36,0,3.54l0,0a31.61,31.61,0,0,0,3.78,2.49,15.78,15.78,0,0,0,2,1,5,5,0,0,0,2.18.4,1.61,1.61,0,0,0,1-.44,2.44,2.44,0,0,1,.85-.77,4,4,0,0,1,2.28-.11A29.49,29.49,0,0,1,42,140.56c1.42.52,2.84,1.05,4.3,1.45a14.17,14.17,0,0,0,2.21.44c.75.08,1.51.11,2.26.15,3,.11,6.06.06,9.08-.12h0l10.72,3.31,2.68.83a3.9,3.9,0,0,0,1.34.23,5.28,5.28,0,0,0,1.36-.26,14.59,14.59,0,0,0,4.72-2.89h0L92,128.65l.13.1L78.22,142.62l-.06,0a58.33,58.33,0,0,1-7.35-.65,22.47,22.47,0,0,1-3.61-.83,7.79,7.79,0,0,1-1.7-.75,2.17,2.17,0,0,1-1.13-1.47,2.32,2.32,0,0,1,.73-1.71c.21-.23.45-.43.68-.65l.73-.57,1.42-1.15c.41-.45.86-.87,1.25-1.34a12.4,12.4,0,0,0,2.65-6.7,24.57,24.57,0,0,0-.69-7.29c-.27-1.19-.58-2.38-.91-3.57s-.48-2.47-1.46-3.24a5.6,5.6,0,0,0-3.4-1,16.58,16.58,0,0,0-3.65.32,38.15,38.15,0,0,0-7,2.13h0A35.79,35.79,0,0,1,47.3,113a15.35,15.35,0,0,1-6.62-3.31,6.14,6.14,0,0,1-1.81-3.24,4.47,4.47,0,0,1,.91-3.56,10,10,0,0,1,2.83-2.44A18.25,18.25,0,0,1,46,98.87l0,0a7.2,7.2,0,0,0,2.31-3,11.91,11.91,0,0,0,.83-3.79A21.08,21.08,0,0,0,49,88.18a25.94,25.94,0,0,0-.69-3.84.15.15,0,0,1,0-.09l2-3.53c.62-1.22,1.16-2.47,1.74-3.7a28.75,28.75,0,0,0,2-7.88,17.86,17.86,0,0,0-1-8,14.69,14.69,0,0,0-4.73-6.47.12.12,0,0,1,0-.15l0,0,1.29-.86.65-.44c.2-.16.39-.34.58-.51l1.16-1,1-1.17a19.11,19.11,0,0,0,3.11-5.35,26,26,0,0,0,1.47-6,28,28,0,0,0,.1-6.21.1.1,0,0,1,.09-.12h0c1.22-.05,2.45,0,3.66-.13a29.39,29.39,0,0,0,3.63-.53,29.41,29.41,0,0,0,7-2.28A29.81,29.81,0,0,0,78.36,26a27.51,27.51,0,0,0,5.13-5.21l.07.17a14.73,14.73,0,0,1-1.6-.48,2.33,2.33,0,0,1-.39-.19c-.06-.05-.15-.07-.18-.24s.15-.2.22-.23a4.15,4.15,0,0,1,.84-.12c1.11,0,2.22,0,3.32.07,2.2.12,4.39.3,6.59.49,4.38.42,8.77.79,13.13,1.42a60.15,60.15,0,0,1,12.82,3.19,27.06,27.06,0,0,1,5.86,3.07,13.35,13.35,0,0,1,2.47,2.22,5,5,0,0,1,1.39,3,1,1,0,0,1-.39.8.9.9,0,0,1-.9,0,2.85,2.85,0,0,0-.71-.37,3,3,0,0,0-.78-.14,9.84,9.84,0,0,0-3.21.51,22,22,0,0,0-5.89,2.84,13.64,13.64,0,0,0-2.49,2.11,5.81,5.81,0,0,0-1.56,2.79,3.29,3.29,0,0,0,1,2.9,8.45,8.45,0,0,1,1.75,2.83,4.24,4.24,0,0,1-.27,3.29,6.19,6.19,0,0,1-2.36,2.35,7.15,7.15,0,0,1-3.28.6,3.65,3.65,0,0,1-2.87-1.6c-.16-.23-.27-.5-.41-.74s-.17-.54-.26-.8a2.31,2.31,0,0,0-.74-1.35,1.67,1.67,0,0,0-1.48-.08,6.26,6.26,0,0,0-1.44.72,25.68,25.68,0,0,0-4.8,4.46l0,0c-.64,2.89-1.39,5.76-2.27,8.6-.44,1.41-.92,2.82-1.49,4.19A12.9,12.9,0,0,1,91,70.87a2.06,2.06,0,0,1-1,.61,1.24,1.24,0,0,1-1.12-.34,5,5,0,0,1-1.18-1.93c-.53-1.4-.89-2.82-1.46-4.19a16.21,16.21,0,0,0-2-3.91,2.94,2.94,0,0,0-1.67-1.25,1.77,1.77,0,0,0-1.68,1h0L68.21,93.18v-.06a32.29,32.29,0,0,0,6.33,11.58A20.43,20.43,0,0,0,79.6,109a16.89,16.89,0,0,0,6.24,2.13,18.27,18.27,0,0,0,3.31.11c1.1,0,2.22-.19,3.33-.16a10.65,10.65,0,0,1,6.35,1.8,6.71,6.71,0,0,1,2,2.64,9.39,9.39,0,0,1,.7,3.27,17.56,17.56,0,0,1-1.06,6.57v0a68.25,68.25,0,0,0,.76,12.37,22,22,0,0,0,.74,3,6.82,6.82,0,0,0,1.47,2.66,2.17,2.17,0,0,0,1.35.6,6.46,6.46,0,0,0,1.49-.36,3.57,3.57,0,0,1,2.85,1.09,19.87,19.87,0,0,1,3.69,5c1,1.8,1.9,3.68,2.74,5.57,1.65,3.8,3.09,7.69,4.36,11.63l-.09,0a26.66,26.66,0,0,1,0-6.25,23.09,23.09,0,0,1,1.55-6.06,24.55,24.55,0,0,1,3-5.47,24,24,0,0,1,4.29-4.55h0a33.47,33.47,0,0,0,4.73-10.64,66.27,66.27,0,0,0,2-11.54,106.27,106.27,0,0,0,.36-11.7C135.7,106.75,135.46,102.85,135,99Zm0,0a117.11,117.11,0,0,1,.82,11.69,109.05,109.05,0,0,1-.35,11.71,67.21,67.21,0,0,1-1.95,11.54,33.63,33.63,0,0,1-4.73,10.67h0a23.52,23.52,0,0,0-4.26,4.54,23.84,23.84,0,0,0-3,5.46,22.48,22.48,0,0,0-1.54,6,27,27,0,0,0,0,6.23s0,.05,0,.06a.07.07,0,0,1,0,0c-1.27-3.94-2.72-7.82-4.37-11.61-.84-1.9-1.72-3.77-2.74-5.57a19.9,19.9,0,0,0-3.67-4.95,3.46,3.46,0,0,0-2.75-1.06,6.17,6.17,0,0,1-1.51.36,2.24,2.24,0,0,1-1.43-.63,6.88,6.88,0,0,1-1.52-2.71,22.68,22.68,0,0,1-.74-3,68.49,68.49,0,0,1-.78-12.39s0,0,0,0a17.49,17.49,0,0,0,1-6.52,9.07,9.07,0,0,0-.7-3.21,6.53,6.53,0,0,0-2-2.57,10.44,10.44,0,0,0-6.26-1.76c-1.11,0-2.2.11-3.32.16a18.74,18.74,0,0,1-3.35-.11,17.09,17.09,0,0,1-6.3-2.15,20.79,20.79,0,0,1-5.11-4.28A32.7,32.7,0,0,1,68,93.17s0,0,0-.06L80.66,60.77v0a2.64,2.64,0,0,1,.78-.85,1.64,1.64,0,0,1,1.14-.27A3.14,3.14,0,0,1,84.4,61a16.25,16.25,0,0,1,2,4c.56,1.37.94,2.83,1.46,4.19A4.87,4.87,0,0,0,89,71a1,1,0,0,0,.91.29,1.83,1.83,0,0,0,.87-.54A12.65,12.65,0,0,0,93,66.9c.56-1.36,1-2.76,1.49-4.17.87-2.82,1.62-5.69,2.26-8.58l0,0a25.62,25.62,0,0,1,4.86-4.5,6.22,6.22,0,0,1,1.5-.76,1.91,1.91,0,0,1,1.69.12,2.54,2.54,0,0,1,.84,1.48c.08.26.16.52.25.77s.23.49.38.71a3.39,3.39,0,0,0,2.68,1.49,7.13,7.13,0,0,0,3.16-.57,5.93,5.93,0,0,0,2.25-2.25,3.92,3.92,0,0,0,.26-3.11,8.2,8.2,0,0,0-1.69-2.74,3.51,3.51,0,0,1-1-3.11,5.93,5.93,0,0,1,1.61-2.9A14.4,14.4,0,0,1,116,36.58a22.61,22.61,0,0,1,6-2.87,9.93,9.93,0,0,1,3.29-.51,3,3,0,0,1,.84.15,3.1,3.1,0,0,1,.75.38.7.7,0,0,0,.67.05.78.78,0,0,0,.28-.63,4.77,4.77,0,0,0-1.34-2.85A13.56,13.56,0,0,0,124,28.12a26.86,26.86,0,0,0-5.82-3,59.92,59.92,0,0,0-12.76-3.19c-4.35-.62-8.74-1-13.12-1.41-2.2-.19-4.39-.38-6.59-.49-1.09-.06-2.19-.11-3.28-.07a3.88,3.88,0,0,0-.79.1c-.23,0,.14.15.36.24a11.85,11.85,0,0,0,1.57.47h0a.11.11,0,0,1,.08.13.05.05,0,0,1,0,0,27.7,27.7,0,0,1-5.17,5.26A29.86,29.86,0,0,1,72.22,30a30.23,30.23,0,0,1-7,2.3,31.94,31.94,0,0,1-3.66.53c-1.22.12-2.46.08-3.69.13l.11-.12a28.49,28.49,0,0,1-.09,6.26,26.13,26.13,0,0,1-1.5,6.08,18.85,18.85,0,0,1-3.14,5.4l-1,1.19-1.18,1c-.2.17-.39.35-.6.51l-.65.44-1.3.87v-.18a14.9,14.9,0,0,1,4.8,6.58,18,18,0,0,1,1,8.09,28.75,28.75,0,0,1-2,7.94c-.58,1.24-1.13,2.49-1.75,3.71l-2,3.55v-.08a27,27,0,0,1,.69,3.88,20.64,20.64,0,0,1,.09,3.93,12,12,0,0,1-.84,3.84,7.35,7.35,0,0,1-2.39,3.12l0,0a16.9,16.9,0,0,0-3.34,1.56A9.73,9.73,0,0,0,39.94,103a4.32,4.32,0,0,0-.88,3.41,6,6,0,0,0,1.75,3.13,15.13,15.13,0,0,0,6.54,3.26,35.53,35.53,0,0,0,7.31,1.13h0a38,38,0,0,1,7.07-2.15,17.43,17.43,0,0,1,3.68-.32,5.86,5.86,0,0,1,3.52,1.1,3.39,3.39,0,0,1,1,1.55c.2.6.32,1.19.49,1.79.33,1.18.64,2.37.91,3.57a24.84,24.84,0,0,1,.69,7.34,12.61,12.61,0,0,1-2.69,6.8c-.39.48-.85.91-1.27,1.36l-1.44,1.17-.72.56a7.76,7.76,0,0,0-.65.63,2.17,2.17,0,0,0-.7,1.57,2,2,0,0,0,1.06,1.34,8,8,0,0,0,1.66.74,22.81,22.81,0,0,0,3.57.82,60.11,60.11,0,0,0,7.33.65l-.06,0L92,128.64a.09.09,0,0,1,.12,0,.08.08,0,0,1,0,.11L80.83,143.81h0A14.52,14.52,0,0,1,76,146.74a5.52,5.52,0,0,1-1.39.27,4.13,4.13,0,0,1-1.4-.25l-2.68-.82-10.71-3.31h0c-3,.18-6.06.23-9.09.12-.76,0-1.52-.08-2.27-.15a15.32,15.32,0,0,1-2.24-.45c-1.46-.4-2.89-.94-4.31-1.46a28.72,28.72,0,0,0-4.32-1.33,3.79,3.79,0,0,0-2.19.09,2.2,2.2,0,0,0-.81.74,1.7,1.7,0,0,1-1.06.48,5.23,5.23,0,0,1-2.25-.41,14.33,14.33,0,0,1-2.06-1,31.92,31.92,0,0,1-3.8-2.5.14.14,0,0,1,0-.06c-.06-1.18-.07-2.37,0-3.55a15,15,0,0,1,.5-3.52,2.42,2.42,0,0,1,1-1.5,1,1,0,0,1,.91,0c.27.1.55.31.77.2s.15-.49.12-.75a8.2,8.2,0,0,0-.18-.86c-.16-.57-.34-1.13-.51-1.7-.36-1.12-.71-2.26-1-3.42a6.55,6.55,0,0,1,0-3.54A28.47,28.47,0,0,0,30.58,112a60.77,60.77,0,0,1,3.21-6.34,8.18,8.18,0,0,1,1.09-1.41,2.32,2.32,0,0,1,.75-.51,1.26,1.26,0,0,1,.9,0,.94.94,0,0,0,.77-.22,3.58,3.58,0,0,0,.63-.6,10.4,10.4,0,0,0,1-1.44A49.24,49.24,0,0,0,42,95.13q1.35-3.27,2.52-6.62h0l.58-17c.18-2.82.58-5.62.93-8.43s.8-5.6,1.29-8.39,1.06-5.56,1.82-8.29a26.11,26.11,0,0,1,1.43-4,5.79,5.79,0,0,1,1.18-1.76c.11-.15.3-.21.44-.32s.17-.2.16-.4l0-1.06a34.57,34.57,0,0,1,.93-8.42,14.29,14.29,0,0,1,1.54-3.95,7.15,7.15,0,0,1,3-2.93h0a65.47,65.47,0,0,1,16.71-5.8,80.38,80.38,0,0,1,8.75-1.36l4.42-.34,4.44-.05h1.1l1.11.07,2.21.13a40.76,40.76,0,0,1,4.42.39l4.39.6c1.45.27,2.89.61,4.34.91l2.17.47c.72.13,1.42.4,2.13.6l4.25,1.27,1.06.32,1,.4,2.07.8,4.13,1.61h0a17.11,17.11,0,0,1,2.54,4,27.44,27.44,0,0,1,1.62,4.47,33.82,33.82,0,0,1,.92,4.67c.11.79.16,1.58.24,2.37l.1,2.38h0l3,11h0Z" transform="translate(-4.76 -8.77)"/><path d="M118.53,76.51a17.32,17.32,0,0,1-7.12,3.61,15.68,15.68,0,0,1-8-.11A8.62,8.62,0,0,1,100,78a8,8,0,0,1-2-3.48,9.27,9.27,0,0,1,1.47-7.73v0a13.77,13.77,0,0,1,2.6-4,9.48,9.48,0,0,1,4-2.6h0a6.39,6.39,0,0,1,3.6-.81,21.79,21.79,0,0,1,3.68.39,11.12,11.12,0,0,1,6.44,3.43,9.48,9.48,0,0,1,2.2,6.9A9.25,9.25,0,0,1,118.53,76.51Zm0,0a9.21,9.21,0,0,0,3.24-6.36,9.37,9.37,0,0,0-2.25-6.75A11.25,11.25,0,0,0,113.18,60a21.22,21.22,0,0,0-3.64-.39,6.09,6.09,0,0,0-3.48.77h0A9.13,9.13,0,0,0,102.16,63a13.63,13.63,0,0,0-2.58,3.91h0a9.16,9.16,0,0,0-1.48,7.58,7.75,7.75,0,0,0,2,3.42,8.61,8.61,0,0,0,3.4,2,15.59,15.59,0,0,0,7.94.16A17.38,17.38,0,0,0,118.52,76.49Z" transform="translate(-4.76 -8.77)"/><path d="M57,36.91a12.52,12.52,0,0,0,6.42-6" transform="translate(-4.76 -8.77)"/><path d="M57.37,38.35a14.05,14.05,0,0,0,7.32-6.72,1.5,1.5,0,1,0-2.59-1.51A12.58,12.58,0,0,1,61,32l-.09.12L61,32a.7.7,0,0,1-.15.19l-.35.42c-.24.27-.5.53-.76.78s-.54.49-.82.71.18-.13,0,0l-.2.15-.49.33c-.29.19-.59.37-.89.53l-.49.25-.27.13h0a1.67,1.67,0,0,0-.9.69,1.52,1.52,0,0,0-.15,1.16,1.5,1.5,0,0,0,1.84,1Z" transform="translate(-4.76 -8.77)"/><path d="M56.86,36.88A16,16,0,0,0,64.06,33a1.5,1.5,0,0,0,0-2.12,1.53,1.53,0,0,0-2.12,0c-.22.21-.45.41-.69.61l-.17.14c-.16.13.21-.16,0,0l-.35.26a13.24,13.24,0,0,1-1.57,1c-.25.14-.51.26-.78.38l-.19.09c-.19.09.25-.1.05,0l-.45.18a15.65,15.65,0,0,1-1.77.53A1.5,1.5,0,0,0,55,35.83a1.54,1.54,0,0,0,1.85,1.05Z" transform="translate(-4.76 -8.77)"/><path d="M63.23,30l-.87.29a1.54,1.54,0,0,0-.89.69,1.09,1.09,0,0,0-.18.55,1.11,1.11,0,0,0,0,.6l.16.36A1.52,1.52,0,0,0,62,33l.36.15a1.55,1.55,0,0,0,.8,0l.87-.29a1.26,1.26,0,0,0,.51-.27,1.18,1.18,0,0,0,.38-.42,1.12,1.12,0,0,0,.18-.56,1,1,0,0,0,0-.6l-.15-.35a1.45,1.45,0,0,0-.53-.54L64,30a1.36,1.36,0,0,0-.8,0Z" transform="translate(-4.76 -8.77)"/><path d="M60.45,30.56l-2.9,3a1.52,1.52,0,0,0-.12,2,1.49,1.49,0,0,0,1.94.39l4-2.6a1.54,1.54,0,0,0,.54-2.06,1.51,1.51,0,0,0-2-.53l-3.42,2.11,2.06,2,1.57-3A1.5,1.5,0,0,0,60,29.83l-2.68,2,1.81,2.35,1.46-1.29-2.12-2.12L57,32.19,59.38,34l1-2-2.8-.75c0,.05,0,.11,0,.17l0-.22a1.59,1.59,0,0,0-.06.3,4.25,4.25,0,0,1-.14.51,1.25,1.25,0,0,0-.1.29l.08-.19-.07.16a4.31,4.31,0,0,1-.26.47c-.09.15-.2.29-.29.44.22-.35.08-.11,0,0l-.18.2c-.12.12-.25.25-.38.36l-.14.11.13-.1-.26.18L58,36l2.49-3.56L57.88,30.9l-1.3,2.92a1.56,1.56,0,0,0,.12,1.67,1.48,1.48,0,0,0,1.57.54l2.24-.75a1.5,1.5,0,0,0,0-2.89,3.49,3.49,0,0,0-4,2.32,1.51,1.51,0,0,0,.87,1.77,1.54,1.54,0,0,0,1.88-.62l1.39-2.12a1.51,1.51,0,0,0-.54-2.05,1.54,1.54,0,0,0-1.15-.15,1.76,1.76,0,0,0-.9.69l-1.56,2.06L59,35.8l.61-1.33a1.61,1.61,0,0,0,.15-1.16A1.5,1.5,0,0,0,57.06,33l-.61,1.34a1.67,1.67,0,0,0-.15,1.16,1.57,1.57,0,0,0,.69.89,1.47,1.47,0,0,0,1.16.15A1.73,1.73,0,0,0,59,35.8l1.56-2.06L58,32.23l-1.39,2.12,2.74,1.15c.08-.24-.19.34,0,0l.08-.13-.13.18a1.2,1.2,0,0,0,.22-.23c-.2.15-.24.18-.11.1l.1-.07.1-.05c.15-.07.1,0-.13.05a1.25,1.25,0,0,0,.26-.07c.12,0,.05,0-.2,0h.16c.4,0-.26-.06,0,0V32.39l-2.23.74,1.69,2.21,1.3-2.93a1.59,1.59,0,0,0,.15-1.15,1.5,1.5,0,0,0-2.74-.36l-2.49,3.55a1.5,1.5,0,0,0,.23,1.82,1.53,1.53,0,0,0,1.82.24,6.86,6.86,0,0,0,3.12-5.24,1.5,1.5,0,0,0-1.1-1.45,1.52,1.52,0,0,0-1.69.69l-1,2a1.52,1.52,0,0,0,.38,1.94,1.5,1.5,0,0,0,2-.12l1.42-1.45a1.51,1.51,0,0,0,0-2.12,1.53,1.53,0,0,0-2.12,0L57,32a1.51,1.51,0,0,0,1.82,2.36l2.68-2-2-2.05-1.57,3a1.5,1.5,0,0,0,2,2l3.41-2.11-1.51-2.59-4,2.6,1.82,2.36,2.9-3a1.5,1.5,0,1,0-2.12-2.12Z" transform="translate(-4.76 -8.77)"/><path d="M65.4,30.29a9,9,0,0,0-9.67,4,1.51,1.51,0,0,0,2.36,1.82l2.4-3-2.36-1.81-1.48,2.78,2.59,1.52L60,33.87l-2.74-1.15L53,43.67a1.51,1.51,0,0,0,1.05,1.85,1.53,1.53,0,0,0,1.84-1.05l4.27-11c.61-1.57-2-2.7-2.74-1.15l-.78,1.71a1.55,1.55,0,0,0,.54,2.06,1.52,1.52,0,0,0,2.05-.54l1.48-2.79a1.51,1.51,0,0,0-.38-1.94,1.49,1.49,0,0,0-2,.12L56,34l2.35,1.81A5.9,5.9,0,0,1,61,33.53a5.72,5.72,0,0,1,3.64-.35c1.88.45,2.68-2.44.8-2.89Z" transform="translate(-4.76 -8.77)"/><path d="M57.23,33.66,57,35a1.08,1.08,0,0,0,0,.59,1.11,1.11,0,0,0,.17.56l.24.31a1.17,1.17,0,0,0,.48.31.83.83,0,0,0,.38.1,1.22,1.22,0,0,0,.6,0,1.57,1.57,0,0,0,.89-.69l1.4-2.25a1.56,1.56,0,0,0,.15-1.16,1.53,1.53,0,0,0-.69-.89,1.47,1.47,0,0,0-1.16-.15,1.56,1.56,0,0,0-.89.69l-1.4,2.25,2.75,1.15.19-1.35a1.11,1.11,0,0,0,0-.6A1,1,0,0,0,60,33.3a1.55,1.55,0,0,0-.9-.69,1.57,1.57,0,0,0-1.16.15l-.3.24a1.47,1.47,0,0,0-.38.66Z" transform="translate(-4.76 -8.77)"/><path d="M53.86,59.48c-1.1-1.68-2.43-3.6-2.44-5.6a3.91,3.91,0,0,1,.51-2c0-.08.1-.16.15-.25l.08-.12c-.08.09-.08.1,0,0a5.08,5.08,0,0,1,.39-.41c.11-.11-.13.07.09-.07s.16-.11.24-.15.36-.17.21-.11.24-.07.23-.07a1.5,1.5,0,1,0-.8-2.89,6.08,6.08,0,0,0-4.08,5.63c-.2,2.78,1.39,5.34,2.84,7.56a1.54,1.54,0,0,0,2.06.54,1.51,1.51,0,0,0,.53-2.05Z" transform="translate(-4.76 -8.77)"/><path d="M47.38,53.41l0,.33a1.5,1.5,0,0,0,1.5,1.5,1.54,1.54,0,0,0,1.5-1.5l.08-.71h-3l.23,2.61a1.5,1.5,0,0,0,3,0l.16-3a1.5,1.5,0,1,0-3,0L46.61,64.7a1.51,1.51,0,0,0,1.5,1.5,1.53,1.53,0,0,0,1.5-1.5l1.22-12.08h-3l-.16,3h3L50.44,53a1.5,1.5,0,0,0-3,0l-.08.71h3l0-.33a1.51,1.51,0,0,0-1.5-1.5,1.53,1.53,0,0,0-1.5,1.5Z" transform="translate(-4.76 -8.77)"/><path d="M48.51,52.75l-1.07,6.62a1.61,1.61,0,0,0,.15,1.16,1.5,1.5,0,0,0,2.74-.36l1.07-6.62a1.59,1.59,0,0,0-.15-1.15,1.53,1.53,0,0,0-.89-.69,1.51,1.51,0,0,0-1.85,1Z" transform="translate(-4.76 -8.77)"/><path d="M47.15,81.35,45.7,85.69a1.5,1.5,0,1,0,2.89.8L50,82.15a1.51,1.51,0,0,0-1-1.84,1.53,1.53,0,0,0-1.84,1Z" transform="translate(-4.76 -8.77)"/><path d="M47.09,82.62l-.28,6.07a1.5,1.5,0,0,0,1.5,1.5,1.52,1.52,0,0,0,1.5-1.5l.28-6.07a1.51,1.51,0,0,0-1.5-1.5,1.54,1.54,0,0,0-1.5,1.5Z" transform="translate(-4.76 -8.77)"/><path d="M110.55,61.69A10.06,10.06,0,0,0,107,64.24a121,121,0,0,0-8.23,9l11.3-7.7a.59.59,0,0,1,.07-.26.38.38,0,0,1,0-.1l.05-.1h0a.78.78,0,0,1,0-.16v0a.61.61,0,0,1,.07-.17s0,0,0,0a1.34,1.34,0,0,1,.11-.14l.15-.12h0l.15-.06.08,0,.22,0a.45.45,0,0,1,.25.07h0a.11.11,0,0,1,.08,0,.5.5,0,0,1,.27,0l2.8-1.91A3.62,3.62,0,0,0,110.55,61.69Z" transform="translate(-4.76 -8.77)"/><path d="M101.48,70.82a10.64,10.64,0,0,0,10,2.22,1.5,1.5,0,0,0,1-1.84,1.52,1.52,0,0,0-1.84-1,9.09,9.09,0,0,1-1,.25l-.26,0c.15,0,.16,0,0,0l-.52,0a9.33,9.33,0,0,1-1.06,0l-.26,0c-.15,0-.13,0,0,0l-.59-.11a8.89,8.89,0,0,1-1-.28l-.5-.18c-.21-.09.2.1,0,0l-.24-.11a10.19,10.19,0,0,1-.91-.52l-.44-.3c-.18-.13.16.14,0,0l-.25-.21a1.5,1.5,0,1,0-2.13,2.12Z" transform="translate(-4.76 -8.77)"/><path d="M116.59,69.79a9.39,9.39,0,0,0-1.17-8.07,1.53,1.53,0,0,0-2.06-.53,1.51,1.51,0,0,0-.53,2.05,6.39,6.39,0,0,1,.46.76c.07.13.14.26.2.39s.07.14,0,0l.08.21c.09.24.17.49.24.74a2.7,2.7,0,0,1,.18.87c0-.21,0-.24,0-.06a1.8,1.8,0,0,0,0,.22c0,.14,0,.29,0,.44s0,.52,0,.78c0,.09,0,.59,0,.16a3.25,3.25,0,0,1-.08.43,6.56,6.56,0,0,1-.23.87,1.52,1.52,0,0,0,1,1.84,1.54,1.54,0,0,0,1.85-1Z" transform="translate(-4.76 -8.77)"/><path d="M114.47,63,112,64.6a.47.47,0,0,1,.09.28.77.77,0,0,1,0,.15.22.22,0,0,1,0,.08,1.7,1.7,0,0,1,0,.22s0,0,0,0a.69.69,0,0,1-.07.15.22.22,0,0,1,0,.08l0,.19a.52.52,0,0,1-.23.3.54.54,0,0,1-.25.06.46.46,0,0,1-.27.08h0a.26.26,0,0,1-.1,0,.53.53,0,0,1-.28,0l-.12-.06-.1-.07-.08-.11s0,0,0,0h0a.49.49,0,0,1-.21-.26l-6.44,4a20.35,20.35,0,0,0,5.48.61,7,7,0,0,0,4.9-2.24A4.3,4.3,0,0,0,114.47,63Z" transform="translate(-4.76 -8.77)"/><path d="M113.71,61.73l-2.51,1.58a1.53,1.53,0,0,0-.53,2c-.11-.36-.16-.45-.13-.25a.52.52,0,0,1,.09-.34s-.23.61-.29.74l.39-.66c-.11.13-.11.13,0,0l.76-.2c-.24,0-.73,0-.89.22.52-.13.6-.17.25-.11a.6.6,0,0,0-.3.07l1,.25c.22.27.19.23-.09-.13h0c-.41-.33-.4-.32,0,0a1.52,1.52,0,0,0-2.06-.53l-6.43,4a1.52,1.52,0,0,0,.35,2.74c3.35.7,7.06,1.29,10.15-.6a6.58,6.58,0,0,0,3-3.75,5.49,5.49,0,0,0-.64-4.6,1.56,1.56,0,0,0-2.06-.54,1.52,1.52,0,0,0-.53,2.06c.09.13.17.26.25.39l.07.14c0-.1,0-.1,0,0s.07.25.11.37c.11.36,0-.16,0,.22a4.07,4.07,0,0,1,0,.78c0-.25-.06.23-.06.23s-.08.25-.12.38,0,.1,0,0l-.07.15a4.36,4.36,0,0,1-.23.42,1.93,1.93,0,0,1-.35.46,4.34,4.34,0,0,1-1.3.94,7.25,7.25,0,0,1-3.13.64,22,22,0,0,1-4.27-.59l.36,2.74,6.44-4-2.05-.54a1.84,1.84,0,0,0,.35.49l.3.23-.42-.43s.33.41.41.49a1.92,1.92,0,0,0,.55.33c.29.13.94.32,1.24.11.15,0,.09,0-.19,0l.4-.06a3,3,0,0,0,.63-.22l-.76.2a2.28,2.28,0,0,0,1.41-.58,2.09,2.09,0,0,0,.39-.59c0-.1.09-.2.13-.29-.08.12-.09.13,0,0a4.26,4.26,0,0,0,.29-1.1,2.35,2.35,0,0,0-.28-1.27l-.54,2.06,2.51-1.58a1.5,1.5,0,1,0-1.52-2.59Z" transform="translate(-4.76 -8.77)"/><path d="M109.24,64.41l-5.63,3.83a1.5,1.5,0,0,0,1.51,2.59L110.76,67a1.5,1.5,0,0,0-1.52-2.59Z" transform="translate(-4.76 -8.77)"/><path d="M113.5,61.52l-2.07,1.41a1,1,0,0,0-.42.39,1,1,0,0,0-.27.51,1.19,1.19,0,0,0,0,.59,1.12,1.12,0,0,0,.18.56,1.52,1.52,0,0,0,.9.69,1.45,1.45,0,0,0,1.15-.15l2.07-1.4a1.13,1.13,0,0,0,.42-.39,1.26,1.26,0,0,0,.27-.51,1.22,1.22,0,0,0,0-.6,1.16,1.16,0,0,0-.18-.56,1.5,1.5,0,0,0-2-.54Z" transform="translate(-4.76 -8.77)"/><path d="M134.24,52.72a86.19,86.19,0,0,1,30.37-5.26c4.14,0,8.38.39,12.13,2.13s7,5.06,7.64,9.15c.89,5.57-3.07,10.77-7.44,14.34a46.86,46.86,0,0,1-41.62,8.67" transform="translate(-4.76 -8.77)"/><path d="M134.64,54.16a85.4,85.4,0,0,1,24.1-5c7.08-.43,16.07-.83,21.43,4.69a9.28,9.28,0,0,1,2.57,8.72c-.84,3.43-3.23,6.29-5.81,8.59a43.27,43.27,0,0,1-18.24,9.41,45.16,45.16,0,0,1-23-.22,1.5,1.5,0,0,0-.8,2.89,48.44,48.44,0,0,0,43.08-9c5.66-4.65,10.52-12.3,6.48-19.55S171.49,46,163.91,46a88.12,88.12,0,0,0-30.07,5.32c-1.8.65-1,3.55.8,2.89Z" transform="translate(-4.76 -8.77)"/><path d="M134.73,52a87.09,87.09,0,0,0-2.46,15.2,29.14,29.14,0,0,0,3,15" transform="translate(-4.76 -8.77)"/><path d="M133.28,51.57c-2.29,10.3-4.48,21.46.65,31.3.89,1.72,3.48.2,2.59-1.51-4.72-9-2.45-19.56-.35-29,.42-1.88-2.47-2.68-2.89-.79Z" transform="translate(-4.76 -8.77)"/><path d="M50.06,44.72c-2.91,3.06-7.49,3.85-11.7,3.71S30,47.37,25.74,47.7A21.91,21.91,0,0,0,7.14,62.24C5.47,67.21,6,73.36,10,76.81c3.33,2.89,8.16,3.18,12.58,3,8-.41,16.6-2.45,21.65-8.67,5.48-6.75,5.24-16.33,4.72-25" transform="translate(-4.76 -8.77)"/><path d="M49,43.66c-3.34,3.37-8.4,3.5-12.83,3.13-5.08-.42-10.1-1.23-15.08.27C13.26,49.42,6.42,56.25,5,64.47c-.69,4-.17,8.48,2.39,11.82,2.76,3.58,7.2,4.82,11.54,5,8.32.35,18-1.38,24.36-7.13C51.14,67.09,51,55.76,50.4,46.08c-.11-1.92-3.11-1.94-3,0,.47,7.86,1,17-4,23.64-4.81,6.37-13.49,8.19-21,8.55-3.91.19-8.55.08-11.59-2.76C8,72.94,7.34,68.84,7.93,65.26c1.23-7.46,7.45-13.6,14.65-15.5,9.3-2.46,20.75,3.88,28.54-4A1.5,1.5,0,0,0,49,43.66Z" transform="translate(-4.76 -8.77)"/><path d="M36.14,142.09a170.87,170.87,0,0,0,47.73,5.74,25.36,25.36,0,0,1,8.07.63c3.44,1.06,6.22,3.65,8.39,6.53a32.64,32.64,0,0,1,5.37,27.6c-2.78-8.49-11-13.76-18.69-18.33L73.3,156.09c-4.29-2.56-8.73-5.17-13.68-5.88-4.76-.68-9.62.47-14.4-.07s-9.95-3.75-10-8.56" transform="translate(-4.76 -8.77)"/><path d="M35.74,143.54A174.43,174.43,0,0,0,75,149.29c3.27.1,6.55.09,9.82,0,3-.06,6.07,0,8.79,1.46,4.75,2.62,8,8,9.79,12.94a31.42,31.42,0,0,1,.91,18.48h2.89c-3.53-10.44-13.93-16-22.81-21.27-5.43-3.23-10.78-6.83-16.48-9.57a27.24,27.24,0,0,0-8.71-2.7,67,67,0,0,0-9.61.12c-3,.09-6.06-.09-8.78-1.58-2.13-1.18-4-3.06-4.08-5.61-.09-1.92-3.09-1.93-3,0,.21,4.92,4.36,8.24,8.8,9.53,6.1,1.78,12.54-.57,18.68.92s11.45,5.39,16.74,8.55c5.13,3.06,10.41,6,15.31,9.39,4.71,3.3,9.16,7.43,11.05,13a1.51,1.51,0,0,0,2.89,0c2.87-11.09-.06-24.47-8.72-32.35a15.66,15.66,0,0,0-7.84-4c-3.25-.55-6.58-.24-9.86-.23a172.35,172.35,0,0,1-20.93-1.22,172.08,172.08,0,0,1-23.26-4.5,1.5,1.5,0,0,0-.8,2.89Z" transform="translate(-4.76 -8.77)"/></svg>