<svg xmlns="http://www.w3.org/2000/svg" viewBox="0 0 1735.22 1130.5"><defs><style>.cls-1,.cls-3{fill:#fff;}.cls-2{fill:#393d40;}.cls-3,.cls-6{stroke:#fff;}.cls-3,.cls-4,.cls-5,.cls-6{stroke-miterlimit:10;}.cls-4,.cls-5,.cls-6{fill:none;stroke-linecap:round;stroke-width:12px;}.cls-4{stroke:#4edba7;}.cls-5{stroke:aqua;}</style></defs><title>fondo</title><g id="Capa_4" data-name="Capa 4"><polygon class="cls-1" points="558.61 1129 1040.5 823.8 1300.18 976.4 1372.47 938.92 1735.22 1129 1387.19 1129 1426.01 1055.38 1360.42 1088.84 1407.27 1023.25 1333.65 1035.3 1376.48 976.4 1147.59 1129 1044.52 1129 1087.35 1051.36 968.22 1086.16 1021.76 1012.54 994.99 976.4 1029.79 896.09 663.02 1129 558.61 1129"/></g><g id="Capa_3" data-name="Capa 3"><polygon class="cls-2" points="79.72 1130 620.72 1130 649.72 1075 612.72 1016 399.72 1073 353.72 956 79.72 1130"/></g><g id="Capa_2" data-name="Capa 2"><polygon class="cls-3" points="1.72 1130 361.72 902 555.72 1016 609.72 988 880.72 1130 620.72 1130 649.72 1075 600.72 1100 635.72 1051 580.72 1060 612.72 1016 441.72 1130 364.72 1130 396.72 1072 307.72 1098 347.72 1043 327.72 1016 353.72 956 79.72 1130 1.72 1130"/></g><g id="Capa_5" data-name="Capa 5"><line class="cls-4" x1="639.72" y1="6" x2="924.72" y2="6"/><line class="cls-5" x1="684.4" y1="52.22" x2="872.22" y2="52.22"/><line class="cls-6" x1="728.99" y1="94.22" x2="823.22" y2="94.5"/></g></svg>