<svg xmlns="http://www.w3.org/2000/svg" viewBox="0 0 890.55 846.42"><defs><style>.cls-1{stroke:#000;stroke-miterlimit:10;stroke-width:4px;}.cls-2{fill:#fff;}</style></defs><title>Vaca</title><g id="Cuernos"><path class="cls-1" d="M616.5,92.5s82,63,184,48c0,0-35,31-27,83C773.5,223.5,649.5,219.5,616.5,92.5Z" transform="translate(-541.42 -87.37)"/><path class="cls-1" d="M1326,99s-82,63-184,48c0,0,35,31,27,83C1169,230,1293,226,1326,99Z" transform="translate(-541.42 -87.37)"/></g><g id="Capa_3" data-name="Capa 3"><path d="M1184,516V285l-15-55c-1-63-27-89-27-89-195-85-342,0-342,0-29.11,13.14-27.36,74.77-27,82.26a1,1,0,0,1-.59,1C750.73,233.75,737,376,737,376l-3,88s-28,82-41,76-31,55-44,68,17,62,2,54-12,42-12,42,37,29,46,16,45,11,70,13,55,0,55,0,54,16,68,21,36-15,36-15l56-75-69,69s-100-2-58-32,25-77,17-108-76-2-76-2-62-2-76-31,33-44,33-44c27-19,12-73,12-73,66-104,0-148,0-148,57-33,47-108,47-108,86,2,128-60,128-60s-55-13,88,2,141,73,126,62-93,27-68,54-4,42-4,42-27,12-33-13-43,19-43,19-28,131-47,69-33-36-33-36L851,487s27,98,109,90,52,70,52,70-3,105,27,92,70,115,70,115c-9-72,44-111,44-111C1205,670,1184,516,1184,516Zm-82-111.89a85,85,0,0,1-43.24,19.34c-20.75,2.79-45.12-1-55.81-21.58-7.81-15-5-32.65,4.31-45.9a68.08,68.08,0,0,1,15.14-21.88,45.52,45.52,0,0,1,17.26-10.5,29.89,29.89,0,0,1,14.65-4c22.64.05,48.16,5.8,59.21,28.1C1123.11,367.14,1118.79,390,1102,404.11Z" transform="translate(-541.42 -87.37)"/><path d="M1184,516V285h0l-15-55h0c-.17-3.94-.3-7.89-.51-11.83l-.54-5.9c-.21-2-.31-3.94-.64-5.88-.6-3.9-1-7.83-1.91-11.69-.4-1.93-.74-3.88-1.2-5.8l-1.46-5.73a138.93,138.93,0,0,0-8.08-22.23,102.36,102.36,0,0,0-5.63-10.41,62.24,62.24,0,0,0-7-9.51h0a473.48,473.48,0,0,0-83.74-27.48c-3.57-.9-7.2-1.54-10.8-2.25s-7.21-1.46-10.84-2c-7.28-1.09-14.53-2.37-21.85-3.09l-5.48-.64-2.74-.32-2.75-.22-11-.86c-1.83-.17-3.67-.2-5.51-.29l-5.51-.23-5.51-.23-5.52,0-5.51,0c-1.84,0-3.68,0-5.52,0l-11,.32c-7.34.42-14.69.83-22,1.62a397.86,397.86,0,0,0-43.58,6.77,378.91,378.91,0,0,0-42.53,11.69C826.68,128.58,813,134,800,141h0a29.81,29.81,0,0,0-8.57,6.05,41.88,41.88,0,0,0-6.37,8.37,77.5,77.5,0,0,0-7.62,19.61,143.72,143.72,0,0,0-3.55,20.8,200.49,200.49,0,0,0-1,21.08q0,2.64.09,5.28a8.43,8.43,0,0,1,0,1.33,1,1,0,0,1-.36.58,4.79,4.79,0,0,1-.58.33,6.05,6.05,0,0,0-1.11.69l-.53.39-.48.44a29.64,29.64,0,0,0-5.82,8.73A126.46,126.46,0,0,0,757,254.58c-3.78,13.57-6.56,27.39-9,41.25s-4.54,27.79-6.4,41.75q-1.41,10.47-2.62,21L737.78,369c-.36,3.5-.83,7-.85,10.52L734.06,464v0q-5.8,16.69-12.56,33c-2.26,5.44-4.61,10.84-7.13,16.17a167.49,167.49,0,0,1-8.26,15.62A56.53,56.53,0,0,1,701,536a19.66,19.66,0,0,1-3.21,3,5.4,5.4,0,0,1-4.17,1.2,8.56,8.56,0,0,0-2.11-.6,4.56,4.56,0,0,0-2.13.32,10.93,10.93,0,0,0-3.59,2.47,39.6,39.6,0,0,0-5.39,7A162.31,162.31,0,0,0,672,565c-2.58,5.3-5,10.65-7.54,16s-5,10.66-7.83,15.85a80.65,80.65,0,0,1-4.56,7.56,28.74,28.74,0,0,1-2.78,3.45,10.4,10.4,0,0,0-2.41,3.62,20.71,20.71,0,0,0-1.13,8.67,56.11,56.11,0,0,0,1.23,8.73c1.23,5.75,3,11.38,4.76,17,.88,2.81,1.77,5.62,2.54,8.46a39.59,39.59,0,0,1,1,4.32,11,11,0,0,1,.13,2.22,2.23,2.23,0,0,1-.93,2,2.89,2.89,0,0,1-2.2-.13c-.7-.26-1.34-.64-2-.93a4.89,4.89,0,0,0-4.21,0,7.46,7.46,0,0,0-2.94,3.15,21.26,21.26,0,0,0-1.65,4.08A77,77,0,0,0,639,686.34c-.26,5.88-.23,11.78.07,17.66l0,0a158.2,158.2,0,0,0,18.85,12.44,78.54,78.54,0,0,0,10.21,4.81c3.52,1.28,7.24,2.33,11,2a8,8,0,0,0,5-2.26c.61-.7,1.2-1.44,1.82-2.16.37-.3.72-.62,1.1-.9s.82-.5,1.24-.71a13.19,13.19,0,0,1,5.54-1.07,29.52,29.52,0,0,1,5.63.55,82.68,82.68,0,0,1,10.93,2.92c3.58,1.18,7.12,2.46,10.66,3.76,7.08,2.58,14.15,5.23,21.42,7.22a73.18,73.18,0,0,0,11.06,2.22c3.75.38,7.52.56,11.28.74,15.07.58,30.16.29,45.2-.59h0c17.84,5.31,35.67,10.65,53.43,16.22,4.44,1.4,8.87,2.81,13.27,4.33a22,22,0,0,0,3.34,1,16,16,0,0,0,3.45.26,25.61,25.61,0,0,0,6.82-1.28,54.76,54.76,0,0,0,12.48-6.12A92.59,92.59,0,0,0,914,738.94h0l56-75,.13.11-69,69a.09.09,0,0,1-.06,0,298.5,298.5,0,0,1-36.57-3.23,116.52,116.52,0,0,1-17.89-4.11c-1.45-.48-2.89-1-4.3-1.63a30.3,30.3,0,0,1-4.08-2.11,15.85,15.85,0,0,1-3.55-2.92,7.54,7.54,0,0,1-2-4.13,8.19,8.19,0,0,1,.93-4.48,16.48,16.48,0,0,1,2.65-3.76,43.61,43.61,0,0,1,7-6,68.8,68.8,0,0,0,13.38-12.46,59.53,59.53,0,0,0,9.22-15.76,67.27,67.27,0,0,0,4-17.83,96.58,96.58,0,0,0-.3-18.31,162.43,162.43,0,0,0-3.11-18.07c-1.35-6-2.92-11.88-4.52-17.79l-1.2-4.43c-.39-1.48-.75-3-1.2-4.43a16.59,16.59,0,0,0-5-7.48,21.44,21.44,0,0,0-8.1-4.07,40.08,40.08,0,0,0-9-1.29,85.25,85.25,0,0,0-18.23,1.63,163,163,0,0,0-17.79,4.47c-5.84,1.8-11.62,3.83-17.27,6.17h0a183.46,183.46,0,0,1-18.43-1.87,167.47,167.47,0,0,1-18.13-3.73A105.78,105.78,0,0,1,730,579.3c-1.41-.62-2.76-1.37-4.14-2.07l-2-1.16c-.67-.38-1.33-.79-2-1.22a46.3,46.3,0,0,1-7.27-5.73,32.44,32.44,0,0,1-5.71-7.28,26.09,26.09,0,0,1-3.23-8.65,20.77,20.77,0,0,1,.4-9.21,25.12,25.12,0,0,1,4.14-8.25,48.87,48.87,0,0,1,14-12A87.63,87.63,0,0,1,741,515.9l0,0a34.35,34.35,0,0,0,11.72-15.23,61.63,61.63,0,0,0,4.15-19,110.23,110.23,0,0,0-.47-19.48A135.48,135.48,0,0,0,752.9,443a.11.11,0,0,1,0-.08,233.09,233.09,0,0,0,18.88-36.07l1.8-4.76.89-2.39.45-1.19.38-1.21c1-3.25,2.14-6.45,2.9-9.77a118.14,118.14,0,0,0,3.57-20,89.45,89.45,0,0,0-5.09-40.05,75.89,75.89,0,0,0-9.63-17.86,70.56,70.56,0,0,0-6.5-7.82,54.55,54.55,0,0,0-7.62-6.72.1.1,0,0,1,0-.15l0,0,3.29-2.06,1.65-1c.55-.35,1.06-.75,1.59-1.12l3.15-2.27c1-.8,2-1.64,3-2.46l1.5-1.24c.48-.43.94-.89,1.42-1.33l2.82-2.67c1.75-1.91,3.6-3.73,5.19-5.78s3.19-4.08,4.72-6.17c.73-1.06,1.41-2.17,2.12-3.25s1.37-2.2,2-3.33c1.34-2.23,2.46-4.56,3.63-6.88s2.15-4.72,3-7.15A124.44,124.44,0,0,0,799.46,218a138.79,138.79,0,0,0,.43-31,.11.11,0,0,1,.1-.12h0a169.59,169.59,0,0,0,36.46-3.15,155,155,0,0,0,34.74-11.46A156,156,0,0,0,902.3,153,153.61,153.61,0,0,0,916,140.82a118.46,118.46,0,0,0,11.94-13.88l.06.17a68.62,68.62,0,0,1-7.89-2.35,12.35,12.35,0,0,1-1.87-.9c-.27-.2-.63-.38-.71-.83a.58.58,0,0,1,.31-.51,1.83,1.83,0,0,1,.49-.23,17.74,17.74,0,0,1,4.09-.55c5.49-.21,11,.06,16.45.33,10.95.6,21.88,1.5,32.8,2.47s21.84,2,32.75,3.15,21.82,2.2,32.66,3.86,21.64,3.64,32.3,6.21a243.81,243.81,0,0,1,31.42,9.7,161.43,161.43,0,0,1,15,6.72,113,113,0,0,1,14.08,8.5,67.23,67.23,0,0,1,12.22,11,37.59,37.59,0,0,1,4.63,6.8,21.88,21.88,0,0,1,1.56,3.82,12.05,12.05,0,0,1,.57,4.09,4.4,4.4,0,0,1-1.76,3.66,4,4,0,0,1-4-.25c-.63-.31-1.17-.76-1.75-1.1-.28-.17-.6-.3-.9-.46l-1-.35a15.66,15.66,0,0,0-4-.67,36,36,0,0,0-8.15.61,66.23,66.23,0,0,0-8,1.93,104.67,104.67,0,0,0-15.26,6,110.87,110.87,0,0,0-14.22,8.2,73.22,73.22,0,0,0-12.5,10.6,38.53,38.53,0,0,0-4.92,6.53,22.64,22.64,0,0,0-3,7.59,15.45,15.45,0,0,0,.69,8,18.53,18.53,0,0,0,1.87,3.62,34,34,0,0,0,2.58,3.17,51.29,51.29,0,0,1,5,6.52,32.25,32.25,0,0,1,3.55,7.42,21.24,21.24,0,0,1,1,8.15,19.62,19.62,0,0,1-2.34,7.87A30.33,30.33,0,0,1,1070.3,287a36.59,36.59,0,0,1-7.88,2.41,31.91,31.91,0,0,1-8.22.54,24.53,24.53,0,0,1-4.07-.68,18.16,18.16,0,0,1-3.83-1.54,16.73,16.73,0,0,1-6-5.56,24,24,0,0,1-3.24-7.55,19.53,19.53,0,0,0-1.32-3.86,8.17,8.17,0,0,0-2.53-3.11,6.83,6.83,0,0,0-3.8-1.18,13,13,0,0,0-4,.66,31.27,31.27,0,0,0-7.3,3.68,92,92,0,0,0-12.69,10.38q-5.94,5.68-11.31,11.92l0-.05c-3.19,14.4-6.89,28.69-11.27,42.78-2.21,7-4.6,14-7.42,20.84a108.74,108.74,0,0,1-4.68,10,51.87,51.87,0,0,1-2.83,4.76,28.29,28.29,0,0,1-3.46,4.34,9.89,9.89,0,0,1-4.71,2.87,5.93,5.93,0,0,1-5.19-1.59,16.79,16.79,0,0,1-3.37-4.4,41.76,41.76,0,0,1-2.36-5c-.67-1.71-1.27-3.46-1.82-5.22l-1.68-5.27c-.57-1.75-1.19-3.49-1.78-5.23s-1.27-3.46-1.91-5.19c-1.37-3.42-2.75-6.84-4.41-10.12a58.29,58.29,0,0,0-5.69-9.44,23,23,0,0,0-3.76-4,10.1,10.1,0,0,0-4.85-2.37,6.64,6.64,0,0,0-2.7.11,8.08,8.08,0,0,0-2.46,1.13,12.43,12.43,0,0,0-3.67,4h0l-63,161V487a168.22,168.22,0,0,0,12.83,30.53,148.29,148.29,0,0,0,18.76,27.28l2.77,3.08,2.92,2.95c1,1,2,1.92,3,2.85s2,1.89,3.1,2.75l3.23,2.6c1,.9,2.23,1.63,3.34,2.46,2.2,1.67,4.61,3,7,4.51,1.19.7,2.43,1.31,3.65,2l1.83,1c.61.33,1.26.57,1.89.86l3.79,1.66c1.29.51,2.6.93,3.9,1.4a81.37,81.37,0,0,0,8,2.31,17.27,17.27,0,0,0,2,.43l2,.37,2,.37a17.79,17.79,0,0,0,2,.31l4.13.41,2.06.19,2.07,0,4.15.08a15.9,15.9,0,0,0,2.07-.05l2.07-.12c2.76-.16,5.52-.33,8.28-.53,1.38-.07,2.76-.24,4.14-.23l4.16,0c.69,0,1.38,0,2.07,0l2.07.15c1.38.1,2.77.15,4.15.31l4.1.61,1,.15,1,.24,2,.49a40.7,40.7,0,0,1,15,6.93,32.79,32.79,0,0,1,10.08,13c.58,1.26,1,2.59,1.47,3.89.33,1.34.76,2.66,1,4s.55,2.71.66,4.1l.24,2.06.12,2.07a69.83,69.83,0,0,1-.09,8.31c-.23,2.75-.52,5.51-1,8.24a94.75,94.75,0,0,1-4.16,16.06v0c-.21,10.31,0,20.62.54,30.92a259.77,259.77,0,0,0,3.31,30.73,109,109,0,0,0,3.67,15,50.35,50.35,0,0,0,2.95,7.12A22.75,22.75,0,0,0,1027,737a12.16,12.16,0,0,0,3.15,2.18,10,10,0,0,0,3.72.85,11.91,11.91,0,0,0,3.78-.6c.6-.22,1.19-.46,1.81-.67l.91-.33.95-.21a12.51,12.51,0,0,1,7.57,1,25.9,25.9,0,0,1,6.43,4.27,67,67,0,0,1,10.11,11.68,154.6,154.6,0,0,1,8.21,13.11c5.06,9,9.5,18.31,13.65,27.75,8.24,18.91,15.41,38.27,21.75,57.9l-.1,0a131.61,131.61,0,0,1-.13-31.11,121.12,121.12,0,0,1,7.74-30.12,126.59,126.59,0,0,1,6.69-14.07,128.59,128.59,0,0,1,8.4-13.12,126.74,126.74,0,0,1,9.91-12A99.58,99.58,0,0,1,1153,743h0a143.23,143.23,0,0,0,14.06-25.5l1.42-3.35.71-1.68c.23-.57.42-1.14.63-1.71l2.51-6.85c1.47-4.63,3-9.25,4.21-14a277.57,277.57,0,0,0,6.12-28.51c1.56-9.6,2.8-19.25,3.62-28.94a532.41,532.41,0,0,0,1.77-58.29q-.32-14.6-1.3-29.15C1186.05,535.34,1185.21,525.65,1184,516Zm0,0c1.23,9.65,2.07,19.34,2.74,29s1.1,19.42,1.31,29.15a532.32,532.32,0,0,1-1.76,58.29c-.82,9.7-2,19.35-3.62,28.95a274.38,274.38,0,0,1-6.12,28.51c-1.2,4.72-2.73,9.34-4.2,14l-2.51,6.85c-.21.57-.41,1.15-.63,1.71l-.71,1.68-1.42,3.36A143.31,143.31,0,0,1,1153,743h0a99.31,99.31,0,0,0-11.4,10.59,126.35,126.35,0,0,0-9.91,12,124.23,124.23,0,0,0-15.07,27.18,120.4,120.4,0,0,0-7.73,30.1,131.35,131.35,0,0,0,.14,31.08.07.07,0,0,1,0,.06.05.05,0,0,1-.06,0c-6.33-19.62-13.5-39-21.75-57.88-4.15-9.43-8.59-18.75-13.65-27.73a152.76,152.76,0,0,0-8.2-13.1,67.24,67.24,0,0,0-10.1-11.65,25.61,25.61,0,0,0-6.4-4.26,12.46,12.46,0,0,0-7.5-1l-.93.21-.91.32c-.6.21-1.21.45-1.81.68a12.41,12.41,0,0,1-3.82.61,10,10,0,0,1-3.77-.87,12.05,12.05,0,0,1-3.18-2.2,22.88,22.88,0,0,1-4.5-6.27,50,50,0,0,1-3-7.14,109.33,109.33,0,0,1-3.68-15,259.89,259.89,0,0,1-3.32-30.75c-.55-10.29-.75-20.61-.54-30.92v0a93.22,93.22,0,0,0,4.15-16c.49-2.72.78-5.47,1-8.23a69.3,69.3,0,0,0,.09-8.28l-.12-2.07-.24-2.06c-.11-1.37-.43-2.72-.66-4.08s-.69-2.68-1-4c-.49-1.29-.89-2.61-1.46-3.87a32.67,32.67,0,0,0-10-12.93,40.51,40.51,0,0,0-14.92-6.89l-2-.49-1-.24-1-.15-4.1-.61c-1.38-.15-2.76-.21-4.14-.31l-2.06-.14c-.69,0-1.39,0-2.08,0l-4.14,0c-1.38,0-2.76.16-4.14.23-2.76.2-5.52.37-8.28.53l-2.08.12a15.9,15.9,0,0,1-2.07,0l-4.15-.08-2.08,0-2.07-.19-4.13-.41a17.79,17.79,0,0,1-2-.31l-2.05-.37-2-.37a17.43,17.43,0,0,1-2-.43,80.81,80.81,0,0,1-8-2.32c-1.3-.47-2.63-.89-3.91-1.4l-3.81-1.66c-.63-.29-1.28-.53-1.89-.86l-1.84-1c-1.21-.66-2.46-1.26-3.65-2-2.35-1.47-4.76-2.84-7-4.52-1.11-.82-2.29-1.56-3.34-2.45l-3.23-2.62c-1.09-.85-2.07-1.84-3.11-2.75s-2.06-1.85-3-2.85l-2.92-3-2.78-3.09a148.67,148.67,0,0,1-18.79-27.31A169.33,169.33,0,0,1,850.9,487a.17.17,0,0,1,0-.07l63-161v0a12.7,12.7,0,0,1,3.74-4.08,8.18,8.18,0,0,1,2.53-1.16,6.74,6.74,0,0,1,2.79-.12,10.31,10.31,0,0,1,5,2.41,23.43,23.43,0,0,1,3.81,4,58.48,58.48,0,0,1,5.71,9.48c1.67,3.3,3,6.72,4.43,10.14.64,1.73,1.29,3.46,1.91,5.19s1.21,3.49,1.78,5.24l1.68,5.27c.55,1.76,1.15,3.5,1.82,5.21a41.22,41.22,0,0,0,2.34,5,17.2,17.2,0,0,0,3.32,4.34,5.71,5.71,0,0,0,5,1.53,9.75,9.75,0,0,0,4.59-2.81,27.84,27.84,0,0,0,3.42-4.3,52.46,52.46,0,0,0,2.83-4.74,109.63,109.63,0,0,0,4.66-10c2.81-6.81,5.21-13.79,7.41-20.82,4.38-14.08,8.08-28.37,11.27-42.76,0,0,0,0,0-.05q5.36-6.24,11.32-11.94A92.82,92.82,0,0,1,1018,270.57a31.48,31.48,0,0,1,7.35-3.7,13.16,13.16,0,0,1,4.08-.67,7,7,0,0,1,3.94,1.22,8.46,8.46,0,0,1,2.61,3.2,19.51,19.51,0,0,1,1.33,3.9,24.19,24.19,0,0,0,3.21,7.49,16.66,16.66,0,0,0,5.93,5.48,17.87,17.87,0,0,0,3.78,1.51,23.89,23.89,0,0,0,4,.68,31.41,31.41,0,0,0,8.15-.54,36.75,36.75,0,0,0,7.81-2.38,30,30,0,0,0,11.47-11.4,19.38,19.38,0,0,0,2.31-7.78,21,21,0,0,0-1-8.06,32.39,32.39,0,0,0-3.52-7.37,52.31,52.31,0,0,0-5-6.47,35,35,0,0,1-2.6-3.21,17.94,17.94,0,0,1-1.89-3.67,15.6,15.6,0,0,1-.7-8.15,23,23,0,0,1,3-7.67,39.19,39.19,0,0,1,5-6.57,72.7,72.7,0,0,1,12.53-10.63,110.18,110.18,0,0,1,14.25-8.22,106.05,106.05,0,0,1,15.31-6,68,68,0,0,1,8-1.93,37,37,0,0,1,8.21-.62,16.58,16.58,0,0,1,4.07.68l1,.37c.31.16.64.29.93.47.61.36,1.13.79,1.73,1.1a3.84,3.84,0,0,0,3.8.25,4.17,4.17,0,0,0,1.64-3.47,11.89,11.89,0,0,0-.55-4,21.45,21.45,0,0,0-1.55-3.78,37,37,0,0,0-4.6-6.76,67.41,67.41,0,0,0-12.17-11,112.59,112.59,0,0,0-14.06-8.48,158.23,158.23,0,0,0-15-6.71,243.88,243.88,0,0,0-31.39-9.7c-10.65-2.57-21.44-4.59-32.28-6.2s-21.75-2.75-32.66-3.87-21.82-2.17-32.74-3.15-21.85-1.86-32.79-2.46c-5.47-.27-11-.55-16.43-.33a16.93,16.93,0,0,0-4,.53c-.29.1-.67.27-.65.52s.35.48.62.65a10.3,10.3,0,0,0,1.83.88,68.31,68.31,0,0,0,7.86,2.34.11.11,0,0,1,.08.13.05.05,0,0,1,0,0,117.44,117.44,0,0,1-12,13.91,153.91,153.91,0,0,1-13.69,12.22,155.74,155.74,0,0,1-31.15,19.29A154.88,154.88,0,0,1,836.51,184,170.11,170.11,0,0,1,800,187.11l.11-.12a139.24,139.24,0,0,1-.43,31.08,125.44,125.44,0,0,1-7.4,30.18c-.9,2.44-2,4.79-3,7.17s-2.3,4.65-3.63,6.88c-.64,1.13-1.28,2.26-2,3.34s-1.39,2.19-2.13,3.26c-1.53,2.1-3,4.23-4.72,6.19s-3.46,3.88-5.21,5.79l-2.83,2.68c-.48.44-.94.9-1.42,1.33l-1.51,1.24c-1,.82-2,1.67-3,2.47l-3.16,2.27c-.53.38-1.05.77-1.59,1.13l-1.65,1-3.31,2.06v-.18a55.82,55.82,0,0,1,7.65,6.75,71.7,71.7,0,0,1,6.52,7.84,76.76,76.76,0,0,1,9.66,17.92,89.69,89.69,0,0,1,5.1,40.13,119.74,119.74,0,0,1-3.58,20.07c-.76,3.31-1.9,6.52-2.9,9.77l-.38,1.22-.45,1.19-.9,2.39L772,407a233.76,233.76,0,0,1-18.89,36.09V443a136.66,136.66,0,0,1,3.44,19.23,110.8,110.8,0,0,1,.47,19.53,61.46,61.46,0,0,1-4.17,19,34.53,34.53,0,0,1-11.78,15.32l0,0a87.12,87.12,0,0,0-16.73,7.79c-5.24,3.2-10.22,7-13.93,12a24.81,24.81,0,0,0-4.11,8.18,20.66,20.66,0,0,0-.4,9.12,26,26,0,0,0,3.21,8.59,32.09,32.09,0,0,0,5.68,7.24,45.31,45.31,0,0,0,7.24,5.7c.64.44,1.29.85,2,1.22l2,1.16c1.38.69,2.72,1.45,4.13,2.07a106.34,106.34,0,0,0,17.41,6.19A166.59,166.59,0,0,0,765.6,589,180.27,180.27,0,0,0,784,590.9h0c5.67-2.34,11.45-4.37,17.3-6.17a162.73,162.73,0,0,1,17.81-4.47,84.87,84.87,0,0,1,18.27-1.64,39.88,39.88,0,0,1,9.09,1.3A21.52,21.52,0,0,1,854.6,584a16.77,16.77,0,0,1,5.08,7.56c.46,1.48.82,3,1.21,4.44l1.19,4.43c1.6,5.91,3.18,11.83,4.53,17.8a162.77,162.77,0,0,1,3.11,18.09,97,97,0,0,1,.3,18.35A66.81,66.81,0,0,1,866,672.58a59.44,59.44,0,0,1-9.24,15.81,68.86,68.86,0,0,1-13.42,12.49,43.78,43.78,0,0,0-6.93,6,16.34,16.34,0,0,0-2.62,3.72,7.88,7.88,0,0,0-.91,4.38,7.28,7.28,0,0,0,1.9,4,15.51,15.51,0,0,0,3.51,2.89,28.36,28.36,0,0,0,4.06,2.1c1.4.61,2.84,1.14,4.29,1.62a115.59,115.59,0,0,0,17.86,4.1A294.3,294.3,0,0,0,901,732.91l-.06,0,69-69a.09.09,0,0,1,.13.11l-56,75h0a92.17,92.17,0,0,1-11.16,8.39,55,55,0,0,1-12.51,6.13,26.24,26.24,0,0,1-6.86,1.29,16.33,16.33,0,0,1-3.49-.26,21.6,21.6,0,0,1-3.36-1c-4.4-1.51-8.83-2.92-13.27-4.32-17.75-5.57-35.58-10.92-53.42-16.23h0c-15,.87-30.14,1.16-45.21.58-3.77-.18-7.54-.36-11.29-.74a72.37,72.37,0,0,1-11.09-2.23c-7.28-2-14.35-4.64-21.43-7.22-3.54-1.3-7.08-2.59-10.66-3.76a82.4,82.4,0,0,0-10.91-2.92,30,30,0,0,0-5.6-.54,13,13,0,0,0-5.48,1c-.42.21-.81.47-1.22.69s-.71.6-1.08.9c-.61.69-1.19,1.43-1.82,2.16a8.19,8.19,0,0,1-5.09,2.29c-3.8.34-7.54-.73-11.07-2a77.56,77.56,0,0,1-10.23-4.82A156.05,156.05,0,0,1,639,704.05a.05.05,0,0,1,0,0q-.45-8.82-.07-17.67a77.44,77.44,0,0,1,2.43-17.47,20.84,20.84,0,0,1,1.66-4.1,7.5,7.5,0,0,1,3-3.21,5.09,5.09,0,0,1,4.33,0c.68.3,1.31.68,2,.93a2.77,2.77,0,0,0,2.09.14,2.16,2.16,0,0,0,.86-1.85,10.75,10.75,0,0,0-.14-2.19,37.47,37.47,0,0,0-.94-4.3c-.76-2.85-1.66-5.65-2.54-8.46-1.76-5.62-3.53-11.25-4.76-17a56,56,0,0,1-1.23-8.75,21,21,0,0,1,1.13-8.72,10.57,10.57,0,0,1,2.45-3.66,30.56,30.56,0,0,0,2.76-3.44,80.05,80.05,0,0,0,4.56-7.55c2.8-5.18,5.32-10.5,7.82-15.83s5-10.69,7.55-16a160.43,160.43,0,0,1,8.4-15.54,39.38,39.38,0,0,1,5.41-7,11,11,0,0,1,3.63-2.5,4.82,4.82,0,0,1,2.19-.33,8.54,8.54,0,0,1,2.13.61,5.31,5.31,0,0,0,4.06-1.18,19.41,19.41,0,0,0,3.19-3,55.65,55.65,0,0,0,5.1-7.19,167.16,167.16,0,0,0,8.26-15.6c2.52-5.33,4.87-10.73,7.13-16.16q6.76-16.33,12.55-33v0l2.88-84.45c0-3.52.49-7,.85-10.52l1.18-10.5q1.21-10.5,2.62-21c1.86-14,3.95-27.89,6.41-41.76s5.26-27.69,9-41.26A128.49,128.49,0,0,1,764,234.67a29.66,29.66,0,0,1,5.84-8.75l.49-.45.53-.39a6.26,6.26,0,0,1,1.13-.7,4.3,4.3,0,0,0,.56-.32,1,1,0,0,0,.33-.52,11.31,11.31,0,0,0,0-1.3c-.06-1.76-.09-3.53-.09-5.29a203.55,203.55,0,0,1,1-21.09,143.88,143.88,0,0,1,3.56-20.81A77.35,77.35,0,0,1,785,155.41a42,42,0,0,1,6.39-8.38A29.58,29.58,0,0,1,800,141h0c12.94-7,26.67-12.47,40.56-17.29A379.66,379.66,0,0,1,883.08,112a398.42,398.42,0,0,1,43.59-6.77c7.32-.79,14.67-1.2,22-1.62l11-.31c1.84-.08,3.68-.06,5.52,0l5.51,0,5.52,0,5.51.23,5.52.23c1.83.08,3.67.12,5.51.29l11,.86,2.75.22,2.74.32,5.48.64c7.32.72,14.57,2,21.85,3.09,3.63.6,7.22,1.38,10.84,2s7.23,1.35,10.8,2.26A473.31,473.31,0,0,1,1142,141h0a62.88,62.88,0,0,1,7,9.52,103.44,103.44,0,0,1,5.63,10.41,138.77,138.77,0,0,1,8.08,22.24l1.47,5.74c.45,1.92.79,3.87,1.19,5.8.87,3.86,1.31,7.79,1.91,11.69.33,2,.43,3.92.64,5.89l.55,5.89c.2,4,.33,7.89.51,11.84h0l15,55h0Z" transform="translate(-541.42 -87.37)"/><path d="M1102,404.12A85.93,85.93,0,0,1,1066.51,422a76.81,76.81,0,0,1-9.87,1.69,93,93,0,0,1-10,.57,67.92,67.92,0,0,1-19.77-2.89l-2.36-.85-1.18-.42-1.14-.52-2.29-1c-.73-.39-1.45-.82-2.18-1.23a41.48,41.48,0,0,1-4.19-2.76c-.68-.48-1.28-1.08-1.92-1.61a19.83,19.83,0,0,1-1.85-1.69,34.77,34.77,0,0,1-3.29-3.79c-.49-.67-1-1.33-1.49-2l-1.28-2.16a36.31,36.31,0,0,1-3.88-9.22,42.56,42.56,0,0,1-1.49-9.9,45.79,45.79,0,0,1,.92-10,49.39,49.39,0,0,1,7.91-18.3h0a68.84,68.84,0,0,1,12.9-19.64,50.84,50.84,0,0,1,9-7.65,44.75,44.75,0,0,1,10.59-5.15h0a32.1,32.1,0,0,1,8.55-3.3,28,28,0,0,1,4.55-.63c1.54-.1,3.07,0,4.59,0a106.2,106.2,0,0,1,18.23,1.93,67.7,67.7,0,0,1,17.36,5.8,45.79,45.79,0,0,1,25.56,45.13A45.84,45.84,0,0,1,1102,404.12Zm0,0a45.76,45.76,0,0,0,16.34-31.69,45.57,45.57,0,0,0-25.55-44.89,67.16,67.16,0,0,0-17.3-5.8,105.62,105.62,0,0,0-18.18-1.93c-1.53,0-3.06-.1-4.57,0a27.62,27.62,0,0,0-4.52.63,31.64,31.64,0,0,0-8.49,3.27h0a45,45,0,0,0-10.55,5.13,50.29,50.29,0,0,0-8.93,7.61A68.7,68.7,0,0,0,1007.31,356h0a49.29,49.29,0,0,0-7.9,18.23,45.5,45.5,0,0,0-.93,9.94,43.29,43.29,0,0,0,1.47,9.87,36.08,36.08,0,0,0,3.87,9.19l1.27,2.15c.48.68,1,1.34,1.48,2a34.62,34.62,0,0,0,3.27,3.78,19.6,19.6,0,0,0,1.84,1.69c.64.53,1.24,1.12,1.92,1.61a41.11,41.11,0,0,0,4.17,2.75c.73.41,1.44.83,2.18,1.23l2.28,1,1.13.52,1.18.43,2.36.85a67.91,67.91,0,0,0,19.73,2.91,92.81,92.81,0,0,0,10-.56,76.75,76.75,0,0,0,9.87-1.67A86,86,0,0,0,1102,404.1Z" transform="translate(-541.42 -87.37)"/><path d="M795.53,207a62.21,62.21,0,0,0,32-30" transform="translate(-541.42 -87.37)"/><path d="M795.93,208.45a64,64,0,0,0,32.86-30.73c.84-1.73-1.74-3.25-2.59-1.51a61,61,0,0,1-31.07,29.35c-1.76.73-1,3.63.8,2.89Z" transform="translate(-541.42 -87.37)"/><path d="M793.36,201.11a72.9,72.9,0,0,0,33.23-17.73c1.42-1.32-.71-3.44-2.12-2.12a69.79,69.79,0,0,1-31.91,17c-1.88.44-1.09,3.33.8,2.9Z" transform="translate(-541.42 -87.37)"/><path d="M828.26,178.2l-4.32,1.44a1.64,1.64,0,0,0-.9.69,1.5,1.5,0,0,0,1.69,2.21l4.32-1.45a1.59,1.59,0,0,0,.9-.69,1.5,1.5,0,0,0-1.69-2.2Z" transform="translate(-541.42 -87.37)"/><path d="M817,179.62l-14.42,14.86c-1.15,1.19.35,3.32,1.82,2.36l19.67-13c1.6-1.05.14-3.61-1.51-2.59l-17,10.53,2.06,2L815.49,179c.64-1.21-.76-3-2-2l-13.35,9.77,1.82,2.36,7.27-6.44-2.12-2.12L800,187.73l2.35,1.82,4.88-9.88-2.79-.76a24.65,24.65,0,0,1-11.12,18.35l2.05,2.05,12.41-17.7-2.59-1.52-6.46,14.57c-.49,1.09.33,2.66,1.69,2.2l11.13-3.69c1.31-.44,1.54-2.57,0-2.9a11.18,11.18,0,0,0-12.8,7.36c-.55,1.68,1.84,2.53,2.74,1.16l7-10.55c1.08-1.65-1.46-3-2.59-1.52L798.08,197l2.59,1.52,3-6.66c.79-1.75-1.79-3.27-2.59-1.52l-3,6.66a1.5,1.5,0,0,0,2.59,1.52l7.77-10.26-2.59-1.52-7,10.55,2.74,1.16a8.09,8.09,0,0,1,9.11-5.26v-2.9L799.61,194l1.7,2.2,6.46-14.56a1.5,1.5,0,0,0-2.59-1.52L792.77,197.8c-.87,1.23.83,2.83,2.05,2a27.85,27.85,0,0,0,12.61-20.94,1.51,1.51,0,0,0-2.8-.75L799.75,188c-.72,1.47,1.11,3.1,2.36,1.82l7.07-7.23c1.36-1.39-.69-3.39-2.12-2.12l-7.27,6.44c-1.26,1.11.43,3.37,1.82,2.35L815,179.52l-2.05-2.06-7.83,14.88c-.67,1.28.72,2.88,2,2l17-10.53-1.51-2.59-19.68,13,1.82,2.35,14.43-14.86c1.34-1.39-.78-3.51-2.13-2.12Z" transform="translate(-541.42 -87.37)"/><path d="M835.89,179.8c-12.17-3-25.46.68-34.7,9.06a36,36,0,0,0-6.69,8.22c-.85,1.42,1.27,3.18,2.35,1.82l12-15.06L806.45,182l-7.4,13.89,2.59,1.51,3.9-8.54-2.74-1.16-21.27,54.55c-.7,1.8,2.2,2.58,2.9.8l21.26-54.55c.61-1.57-2-2.7-2.74-1.16l-3.9,8.55c-.79,1.72,1.66,3.25,2.59,1.51l7.4-13.88c.76-1.43-1.24-3.21-2.35-1.82l-12,15.05,2.36,1.82c7.55-12.72,23.64-19.47,38-15.9,1.87.47,2.67-2.43.79-2.89Z" transform="translate(-541.42 -87.37)"/><path d="M802.53,192.42l-1,6.75a1.53,1.53,0,0,0,.87,1.77,1.5,1.5,0,0,0,1.87-.61q3.48-5.61,7-11.21a1.51,1.51,0,1,0-2.6-1.52q-3.46,5.61-6.94,11.21l2.75,1.16.95-6.75a1.53,1.53,0,0,0-1-1.84,1.5,1.5,0,0,0-1.84,1Z" transform="translate(-541.42 -87.37)"/><path d="M774.88,322.4c-5-7.74-10.29-15.74-12.28-24.9-1.57-7.23-.45-15,3.94-21.13a16.8,16.8,0,0,1,9.14-6.48,1.5,1.5,0,0,0-.8-2.89c-7.62,2.08-12.76,8.77-14.86,16.15-2.52,8.87-.31,17.94,3.59,26.06a129.16,129.16,0,0,0,8.68,14.7c1.06,1.61,3.65.11,2.59-1.51Z" transform="translate(-541.42 -87.37)"/><path d="M753.74,289.16l-.13,1.67c-.15,1.95,2.77,1.87,3,0l.43-3.56h-3l1.14,13a1.5,1.5,0,0,0,3,0l.79-15c.1-1.95-2.81-1.88-3,0l-6.07,60.12c-.2,1.92,2.8,1.9,3,0L759,285.25h-3l-.79,15h3l-1.14-13a1.5,1.5,0,0,0-3,0l-.43,3.56h3l.13-1.67c.15-1.93-2.85-1.92-3,0Z" transform="translate(-541.42 -87.37)"/><path d="M759.14,287.49l-5.34,32.95c-.31,1.89,2.58,2.7,2.89.8L762,288.29c.31-1.89-2.58-2.71-2.89-.8Z" transform="translate(-541.42 -87.37)"/><path d="M752.35,429.88l-7.2,21.6c-.61,1.84,2.29,2.62,2.9.8l7.2-21.6c.61-1.84-2.29-2.62-2.9-.8Z" transform="translate(-541.42 -87.37)"/><path d="M752.31,434.6l-1.45,30.24c-.09,1.93,2.91,1.93,3,0l1.45-30.24c.09-1.93-2.91-1.92-3,0Z" transform="translate(-541.42 -87.37)"/></g><g id="Capa_4" data-name="Capa 4"><path class="cls-2" d="M1114.31,357.16c-4-13.47-15-24.27-27.91-29.87-12.62-5.48-26.92-6.32-40.53-4.19a4.15,4.15,0,0,1-.74.33l17.08,21a3,3,0,0,1,.58-.42l.17-.09c.24-.1.48-.22.73-.3a2.59,2.59,0,0,1,.4-.09,7,7,0,0,1,1.11-.11,2.53,2.53,0,0,1,1.26.34l.07.06a1.09,1.09,0,0,1,.44,0,2.59,2.59,0,0,1,1.53.31,2.5,2.5,0,0,1,1.24,2.16,3.57,3.57,0,0,1-.1.74,1.33,1.33,0,0,1,0,.4,6.88,6.88,0,0,1-.18,1.09c0,.07,0,.14-.08.22a7.11,7.11,0,0,1-.33.75,2.2,2.2,0,0,1-.24.38,9.3,9.3,0,0,1-.16.92,2.36,2.36,0,0,1-.53,1l35.65,43.86C1114.61,386.59,1118.35,370.64,1114.31,357.16Z" transform="translate(-541.42 -87.37)"/><path class="cls-2" d="M1115.75,356.77A48.66,48.66,0,0,0,1097.63,332c-9.3-6.83-20.59-10.34-32-11.24a79.28,79.28,0,0,0-10.34-.14c-1.8.09-3.59.23-5.39.43a21.25,21.25,0,0,0-5.15.92,1.53,1.53,0,0,0-.66,2.51L1059,342.87l2.13,2.62a1.54,1.54,0,0,0,2.13,0,2.89,2.89,0,0,1,2.19-.54,9.75,9.75,0,0,0,1.07.37c.5.06.92-.14,1.35.21s.37,1.75.22,2.4a9,9,0,0,1-.55,1.17c-.19.49-.13,1.17-.45,1.59a1.55,1.55,0,0,0,0,2.12l12.09,14.88,19.12,23.52,4.44,5.46a1.53,1.53,0,0,0,2.12,0c11.29-9.55,15-26,10.88-39.9-.54-1.85-3.44-1.07-2.89.79,3.82,13,.4,28.09-10.11,37h2.12l-12.1-14.89-19.11-23.51-4.44-5.46v2.12a12.61,12.61,0,0,0,1.49-3.3,8.66,8.66,0,0,0,.53-3.23c0-2.69-2.31-4-4.71-4l1.06.44c-1.93-1.5-4.68-.8-6.45.61h2.13l-15-18.38-2.13-2.62-.66,2.5c2.68-1,6-1,8.84-1.19a81.29,81.29,0,0,1,8.55-.08,67.48,67.48,0,0,1,17.21,2.95,52.46,52.46,0,0,1,25,16.6,42.31,42.31,0,0,1,7.75,14.41C1113.42,359.4,1116.32,358.62,1115.75,356.77Z" transform="translate(-541.42 -87.37)"/><path class="cls-2" d="M1068.42,351.4a3,3,0,0,1-.88.88,2.19,2.19,0,0,1-1.25.32,2.4,2.4,0,0,1-1.33.38l-.21,0a3.06,3.06,0,0,1-.51.21,2.58,2.58,0,0,1-1.35,0l-.61-.25a3.9,3.9,0,0,1-.51-.4l-.39-.5s-.06-.12-.09-.18h0a2.65,2.65,0,0,1-.86-3.52,1.63,1.63,0,0,1,.16-.47,1.8,1.8,0,0,1,.25-.5v0a7,7,0,0,1,.11-.8.59.59,0,0,1,0-.13,4.11,4.11,0,0,1,.34-.84,1.28,1.28,0,0,1,.15-.25,4,4,0,0,1,.59-.72c.13-.11.26-.23.4-.33l-17.34-20.8a5.4,5.4,0,0,1-.72.16,4.45,4.45,0,0,1-1.36.54c-9.36,6.37-18.66,12.95-26.4,21.19-8.22,8.74-14.66,19.59-16.16,31.49s2.6,24.86,12.09,32.2c6.21,4.79,14.1,6.88,21.89,7.81a90.12,90.12,0,0,0,70-22.16Z" transform="translate(-541.42 -87.37)"/><path class="cls-2" d="M1067.12,350.64c-.38.52-1.14.55-1.71.73s-1.06.25-1.56.35c-.88.18-1.31-.63-1.81-1.19-.76-.83-.27-1.51.09-2.43.43-1.12.33-2,1.37-2.8a1.52,1.52,0,0,0,0-2.12L1048.33,325l-2.17-2.59a1.49,1.49,0,0,0-1.46-.39c-3.46.93-6.43,3.57-9.33,5.63-3.12,2.21-6.19,4.5-9.17,6.9a93.64,93.64,0,0,0-15.72,15.74c-8.3,10.82-13.5,24.37-11.26,38.11a36.49,36.49,0,0,0,7.54,17.09c4.34,5.33,10.43,8.77,17,10.74a72.43,72.43,0,0,0,20.77,2.74,92,92,0,0,0,57.07-19.84c1.37-1.08,2.7-2.21,4-3.37a1.55,1.55,0,0,0,0-2.13L1093.34,379l-19.43-23.31-4.43-5.31c-1.24-1.48-3.35.65-2.12,2.12l12.2,14.64L1099,390.41l4.43,5.32V393.6c-19.26,17.24-46.77,25.67-72.35,21.24-6.65-1.15-13.42-3.34-18.62-7.82a30.91,30.91,0,0,1-9.26-14.73c-3.71-12.47-.16-25.44,6.75-36.1a80.44,80.44,0,0,1,15.59-17.25c3.17-2.7,6.49-5.24,9.87-7.67,1.65-1.2,3.32-2.37,5-3.53a17.08,17.08,0,0,1,5.09-2.86l-1.46-.38,15.18,18.2,2.16,2.6v-2.12a5.43,5.43,0,0,0-1.72,2.37,7.44,7.44,0,0,0-.31,1.56c-.07.61.29-.67-.07,0a6.14,6.14,0,0,0-.25.59,4.88,4.88,0,0,0-.35,2.82,5,5,0,0,0,1.49,2.37c-.24-.24.2.27.23.32a4,4,0,0,0,.56.61,3.5,3.5,0,0,0,1,.63,4,4,0,0,0,2.76.15c.09,0,.72-.2.33-.14s.55,0,.64,0a4,4,0,0,0,.67-.2c1.08-.41-.25,0,.41-.14a4.37,4.37,0,0,0,2.89-1.9C1070.86,350.6,1068.26,349.11,1067.12,350.64Z" transform="translate(-541.42 -87.37)"/><path d="M1062.27,330.37c-6.83,2.45-12.3,7.6-17.45,12.7a606.08,606.08,0,0,0-41,44.85l56.27-38.31a2.64,2.64,0,0,1,.33-1.3,1.63,1.63,0,0,1,.16-.47,1.8,1.8,0,0,1,.25-.5v0a7,7,0,0,1,.11-.8.59.59,0,0,1,0-.13,4.11,4.11,0,0,1,.34-.84,1.28,1.28,0,0,1,.15-.25,4,4,0,0,1,.59-.72,4.58,4.58,0,0,1,.75-.56l.17-.09c.24-.1.48-.22.73-.3a2.59,2.59,0,0,1,.4-.09,7,7,0,0,1,1.11-.11,2.53,2.53,0,0,1,1.26.34l.07.06a1.09,1.09,0,0,1,.44,0,2.65,2.65,0,0,1,1.31.22l14-9.51C1077.68,328.88,1069.1,327.92,1062.27,330.37Z" transform="translate(-541.42 -87.37)"/><path d="M1021.35,371.61a46.67,46.67,0,0,0,43.84,9.54c1.84-.56,1-3.45-.8-2.89a43.57,43.57,0,0,1-40.91-8.77c-1.45-1.27-3.58.84-2.13,2.12Z" transform="translate(-541.42 -87.37)"/><path d="M1086.57,369.14a40.81,40.81,0,0,0-5.23-35.57c-1.09-1.57-3.7-.07-2.59,1.52a37.91,37.91,0,0,1,4.92,33.26c-.6,1.84,2.3,2.62,2.9.79Z" transform="translate(-541.42 -87.37)"/><path d="M1081.8,337.05l-12.51,7.84a2.33,2.33,0,0,1,.45,1.39,3.57,3.57,0,0,1-.1.74,1.33,1.33,0,0,1,0,.4,6.88,6.88,0,0,1-.18,1.09c0,.07,0,.14-.08.22a7.11,7.11,0,0,1-.33.75,2.2,2.2,0,0,1-.24.38,9.3,9.3,0,0,1-.16.92,2.54,2.54,0,0,1-1.15,1.5,2.19,2.19,0,0,1-1.25.32,2.4,2.4,0,0,1-1.33.38l-.21,0a3.06,3.06,0,0,1-.51.21,2.58,2.58,0,0,1-1.35,0l-.61-.25a3.9,3.9,0,0,1-.51-.4l-.39-.5s-.06-.12-.09-.18h0a2.28,2.28,0,0,1-1-1.27l-32.06,20.09c9,1.88,18.12,3.7,27.28,3s18.49-4.1,24.38-11.15S1087.22,344.46,1081.8,337.05Z" transform="translate(-541.42 -87.37)"/><path d="M1081,335.76l-12.5,7.83a1.51,1.51,0,0,0-.54,2.05c.64,1.09,0,2.44-.45,3.46-.22.51-.13,1.19-.48,1.62s-.85.37-1.36.51-.89.17-1.36.28-.68.37-1.17.17c-.32-.13-.39-.35-.59-.59s-.76-.58-.91-.93a1.52,1.52,0,0,0-2.2-.89l-28.08,17.59-4,2.49a1.52,1.52,0,0,0,.36,2.74c12.19,2.56,25,5,37.29,1.4,10.08-3,19-10.28,21.13-21a20.92,20.92,0,0,0-3.11-16.18c-1.11-1.56-3.72-.06-2.59,1.51,5.52,7.71,3.31,18.57-3,25.1-7.26,7.5-18.21,9.76-28.28,9.38-7-.27-13.82-1.66-20.62-3.09l.36,2.74L1057,354.35l4-2.49-2.2-.9a4.63,4.63,0,0,0,.69,1.25,3.49,3.49,0,0,0,.45.49c.9.79-.13-.25.26.2a4.71,4.71,0,0,0,1.82,1.52,4,4,0,0,0,2.63.19c.21-.06.4-.18.61-.24-.42.12-.21.1.09.08a6.33,6.33,0,0,0,1.35-.38,5.27,5.27,0,0,0,2.29-1,6.29,6.29,0,0,0,1.41-2.81c.75-2,1.35-4.16.2-6.11l-.54,2.05,12.5-7.83C1084.18,337.33,1082.68,334.73,1081,335.76Z" transform="translate(-541.42 -87.37)"/><path d="M1058.77,349.1l-28,19c-1.59,1.08-.09,3.68,1.51,2.59l28.06-19.05c1.58-1.08.08-3.68-1.52-2.59Z" transform="translate(-541.42 -87.37)"/><path d="M1080,334.72l-10.3,7a1.5,1.5,0,1,0,1.51,2.59l10.31-7a1.53,1.53,0,0,0,.53-2.05,1.5,1.5,0,0,0-2-.54Z" transform="translate(-541.42 -87.37)"/></g><g id="Orejas"><path d="M1180.23,285.7a429.29,429.29,0,0,1,151.19-26.18c20.6.18,41.7,2,60.41,10.61s34.78,25.21,38,45.56c4.42,27.75-15.29,53.61-37,71.4-56.78,46.41-136.62,63-207.21,43.15" transform="translate(-541.42 -87.37)"/><path d="M1180.63,287.15A428.19,428.19,0,0,1,1305,261.61c10.52-.56,21.07-.75,31.6-.5a185.94,185.94,0,0,1,30.43,2.87c18,3.43,35.34,10.93,47.79,24.76a55.41,55.41,0,0,1,12.23,21.39,50.17,50.17,0,0,1,.47,25.52c-4.18,17.59-16,32.58-29.11,44.59a206.31,206.31,0,0,1-44,30.33,232.94,232.94,0,0,1-49.83,19.05,235.29,235.29,0,0,1-52.86,7.32,225.19,225.19,0,0,1-53.06-5q-6.39-1.4-12.69-3.16a1.5,1.5,0,0,0-.79,2.89,225.72,225.72,0,0,0,53.88,8.21,238.43,238.43,0,0,0,106-21.44,224.73,224.73,0,0,0,46.3-28.32c14.37-11.39,27.73-25.35,35.18-42.34a60,60,0,0,0,5.38-25.87,52.78,52.78,0,0,0-7-24.41c-8.82-15.43-24.06-26.2-40.6-32-19.72-7-41.13-7.69-61.85-7.43a431.14,431.14,0,0,0-127.69,21q-7.51,2.45-14.94,5.17c-1.8.66-1,3.56.8,2.89Z" transform="translate(-541.42 -87.37)"/><path d="M1182.65,282c-5.57,25-11.15,50.12-12.22,75.69s2.63,51.86,14.69,74.43" transform="translate(-541.42 -87.37)"/><path d="M1181.2,281.57c-4.6,20.68-9.2,41.42-11.3,62.54-1.94,19.5-1.61,39.38,2.79,58.55a122.63,122.63,0,0,0,11.14,30.18c.9,1.71,3.49.2,2.59-1.51-8.91-16.75-13.21-35.57-14.34-54.43-1.21-20.12,1.15-40.25,4.78-60,2.12-11.56,4.68-23,7.23-34.51.42-1.88-2.47-2.68-2.89-.8Z" transform="translate(-541.42 -87.37)"/><path d="M761.09,245.91c-14.49,15.2-37.27,19.17-58.25,18.45S661,259.09,640,260.74c-41.38,3.26-79.45,33-92.63,72.37-8.29,24.78-5.72,55.4,14,72.54C578,420.08,602.05,421.52,624,420.37c39.84-2.07,82.66-12.21,107.81-43.18,27.29-33.61,26.07-81.33,23.49-124.54" transform="translate(-541.42 -87.37)"/><path d="M760,244.85c-15,15.58-38,18.83-58.66,18-13.44-.57-26.76-2.61-40.18-3.5-11.78-.78-23.61-.53-35.17,2a111.35,111.35,0,0,0-52.06,28c-14.29,13.54-25.33,31.1-30,50.32-4.59,18.85-3.42,40.52,7.59,57a52.51,52.51,0,0,0,23.24,19c9.92,4.23,20.71,5.9,31.43,6.36a243,243,0,0,0,63.11-6.61c19.77-5,39-13.47,54.25-27.32,15.72-14.32,25.34-33.61,30-54.16,4.87-21.4,5-43.61,4.07-65.42-.22-5.3-.51-10.59-.83-15.88-.11-1.92-3.11-1.94-3,0,1.28,21.51,2.24,43.23-.39,64.69-2.54,20.66-8.86,41.34-21.92,57.86-12.56,15.89-30.23,26.62-49.19,33.22-19.45,6.77-40.13,9.69-60.65,10.57s-43.59-.5-59.63-14.76c-14.63-13-19.07-33.56-17.18-52.38,2-19.45,11-37.89,23.7-52.57A109.9,109.9,0,0,1,616.71,267a102.71,102.71,0,0,1,30.61-5.1c13.2-.22,26.31,1.56,39.43,2.82,21.41,2.07,44.67,2.5,63.89-8.72a53,53,0,0,0,11.51-9c1.34-1.4-.78-3.52-2.12-2.13Z" transform="translate(-541.42 -87.37)"/><path d="M691.81,730.71a852.42,852.42,0,0,0,237.62,28.56c13.5-.29,27.3-.86,40.2,3.13,17.13,5.29,31,18.17,41.74,32.5,29,38.59,39.2,90.74,26.77,137.42-13.84-42.25-54.89-68.48-93.08-91.25L876.8,800.38c-21.36-12.74-43.46-25.75-68.09-29.26-23.7-3.38-47.92,2.34-71.71-.36s-49.54-18.67-50-42.6" transform="translate(-541.42 -87.37)"/><path d="M691.41,732.15a851.23,851.23,0,0,0,99,20.19,855.77,855.77,0,0,0,99.71,8.36c16.73.42,33.43,0,50.16-.13,8.12-.05,16.31.23,24.26,2a62.7,62.7,0,0,1,19.93,8.4c11.83,7.51,21.39,18.28,29.29,29.73a157.61,157.61,0,0,1,19,37.52A161.73,161.73,0,0,1,1039,922q-1,5-2.29,10h2.89c-8-24.22-25.13-43.67-44.74-59.41-21.69-17.4-46.17-31-70-45.23l-43.11-25.7c-13.2-7.87-26.37-15.91-40.44-22.15s-28.59-10.2-43.93-10.8C781.25,768,765.17,770.24,749,770c-13.17-.2-26-2.48-37.59-9-9.69-5.41-18.49-13.7-21.68-24.62a31.94,31.94,0,0,1-1.26-8.24c0-1.93-3-1.94-3,0,.62,24.11,24.67,39.24,46.11,43.29,15.23,2.88,31,1.24,46.31.47a188.63,188.63,0,0,1,24.13,0A103.08,103.08,0,0,1,825,776.4c14.59,4.57,28.14,11.84,41.29,19.51,14.31,8.33,28.47,16.92,42.69,25.4,13.75,8.2,27.54,16.34,41.25,24.61,11.24,6.77,22.36,13.76,33,21.47,20.46,14.84,39.61,33,50.06,56.39q1.93,4.38,3.43,8.93a1.51,1.51,0,0,0,2.89,0,164.63,164.63,0,0,0-17-123.68c-7.1-12.16-15.81-23.75-26.47-33-11.06-9.62-23.94-15.82-38.54-17.63-8.24-1-16.57-.86-24.85-.68-8.55.19-17.1.3-25.65.26a851.41,851.41,0,0,1-101.81-6.63,848.54,848.54,0,0,1-100.88-18.92q-6.09-1.53-12.15-3.15a1.5,1.5,0,0,0-.8,2.89Z" transform="translate(-541.42 -87.37)"/></g></svg>