<svg id="Capa_1" data-name="Capa 1" xmlns="http://www.w3.org/2000/svg" viewBox="0 0 100 100"><defs><style>.cls-1{fill:#fff;}</style></defs><title>simonDice</title><path class="cls-1" d="M40,5V40H5V30A25,25,0,0,1,30,5H40m5-5H30A30,30,0,0,0,0,30V45H45V0Z"/><path class="cls-1" d="M95,60V70A25,25,0,0,1,70,95H60V60H95m5-5H55v45H70a30,30,0,0,0,30-30V55Z"/><path class="cls-1" d="M70,5A25,25,0,0,1,95,30V40H60V5H70m0-5H55V45h45V30A30,30,0,0,0,70,0Z"/><path class="cls-1" d="M40,60V95H30A25,25,0,0,1,5,70V60H40m5-5H0V70a30,30,0,0,0,30,30H45V55Z"/></svg>