<svg id="Capa_1" data-name="Capa 1" xmlns="http://www.w3.org/2000/svg" viewBox="0 0 109 132.25"><defs><style>.cls-1{fill:#fff;}.cls-2{font-size:100px;font-family:GillSans-UltraBold, Gill Sans Ultra Bold;font-weight:700;}</style></defs><title>buscandoCara2</title><path class="cls-1" d="M695,208a15,15,0,0,1,15,15v69a15,15,0,0,1-15,15H626a15,15,0,0,1-15-15V223a15,15,0,0,1,15-15h69m0-5H626a20,20,0,0,0-20,20v69a20,20,0,0,0,20,20h69a20,20,0,0,0,20-20V223a20,20,0,0,0-20-20Z" transform="translate(-606 -203)"/><text class="cls-2" transform="translate(28.17 92.17)">?</text></svg>