<svg id="Capa_1" data-name="Capa 1" xmlns="http://www.w3.org/2000/svg" viewBox="0 0 44 43"><defs><style>.cls-1{fill:#fff;}</style></defs><title>dibujando2</title><path class="cls-1" d="M12.76,18.23l-5-5a2,2,0,0,1,0-2.83l3.6-3.6a2,2,0,0,1,2.83,0l5,5Z" transform="translate(-6 -6)"/><rect class="cls-1" x="25.91" y="12.05" width="9.1" height="34.87" transform="translate(-17.93 24.17) rotate(-45)"/><circle class="cls-1" cx="41.7" cy="34.79" r="1.25"/><circle class="cls-1" cx="35.05" cy="41.11" r="1.25"/><circle class="cls-1" cx="42.83" cy="41.82" r="1"/><rect class="cls-1" x="12" width="32" height="2"/><rect class="cls-1" x="33" y="21" width="32" height="2" transform="translate(21 65) rotate(-90)"/><rect class="cls-1" x="6" y="47" width="32" height="2" transform="translate(38 90) rotate(180)"/><rect class="cls-1" x="-9" y="32" width="32" height="2" transform="translate(34 20) rotate(90)"/></svg>