<svg id="Capa_1" data-name="Capa 1" xmlns="http://www.w3.org/2000/svg" viewBox="0 0 507.52 443.06"><defs><style>.cls-1,.cls-2{fill:red;}.cls-2{stroke:#000;stroke-miterlimit:10;}</style></defs><title>corazon</title><circle class="cls-1" cx="127.58" cy="126.63" r="126.13"/><path d="M571.58,282a125.64,125.64,0,1,1-88.83,36.8A124.78,124.78,0,0,1,571.58,282m0-1A126.63,126.63,0,1,0,698.21,407.63,126.62,126.62,0,0,0,571.58,281Z" transform="translate(-444 -281)"/><circle class="cls-1" cx="824.84" cy="407.63" r="126.13" transform="translate(-490.65 421.64) rotate(-45)"/><path d="M824.84,282A125.64,125.64,0,1,1,736,318.8,124.82,124.82,0,0,1,824.84,282m0-1A126.63,126.63,0,1,0,951.47,407.63,126.63,126.63,0,0,0,824.84,281Z" transform="translate(-444 -281)"/><path class="cls-2" d="M697.76,737.5" transform="translate(-444 -281)"/><path class="cls-2" d="M444.5,407.63s8.11,239.27,253.26,315.9c0,0,246-97.59,253.26-315.9" transform="translate(-444 -281)"/></svg>