<svg xmlns="http://www.w3.org/2000/svg" viewBox="0 0 401.22 235.67"><defs><style>.cls-1,.cls-3{fill:#fff;}.cls-2,.cls-3{stroke:#000;stroke-miterlimit:10;}.cls-4{fill:red;}</style></defs><title>perro</title><g id="Capa_4" data-name="Capa 4"><rect class="cls-1" x="91.52" y="36.17" width="199.5" height="199.5" rx="40.7"/></g><g id="Capa_2" data-name="Capa 2"><path class="cls-1" d="M561.47,362c-1.25-12.43,10.68-24.43,23.11-23.27,12.17,1.13,22,12.46,34.22,12.11,9.27-.26,17.29-7.73,20.23-16.53s1.56-18.53-1.61-27.24c-10.45-28.69-39.95-48-70.35-50.83s-60.92,9.24-84.74,28.34c-14.15,11.35-27.11,27.46-25.51,45.53" transform="translate(-240.98 -253.83)"/><path class="cls-1" d="M563,362c-1-10.93,8.5-21.58,19.51-21.85,5.77-.14,11.16,2.62,16.12,5.25s10.16,5.66,15.85,6.61c11.81,2,22.36-6.39,26-17.3,4.23-12.58.08-26.75-6.11-38-11.09-20.07-31.56-34.11-53.56-39.67-25.13-6.34-51.86-1.14-74.7,10.38a131.15,131.15,0,0,0-32,22.4c-8.71,8.44-16.49,19.11-18.4,31.37a37.68,37.68,0,0,0-.34,8.88c.16,1.91,3.16,1.92,3,0-1-12.24,4.8-23.51,12.59-32.56,8.27-9.58,18.73-17.32,29.62-23.65,21.77-12.65,47.88-19.68,73-15.3,21.76,3.79,42.59,16,55,34.44,6.77,10.08,11.9,22.87,10.32,35.2-1.42,11-10.24,22-22.26,21-5.59-.45-10.68-3.36-15.52-5.94s-10.11-5.34-15.8-6c-10.88-1.33-21.4,6.65-24.53,16.89A20.56,20.56,0,0,0,560,362c.17,1.91,3.17,1.92,3,0Z" transform="translate(-240.98 -253.83)"/><circle class="cls-1" cx="273.52" cy="78.67" r="57.5"/><circle class="cls-2" cx="254.02" cy="89.17" r="10"/><circle class="cls-2" cx="128.52" cy="78.67" r="57.5"/><path d="M321.66,361.49c1.24-12.43-10.68-24.43-23.11-23.27-12.17,1.13-22,12.46-34.22,12.11-9.27-.26-17.29-7.73-20.23-16.52s-1.56-18.53,1.61-27.25c10.44-28.69,39.94-48,70.35-50.83S377,265,400.8,284.08c14.15,11.34,27.11,27.45,25.51,45.52" transform="translate(-240.98 -253.83)"/><path d="M323.16,361.49c1-10.9-7.26-21.38-17.65-24.15-11.69-3.11-21.29,5.28-31.44,9.44-5,2.06-10.41,2.86-15.59.81a23,23,0,0,1-11.69-11.2c-5.85-11.64-1.95-26.11,3.72-37,10.28-19.82,29.89-33.75,51.2-39.51,24.3-6.57,50.38-1.84,72.66,9.13a130.14,130.14,0,0,1,31.7,21.67c8.63,8.15,16.36,18.35,18.41,30.31a34.31,34.31,0,0,1,.33,8.65c-.16,1.92,2.84,1.91,3,0,1-12.47-4.68-24.05-12.44-33.45-8.19-9.91-18.81-17.92-29.8-24.49-22.32-13.35-49-20.72-75-16.75-22.52,3.43-44,15.71-57.38,34.33-7.15,10-12.47,22.49-12.21,34.94a30.48,30.48,0,0,0,5.71,17.75,24.3,24.3,0,0,0,13.69,9.39c12,2.76,21.6-6.41,32.18-10.18,5.34-1.9,10.87-2.06,16,.57a21.92,21.92,0,0,1,10.62,12,18.42,18.42,0,0,1,1,7.83c-.17,1.92,2.83,1.91,3,0Z" transform="translate(-240.98 -253.83)"/><circle class="cls-3" cx="138.02" cy="89.17" r="10"/></g><g id="Capa_6" data-name="Capa 6"><path class="cls-4" d="M414.42,460.94s17.64,31.45,36.36,0C450.78,460.94,423.34,445.39,414.42,460.94Z" transform="translate(-240.98 -253.83)"/><path class="cls-2" d="M426.5,436.5s-18-14-21-19,1-20,29-17,25,10,25,10,10,4-21,28c0,0,7,24,38-6,0,0,22-4,5,17,0,0-21,19-47,7,0,0-18,10-37,0s-18-20-18-20,4-10,14,0c0,0,5.5,15.5,30.5,10.5C424,447,429,444,426.5,436.5Z" transform="translate(-240.98 -253.83)"/></g></svg>